G04 DipTrace 4.0.0.0*
G04 rangoon_panel_plugg.GBL*
%MOIN*%
G04 #@! TF.FileFunction,Copper,L2,Bot*
G04 #@! TF.Part,Single*
G04 #@! TA.AperFunction,Conductor*
%ADD15C,0.007*%
G04 #@! TA.AperFunction,CopperBalancing*
%ADD16C,0.009*%
G04 #@! TA.AperFunction,ComponentPad*
%ADD19C,0.244094*%
%ADD20O,0.2244X0.126*%
%ADD21C,0.32*%
%FSLAX26Y26*%
G04*
G70*
G90*
G75*
G01*
G04 Bottom*
%LPD*%
X2419261Y2590193D2*
D15*
Y2858180D1*
X2507824Y2946743D1*
X2682824D1*
X2689073Y2940492D1*
X2419261Y2590193D2*
Y1940487D1*
X2419882Y1939866D1*
X2264073Y2940492D2*
X2120324D1*
Y2843441D1*
X1867076Y2590193D1*
Y1941562D1*
X1865381Y1939866D1*
X1882824Y2940492D2*
X1701573D1*
X1601573Y2840492D1*
Y2646743D1*
X1545024Y2590193D1*
X1318169D1*
Y1940772D1*
X1317264Y1939866D1*
X1470324Y2934243D2*
X1289073D1*
X1220324Y2865492D1*
X1043360D1*
X768059Y2590193D1*
Y1941701D1*
X766224Y1939866D1*
X437852Y5200997D2*
D16*
X426471Y5189617D1*
X468963Y5200997D2*
X426472Y5158505D1*
X500076Y5200997D2*
X426461Y5127381D1*
X531189Y5200997D2*
X426462Y5096270D1*
X562302Y5200997D2*
X426463Y5065159D1*
X593415Y5200997D2*
X426465Y5034047D1*
X624528Y5200997D2*
X426466Y5002936D1*
X655640Y5200997D2*
X426469Y4971824D1*
X686753Y5200997D2*
X426470Y4940714D1*
X717865Y5200997D2*
X570915Y5054046D1*
X476756Y4959887D2*
X426471Y4909602D1*
X748978Y5200997D2*
X604278Y5056297D1*
X474508Y4926526D2*
X426472Y4878491D1*
X780091Y5200997D2*
X630518Y5051424D1*
X479369Y4900274D2*
X426461Y4847367D1*
X811203Y5200997D2*
X652508Y5042301D1*
X488507Y4878299D2*
X426462Y4816256D1*
X842316Y5200997D2*
X671190Y5029871D1*
X500925Y4859605D2*
X426463Y4785144D1*
X873429Y5200997D2*
X686965Y5014533D1*
X516277Y4843844D2*
X426465Y4754033D1*
X904542Y5200997D2*
X699831Y4996286D1*
X534525Y4830980D2*
X426466Y4722921D1*
X935655Y5200997D2*
X709490Y4974832D1*
X555967Y4821310D2*
X426469Y4691810D1*
X966766Y5200997D2*
X715085Y4949315D1*
X581487Y4815717D2*
X426470Y4660699D1*
X997879Y5200997D2*
X714253Y4917370D1*
X613432Y4816549D2*
X426471Y4629588D1*
X1028992Y5200997D2*
X689706Y4861711D1*
X669080Y4841085D2*
X426472Y4598476D1*
X1060105Y5200997D2*
X865686Y5006577D1*
X820761Y4961652D2*
X426461Y4567353D1*
X1091218Y5200997D2*
X900789Y5010568D1*
X816772Y4926551D2*
X426462Y4536241D1*
X1122331Y5200997D2*
X924605Y5003272D1*
X824070Y4902736D2*
X426463Y4505130D1*
X1153444Y5200997D2*
X942778Y4990332D1*
X837010Y4884564D2*
X426465Y4474018D1*
X1184556Y5200997D2*
X956217Y4972657D1*
X854686Y4871127D2*
X426466Y4442907D1*
X1215669Y5200997D2*
X964210Y4949538D1*
X877794Y4863123D2*
X426469Y4411797D1*
X1246781Y5200997D2*
X962248Y4916463D1*
X910883Y4865098D2*
X426470Y4380685D1*
X1277894Y5200997D2*
X426471Y4349573D1*
X1309007Y5200997D2*
X426472Y4318462D1*
X1340119Y5200997D2*
X426461Y4287339D1*
X1371232Y5200997D2*
X426462Y4256227D1*
X1402345Y5200997D2*
X737005Y4535657D1*
X626054Y4424706D2*
X426463Y4225115D1*
X1433458Y5200997D2*
X776396Y4543936D1*
X617777Y4385316D2*
X426465Y4194004D1*
X1464571Y5200997D2*
X807546Y4543972D1*
X617740Y4354168D2*
X426466Y4162894D1*
X1495682Y5200997D2*
X834184Y4539497D1*
X622205Y4327518D2*
X426469Y4131782D1*
X1526795Y5200997D2*
X857652Y4531854D1*
X629850Y4304051D2*
X426470Y4100671D1*
X1557908Y5200997D2*
X878585Y4521673D1*
X640043Y4283133D2*
X426471Y4069559D1*
X1589021Y5200997D2*
X897306Y4509282D1*
X652437Y4264413D2*
X426472Y4038448D1*
X1620134Y5200997D2*
X913988Y4494850D1*
X666857Y4247720D2*
X426461Y4007324D1*
X1651247Y5200997D2*
X928706Y4478457D1*
X683253Y4233004D2*
X426462Y3976213D1*
X1682360Y5200997D2*
X941398Y4460035D1*
X701676Y4220312D2*
X426463Y3945101D1*
X1713472Y5200997D2*
X951927Y4439451D1*
X722260Y4209785D2*
X426465Y3913990D1*
X1744584Y5200997D2*
X959970Y4416383D1*
X745331Y4201743D2*
X426466Y3882879D1*
X1775697Y5200997D2*
X964955Y4390256D1*
X771446Y4196747D2*
X426469Y3851768D1*
X1806810Y5200997D2*
X965715Y4359903D1*
X801814Y4196000D2*
X426470Y3820656D1*
X1837923Y5200997D2*
X959129Y4322203D1*
X839514Y4202588D2*
X426471Y3789545D1*
X1869035Y5200997D2*
X426472Y3758433D1*
X1900148Y5200997D2*
X1356718Y4657567D1*
X1321698Y4622547D2*
X426461Y3727310D1*
X1931261Y5200997D2*
X1387831Y4657567D1*
X1321699Y4591436D2*
X426462Y3696198D1*
X1962374Y5200997D2*
X1418944Y4657567D1*
X1321702Y4560325D2*
X426463Y3665087D1*
X1993486Y5200997D2*
X1448950Y4656461D1*
X1321690Y4529201D2*
X426465Y3633976D1*
X2024598Y5200997D2*
X1461953Y4638350D1*
X1321692Y4498089D2*
X426466Y3602865D1*
X2055711Y5200997D2*
X1461954Y4607239D1*
X1321693Y4466979D2*
X426469Y3571753D1*
X2086824Y5200997D2*
X1461955Y4576129D1*
X1321694Y4435867D2*
X426470Y3540642D1*
X2117937Y5200997D2*
X1461957Y4545017D1*
X1321696Y4404756D2*
X426471Y3509530D1*
X2149050Y5200997D2*
X1461958Y4513906D1*
X1321697Y4373644D2*
X426472Y3478419D1*
X2180163Y5200997D2*
X1461959Y4482794D1*
X1321698Y4342533D2*
X740881Y3761715D1*
X627070Y3647904D2*
X426461Y3447295D1*
X2211276Y5200997D2*
X1461961Y4451682D1*
X1321699Y4311423D2*
X779699Y3769421D1*
X619365Y3609087D2*
X426462Y3416184D1*
X2242387Y5200997D2*
X1461962Y4420571D1*
X1321702Y4280311D2*
X810588Y3769198D1*
X619577Y3578186D2*
X426463Y3385073D1*
X2273500Y5200997D2*
X1730257Y4657753D1*
X1721129Y4648625D2*
X1461963Y4389461D1*
X1321690Y4249186D2*
X837064Y3764562D1*
X624215Y3551711D2*
X426465Y3353962D1*
X2304613Y5200997D2*
X1763731Y4660115D1*
X1718781Y4615164D2*
X1461953Y4358336D1*
X1321692Y4218076D2*
X860396Y3756781D1*
X631997Y3528382D2*
X426466Y3322850D1*
X2335726Y5200997D2*
X1794844Y4660115D1*
X1718769Y4584041D2*
X1461954Y4327224D1*
X1321693Y4186965D2*
X881218Y3746488D1*
X642290Y3507562D2*
X426469Y3291739D1*
X2366839Y5200997D2*
X1825957Y4660115D1*
X1718770Y4552929D2*
X1461955Y4296114D1*
X1321694Y4155853D2*
X899839Y3733997D1*
X654783Y3488942D2*
X426470Y3260627D1*
X2397951Y5200997D2*
X1852308Y4655354D1*
X1718773Y4521818D2*
X1461957Y4265003D1*
X1321696Y4124741D2*
X916446Y3719492D1*
X669290Y3472336D2*
X426471Y3229516D1*
X2429064Y5200997D2*
X1859034Y4630967D1*
X1718774Y4490706D2*
X1461958Y4233891D1*
X1321697Y4093630D2*
X931064Y3702997D1*
X685786Y3457719D2*
X426472Y3198406D1*
X2460177Y5200997D2*
X2265646Y5006466D1*
X2222995Y4963815D2*
X1859035Y4599856D1*
X1718776Y4459596D2*
X1461959Y4202780D1*
X1321698Y4062518D2*
X943657Y3684478D1*
X704307Y3445127D2*
X426461Y3167281D1*
X2491289Y5200997D2*
X2301482Y5011189D1*
X2218260Y4927969D2*
X1859037Y4568745D1*
X1718777Y4428484D2*
X1461961Y4171668D1*
X1321699Y4031408D2*
X954075Y3663782D1*
X725004Y3434711D2*
X426462Y3136169D1*
X2522402Y5200997D2*
X2325522Y5004117D1*
X2225335Y4903929D2*
X1859038Y4537634D1*
X1718778Y4397373D2*
X1461962Y4140556D1*
X1321702Y4000297D2*
X961993Y3640588D1*
X748186Y3426782D2*
X426463Y3105059D1*
X2553517Y5201000D2*
X2343860Y4991341D1*
X2238115Y4885598D2*
X1859042Y4506525D1*
X1718769Y4366252D2*
X1461954Y4109436D1*
X1321693Y3969176D2*
X966820Y3614302D1*
X774479Y3421962D2*
X426467Y3073950D1*
X2584629Y5200999D2*
X2357458Y4973827D1*
X2255629Y4871999D2*
X1859042Y4475412D1*
X1718769Y4335139D2*
X1461954Y4078323D1*
X1321693Y3938063D2*
X967329Y3583699D1*
X805081Y3421450D2*
X426467Y3042837D1*
X2615740Y5200996D2*
X2365661Y4950917D1*
X2278537Y4863794D2*
X1859042Y4444299D1*
X1718769Y4304026D2*
X1461954Y4047210D1*
X1321693Y3906950D2*
X960232Y3545490D1*
X843290Y3428546D2*
X426467Y3011724D1*
X2646852Y5200995D2*
X2364244Y4918388D1*
X2311066Y4865210D2*
X1859042Y4413186D1*
X1718769Y4272913D2*
X1461954Y4016098D1*
X1321693Y3875837D2*
X426467Y2980612D1*
X2677962Y5200993D2*
X2144713Y4667744D1*
X2118394Y4641425D2*
X1859042Y4382073D1*
X1718769Y4241801D2*
X1461954Y3984986D1*
X1321693Y3844724D2*
X426467Y2949499D1*
X2709073Y5200992D2*
X2566251Y5058169D1*
X2475782Y4967701D2*
X2175824Y4667743D1*
X2118394Y4610312D2*
X1859042Y4350961D1*
X1718769Y4210688D2*
X1461954Y3953873D1*
X1321693Y3813612D2*
X426467Y2918386D1*
X2740185Y5200991D2*
X2600432Y5061238D1*
X2472713Y4933518D2*
X2206948Y4667753D1*
X2118394Y4579199D2*
X1859042Y4319849D1*
X1718769Y4179575D2*
X1461954Y3922760D1*
X1321693Y3782499D2*
X426467Y2887274D1*
X2771308Y5201003D2*
X2627068Y5056761D1*
X2477188Y4906881D2*
X2238059Y4667752D1*
X2118394Y4548087D2*
X1859042Y4288736D1*
X1718769Y4148463D2*
X1461954Y3891647D1*
X1321693Y3751386D2*
X426467Y2856161D1*
X2773634Y5172214D2*
X2649318Y5047898D1*
X2486050Y4884630D2*
X2257163Y4655744D1*
X2118394Y4516975D2*
X1859042Y4257623D1*
X1718769Y4117350D2*
X1461954Y3860534D1*
X1321693Y3720274D2*
X426467Y2825049D1*
X2773571Y5141039D2*
X2668248Y5035715D1*
X2498243Y4865711D2*
X2258667Y4626135D1*
X2118394Y4485862D2*
X1859042Y4226510D1*
X1718769Y4086238D2*
X1461954Y3829421D1*
X1321693Y3689161D2*
X426467Y2793936D1*
X2773509Y5109864D2*
X2684219Y5020575D1*
X2513370Y4849724D2*
X2258667Y4595022D1*
X2118394Y4454749D2*
X1859042Y4195398D1*
X1718769Y4055125D2*
X1461954Y3798308D1*
X1321693Y3658049D2*
X426467Y2762823D1*
X2773446Y5078689D2*
X2697320Y5002563D1*
X2531392Y4836635D2*
X2258667Y4563909D1*
X2118394Y4423636D2*
X1859042Y4164285D1*
X1718769Y4024012D2*
X1461954Y3767197D1*
X1321693Y3626936D2*
X426467Y2731710D1*
X2773385Y5047514D2*
X2707239Y4981369D1*
X2552585Y4826715D2*
X2258667Y4532797D1*
X2118394Y4392524D2*
X1859042Y4133172D1*
X1718769Y3992899D2*
X1461954Y3736084D1*
X1321693Y3595823D2*
X426467Y2700597D1*
X2773323Y5016340D2*
X2713193Y4956210D1*
X2577743Y4820760D2*
X2258667Y4501684D1*
X2118394Y4361411D2*
X1859042Y4102059D1*
X1718769Y3961786D2*
X1461954Y3704971D1*
X1321693Y3564710D2*
X426467Y2669484D1*
X2773260Y4985165D2*
X2713018Y4924924D1*
X2609028Y4820932D2*
X2258667Y4470571D1*
X2118394Y4330298D2*
X1859042Y4070948D1*
X1718769Y3930673D2*
X1461954Y3673858D1*
X1321693Y3533597D2*
X426467Y2638373D1*
X2773198Y4953990D2*
X2694238Y4875030D1*
X2658920Y4839713D2*
X2258667Y4439459D1*
X2118394Y4299185D2*
X1859042Y4039835D1*
X1718769Y3899562D2*
X1461954Y3642745D1*
X1321693Y3502484D2*
X426467Y2607260D1*
X2773136Y4922815D2*
X2258667Y4408346D1*
X2118394Y4268073D2*
X1859042Y4008722D1*
X1718769Y3868449D2*
X1461954Y3611633D1*
X1321693Y3471371D2*
X426467Y2576147D1*
X2773073Y4891640D2*
X2544088Y4662655D1*
X2520567Y4639133D2*
X2258667Y4377234D1*
X2118394Y4236961D2*
X1859042Y3977609D1*
X1718769Y3837336D2*
X1461954Y3580520D1*
X1321693Y3440260D2*
X426467Y2545034D1*
X2773012Y4860466D2*
X2575199Y4662654D1*
X2520567Y4608020D2*
X2258667Y4346121D1*
X2118394Y4205848D2*
X1859042Y3946496D1*
X1718769Y3806223D2*
X1461954Y3549407D1*
X1321693Y3409147D2*
X426467Y2513921D1*
X2772950Y4829290D2*
X2606311Y4662652D1*
X2520567Y4576907D2*
X2258667Y4315008D1*
X2118394Y4174735D2*
X1859042Y3915383D1*
X1718769Y3775110D2*
X1461954Y3518295D1*
X1321693Y3378034D2*
X689018Y2745360D1*
X612895Y2669235D2*
X426467Y2482808D1*
X2772887Y4798115D2*
X2637423Y4662651D1*
X2520567Y4545794D2*
X2258667Y4283895D1*
X2118394Y4143622D2*
X1859042Y3884270D1*
X1718769Y3743997D2*
X1461954Y3487182D1*
X1321693Y3346921D2*
X736437Y2761665D1*
X596575Y2621803D2*
X426467Y2451696D1*
X2772825Y4766941D2*
X2658428Y4652543D1*
X2520567Y4514682D2*
X2258667Y4252782D1*
X2118394Y4112509D2*
X1859042Y3853157D1*
X1718769Y3712885D2*
X1461954Y3456070D1*
X1321693Y3315808D2*
X770570Y2764685D1*
X593579Y2587694D2*
X426467Y2420583D1*
X2772764Y4735766D2*
X2660827Y4623829D1*
X2520567Y4483570D2*
X2258667Y4221669D1*
X2118394Y4081396D2*
X1859042Y3822046D1*
X1718769Y3681772D2*
X1461954Y3424957D1*
X1321693Y3284696D2*
X799021Y2762024D1*
X596226Y2559230D2*
X426467Y2389471D1*
X2772701Y4704591D2*
X2660827Y4592717D1*
X2520567Y4452457D2*
X2258667Y4190558D1*
X2118394Y4050283D2*
X1859042Y3790933D1*
X1718769Y3650660D2*
X1461954Y3393844D1*
X1321693Y3253583D2*
X823829Y2755720D1*
X602541Y2534430D2*
X426467Y2358358D1*
X2772639Y4673416D2*
X2660827Y4561605D1*
X2520567Y4421344D2*
X2258667Y4159445D1*
X2118394Y4019171D2*
X1859042Y3759820D1*
X1718769Y3619547D2*
X1461954Y3362731D1*
X1321693Y3222470D2*
X845856Y2746633D1*
X611627Y2512404D2*
X426467Y2327245D1*
X2772576Y4642241D2*
X2660827Y4530492D1*
X2520567Y4390231D2*
X2258667Y4128332D1*
X2118394Y3988059D2*
X1859042Y3728707D1*
X1718769Y3588434D2*
X1461954Y3331618D1*
X1321693Y3191358D2*
X865543Y2735209D1*
X623037Y2492702D2*
X426467Y2296133D1*
X2772514Y4611067D2*
X2660827Y4499379D1*
X2520567Y4359118D2*
X2258667Y4097219D1*
X2118394Y3956946D2*
X1859042Y3697594D1*
X1718769Y3557322D2*
X1461954Y3300505D1*
X1321693Y3160245D2*
X1044941Y2883492D1*
X636549Y2475100D2*
X426467Y2265020D1*
X2772453Y4579892D2*
X2660827Y4468266D1*
X2520567Y4328005D2*
X2258667Y4066106D1*
X2118394Y3925833D2*
X1859042Y3666482D1*
X1718769Y3526209D2*
X1461954Y3269394D1*
X1322861Y3130301D2*
X1076051Y2883491D1*
X652047Y2459487D2*
X426467Y2233907D1*
X2772390Y4548717D2*
X2660827Y4437154D1*
X2520567Y4296892D2*
X2258667Y4034993D1*
X2118394Y3894720D2*
X1859042Y3635369D1*
X1718769Y3495096D2*
X1461954Y3238281D1*
X1341121Y3117448D2*
X1107163Y2883490D1*
X1071175Y2847501D2*
X912378Y2688705D1*
X669537Y2445862D2*
X426467Y2202794D1*
X2772328Y4517542D2*
X2660827Y4406041D1*
X2520567Y4265781D2*
X2258667Y4003881D1*
X2118394Y3863608D2*
X1859042Y3604256D1*
X1718769Y3463983D2*
X1461954Y3207168D1*
X1372232Y3117446D2*
X1138274Y2883488D1*
X1102286Y2847500D2*
X923925Y2669139D1*
X689113Y2434327D2*
X426467Y2171681D1*
X2772266Y4486367D2*
X2660827Y4374928D1*
X2520567Y4234668D2*
X2258667Y3972768D1*
X2118394Y3832495D2*
X1859042Y3573144D1*
X1718769Y3432870D2*
X1461954Y3176055D1*
X1403343Y3117445D2*
X1169386Y2883487D1*
X1133396Y2847499D2*
X933148Y2647249D1*
X711001Y2425102D2*
X426467Y2140570D1*
X2772217Y4455205D2*
X2660827Y4343815D1*
X2520567Y4203555D2*
X2258667Y3941655D1*
X2118394Y3801382D2*
X1859042Y3542031D1*
X1718769Y3401759D2*
X1461954Y3144942D1*
X1434467Y3117455D2*
X1200497Y2883486D1*
X1164508Y2847496D2*
X939625Y2622613D1*
X735636Y2418626D2*
X426467Y2109457D1*
X2772154Y4424030D2*
X2660827Y4312703D1*
X2520567Y4172442D2*
X2258667Y3910543D1*
X2118394Y3770269D2*
X1859042Y3510919D1*
X1718769Y3370646D2*
X1300369Y2952244D1*
X1195619Y2847495D2*
X942520Y2594396D1*
X750068Y2401944D2*
X426467Y2078344D1*
X2772092Y4392856D2*
X2660827Y4281591D1*
X2520567Y4141329D2*
X2258667Y3879430D1*
X2118394Y3739157D2*
X1859042Y3479806D1*
X1718769Y3339533D2*
X1331480Y2952243D1*
X1230559Y2851323D2*
X939923Y2560685D1*
X797562Y2418324D2*
X786056Y2406819D1*
X750068Y2370831D2*
X426467Y2047231D1*
X2772030Y4361680D2*
X2660827Y4250478D1*
X2520567Y4110217D2*
X2258667Y3848318D1*
X2118394Y3708045D2*
X1859042Y3448693D1*
X1718769Y3308420D2*
X1362592Y2952241D1*
X1326591Y2916240D2*
X924957Y2514608D1*
X843650Y2433301D2*
X786056Y2375707D1*
X750068Y2339718D2*
X426467Y2016118D1*
X2771967Y4330505D2*
X2660827Y4219365D1*
X2520567Y4079104D2*
X2258667Y3817205D1*
X2118394Y3676932D2*
X1859042Y3417580D1*
X1718769Y3277307D2*
X1393703Y2952240D1*
X1357714Y2916252D2*
X786056Y2344594D1*
X750068Y2308605D2*
X426467Y1985005D1*
X2771906Y4299331D2*
X2660827Y4188252D1*
X2520567Y4047991D2*
X2258667Y3786092D1*
X2118394Y3645819D2*
X1859042Y3386467D1*
X1718769Y3246194D2*
X1424814Y2952239D1*
X1388825Y2916251D2*
X786056Y2313482D1*
X750068Y2277492D2*
X426467Y1953892D1*
X2771844Y4268156D2*
X2660827Y4157139D1*
X2520567Y4016879D2*
X2258667Y3754979D1*
X2118394Y3614706D2*
X1859042Y3355354D1*
X1718769Y3215081D2*
X1455925Y2952238D1*
X1419937Y2916249D2*
X1257026Y2753339D1*
X1155012Y2651324D2*
X786056Y2282369D1*
X750068Y2246381D2*
X426467Y1922780D1*
X2771781Y4236980D2*
X2660827Y4126026D1*
X2520567Y3985766D2*
X2258667Y3723866D1*
X2118394Y3583593D2*
X1859042Y3324243D1*
X1718769Y3183969D2*
X1482575Y2947774D1*
X1451049Y2916248D2*
X1298268Y2763467D1*
X1144894Y2610094D2*
X786056Y2251256D1*
X750068Y2215268D2*
X426467Y1891667D1*
X2771719Y4205806D2*
X2660827Y4094913D1*
X2520567Y3954654D2*
X2258667Y3692753D1*
X2118394Y3552480D2*
X1859042Y3293130D1*
X1718769Y3152857D2*
X1330224Y2764311D1*
X1144049Y2578136D2*
X786056Y2220143D1*
X750068Y2184155D2*
X426467Y1860555D1*
X2771657Y4174631D2*
X2660827Y4063802D1*
X2520567Y3923541D2*
X2258667Y3661642D1*
X2118394Y3521367D2*
X1859042Y3262017D1*
X1723642Y3126615D2*
X1357383Y2760358D1*
X1148001Y2550976D2*
X786056Y2189030D1*
X750068Y2153042D2*
X426467Y1829442D1*
X2771594Y4143457D2*
X2660827Y4032689D1*
X2520567Y3892428D2*
X2258667Y3630529D1*
X2118394Y3490256D2*
X1859042Y3230904D1*
X1748140Y3120003D2*
X1381236Y2753097D1*
X1155273Y2527135D2*
X786056Y2157917D1*
X750068Y2121929D2*
X426467Y1798329D1*
X2771533Y4112281D2*
X2660827Y4001576D1*
X2520567Y3861315D2*
X2258667Y3599416D1*
X2118394Y3459143D2*
X1859042Y3199791D1*
X1779252Y3120001D2*
X1402478Y2743227D1*
X1165130Y2505878D2*
X786056Y2126806D1*
X750068Y2090816D2*
X730782Y2071530D1*
X634559Y1975308D2*
X426467Y1767217D1*
X2771471Y4081106D2*
X2660827Y3970463D1*
X2520567Y3830202D2*
X2258667Y3568303D1*
X2118394Y3428030D2*
X1859042Y3168678D1*
X1810364Y3120000D2*
X1421495Y2731131D1*
X1177236Y2486873D2*
X786056Y2095693D1*
X629686Y1939323D2*
X426467Y1736104D1*
X2771408Y4049932D2*
X2660827Y3939350D1*
X2520567Y3799089D2*
X2258667Y3537190D1*
X2118394Y3396917D2*
X1858719Y3137243D1*
X1841798Y3120322D2*
X1438449Y2716972D1*
X1191394Y2469917D2*
X794955Y2073479D1*
X632621Y1911143D2*
X426467Y1704991D1*
X2771346Y4018757D2*
X2660827Y3908238D1*
X2520567Y3767978D2*
X2258667Y3506077D1*
X2118394Y3365804D2*
X1711080Y2958491D1*
X1583572Y2830983D2*
X1453427Y2700837D1*
X1207514Y2454925D2*
X818722Y2066133D1*
X639966Y1887377D2*
X426467Y1673878D1*
X2771283Y3987583D2*
X2660827Y3877125D1*
X2520567Y3736865D2*
X2258667Y3474965D1*
X2118394Y3334692D2*
X1742192Y2958490D1*
X1583572Y2799870D2*
X1466404Y2682702D1*
X1225661Y2441959D2*
X839243Y2055541D1*
X650556Y1866854D2*
X426467Y1642765D1*
X2771222Y3956407D2*
X2660827Y3846012D1*
X2520567Y3705752D2*
X2258667Y3443852D1*
X2118394Y3303579D2*
X1773303Y2958488D1*
X1737315Y2922500D2*
X1619573Y2804759D1*
X1583572Y2768759D2*
X1477243Y2662428D1*
X1245934Y2431119D2*
X857017Y2042202D1*
X663894Y1849079D2*
X426467Y1611654D1*
X2771160Y3925232D2*
X2660827Y3814900D1*
X2520567Y3674639D2*
X2258667Y3412740D1*
X2118394Y3272466D2*
X1804415Y2958487D1*
X1768425Y2922499D2*
X1619573Y2773646D1*
X1583572Y2737646D2*
X1485644Y2639718D1*
X1268643Y2422717D2*
X872243Y2026316D1*
X679766Y1833839D2*
X426467Y1580541D1*
X2771097Y3894058D2*
X2660827Y3783787D1*
X2520567Y3643526D2*
X2258667Y3381627D1*
X2118394Y3241354D2*
X1835526Y2958486D1*
X1799537Y2922497D2*
X1619573Y2742534D1*
X1583572Y2706533D2*
X1491101Y2614062D1*
X1294298Y2417259D2*
X884896Y2007857D1*
X698223Y1821184D2*
X426467Y1549428D1*
X2771035Y3862883D2*
X2660827Y3752675D1*
X2520567Y3612413D2*
X2258667Y3350514D1*
X2118394Y3210241D2*
X1866636Y2958484D1*
X1830648Y2922496D2*
X1619573Y2711421D1*
X1583572Y2675420D2*
X1516345Y2608193D1*
X1300177Y2392025D2*
X894728Y1986576D1*
X719516Y1811364D2*
X426467Y1518315D1*
X2770974Y3831707D2*
X2660827Y3721562D1*
X2520567Y3581301D2*
X2258667Y3319402D1*
X2118394Y3179129D2*
X1894106Y2954841D1*
X1861760Y2922495D2*
X1619573Y2680308D1*
X1511455Y2572190D2*
X1487323Y2548058D1*
X1360299Y2421034D2*
X1336167Y2396900D1*
X1300177Y2360912D2*
X901080Y1961815D1*
X744276Y1805010D2*
X426467Y1487202D1*
X2770911Y3800533D2*
X2660827Y3690449D1*
X2520567Y3550188D2*
X2258667Y3288289D1*
X2118394Y3148016D2*
X1619573Y2649196D1*
X1542580Y2572202D2*
X1460598Y2490220D1*
X1418147Y2447769D2*
X1336167Y2365787D1*
X1300177Y2329799D2*
X902509Y1932131D1*
X773958Y1803579D2*
X426467Y1456089D1*
X2770849Y3769358D2*
X2660827Y3659336D1*
X2520567Y3519076D2*
X2258667Y3257176D1*
X2130563Y3129072D2*
X1336167Y2334676D1*
X1300177Y2298686D2*
X894020Y1892529D1*
X813558Y1812067D2*
X426467Y1424976D1*
X2770787Y3738184D2*
X2660827Y3628223D1*
X2520567Y3487963D2*
X2258667Y3226063D1*
X2160232Y3127629D2*
X1759556Y2726953D1*
X1730316Y2697713D2*
X1336167Y2303563D1*
X1300177Y2267573D2*
X426467Y1393864D1*
X2770724Y3707008D2*
X2660827Y3597110D1*
X2520567Y3456850D2*
X2258667Y3194950D1*
X2191344Y3127627D2*
X1822400Y2758684D1*
X1698584Y2634867D2*
X1336167Y2272450D1*
X1300177Y2236461D2*
X426467Y1362752D1*
X2770663Y3675833D2*
X2660827Y3565999D1*
X2520567Y3425738D2*
X2258667Y3163839D1*
X2222467Y3127638D2*
X1859316Y2764487D1*
X1692780Y2597950D2*
X1336167Y2241337D1*
X1300177Y2205349D2*
X426467Y1331639D1*
X2770613Y3644671D2*
X2660827Y3534886D1*
X2520567Y3394625D2*
X1889283Y2763343D1*
X1693923Y2567982D2*
X1336167Y2210224D1*
X1300177Y2174236D2*
X426467Y1300526D1*
X2770551Y3613496D2*
X2660827Y3503773D1*
X2520567Y3363512D2*
X2114148Y2957093D1*
X2103714Y2946660D2*
X1915150Y2758096D1*
X1699180Y2542126D2*
X1336167Y2179112D1*
X1300177Y2143123D2*
X426467Y1269413D1*
X2770488Y3582322D2*
X2660827Y3472660D1*
X2520567Y3332399D2*
X2146651Y2958484D1*
X2102323Y2914155D2*
X1938008Y2749841D1*
X1707421Y2519255D2*
X1336167Y2147999D1*
X1300177Y2112010D2*
X1240122Y2051955D1*
X1205178Y2017010D2*
X426467Y1238301D1*
X2770427Y3551147D2*
X2660827Y3441547D1*
X2520567Y3301286D2*
X2177776Y2958495D1*
X2141774Y2922495D2*
X2138323Y2919043D1*
X2102323Y2883042D2*
X1958429Y2739150D1*
X1718123Y2498844D2*
X1336167Y2116886D1*
X1300177Y2080898D2*
X1293483Y2074203D1*
X1182929Y1963650D2*
X426467Y1207188D1*
X2770365Y3519972D2*
X2660827Y3410434D1*
X2520567Y3270175D2*
X2208886Y2958493D1*
X2172886Y2922493D2*
X2138323Y2887930D1*
X2102323Y2851930D2*
X1976689Y2726297D1*
X1730975Y2480583D2*
X1336167Y2085774D1*
X1180990Y1930597D2*
X426467Y1176075D1*
X2770302Y3488797D2*
X2660827Y3379322D1*
X2520567Y3239062D2*
X2239997Y2958492D1*
X2203996Y2922491D2*
X2138323Y2856819D1*
X1745828Y2464324D2*
X1353244Y2071739D1*
X1185390Y1903885D2*
X426467Y1144962D1*
X2770240Y3457622D2*
X2660827Y3348209D1*
X2520567Y3207949D2*
X2270214Y2957596D1*
X2235121Y2922503D2*
X2007217Y2694598D1*
X1762671Y2450052D2*
X1375991Y2063373D1*
X1193755Y1881138D2*
X504054Y1191436D1*
X491308Y1178690D2*
X426467Y1113850D1*
X2770177Y3426448D2*
X2660827Y3317097D1*
X2520567Y3176836D2*
X2281798Y2938068D1*
X2266505Y2922774D2*
X2019446Y2675717D1*
X1781551Y2437820D2*
X1395678Y2051949D1*
X1205178Y1861448D2*
X566562Y1222831D1*
X459924Y1116193D2*
X426467Y1082738D1*
X2770115Y3395273D2*
X2660827Y3285984D1*
X2520567Y3145723D2*
X2029453Y2654609D1*
X1802657Y2427814D2*
X1412720Y2037877D1*
X1219261Y1844417D2*
X600383Y1225539D1*
X457201Y1082358D2*
X426467Y1051625D1*
X2770054Y3364097D2*
X2660827Y3254871D1*
X2530820Y3124865D2*
X2036886Y2630929D1*
X1826335Y2420379D2*
X1427213Y2021257D1*
X1235866Y1829911D2*
X627504Y1221549D1*
X461203Y1055248D2*
X426467Y1020512D1*
X2769991Y3332923D2*
X2660827Y3223759D1*
X2559608Y3122539D2*
X2041075Y2604005D1*
X1849081Y2412013D2*
X1439083Y2002014D1*
X1255108Y1818039D2*
X650537Y1213467D1*
X469270Y1032202D2*
X426467Y989399D1*
X2769929Y3301748D2*
X2660827Y3192646D1*
X2590719Y3122538D2*
X2040589Y2572408D1*
X1849081Y2380900D2*
X1447995Y1979814D1*
X1277319Y1809138D2*
X670474Y1202293D1*
X480457Y1012276D2*
X426467Y958286D1*
X2769867Y3270573D2*
X2660827Y3161533D1*
X2621831Y3122537D2*
X2031329Y2532035D1*
X1925238Y2425944D2*
X1885070Y2385776D1*
X1849081Y2349787D2*
X1453154Y1953860D1*
X1303273Y1803979D2*
X687726Y1188432D1*
X494316Y995022D2*
X426467Y927173D1*
X2769804Y3239398D2*
X1885070Y2354664D1*
X1849081Y2318675D2*
X1452570Y1922163D1*
X1334969Y1804562D2*
X702430Y1172024D1*
X510710Y980304D2*
X426467Y896060D1*
X2769743Y3208223D2*
X2526264Y2964744D1*
X2401266Y2839748D2*
X1885070Y2323551D1*
X1849081Y2287562D2*
X1437530Y1876010D1*
X1381119Y1819600D2*
X714537Y1153017D1*
X529728Y968209D2*
X426467Y864949D1*
X2769681Y3177049D2*
X2557375Y2964743D1*
X2521374Y2928743D2*
X2437256Y2844623D1*
X2401266Y2808635D2*
X2335420Y2742787D1*
X2266667Y2674034D2*
X1885070Y2292438D1*
X1849081Y2256449D2*
X723722Y1131089D1*
X551654Y959021D2*
X426467Y833836D1*
X2769618Y3145874D2*
X2588487Y2964741D1*
X2552486Y2928740D2*
X2437256Y2813510D1*
X2401266Y2777522D2*
X2384865Y2761119D1*
X2248333Y2624588D2*
X1885070Y2261325D1*
X1849081Y2225337D2*
X729240Y1105496D1*
X577247Y953501D2*
X426467Y802723D1*
X2769556Y3114699D2*
X2619598Y2964740D1*
X2583609Y2928752D2*
X2437256Y2782398D1*
X2244765Y2589908D2*
X1885070Y2230213D1*
X1849081Y2194224D2*
X729290Y1074433D1*
X608320Y953463D2*
X426467Y771610D1*
X2769495Y3083524D2*
X2650710Y2964739D1*
X2614720Y2928751D2*
X2448318Y2762348D1*
X2247102Y2561133D2*
X1885070Y2199100D1*
X1849081Y2163112D2*
X716625Y1030655D1*
X652085Y966114D2*
X426467Y740497D1*
X2769432Y3052349D2*
X2681820Y2964738D1*
X2645832Y2928749D2*
X2473352Y2756268D1*
X2253181Y2536097D2*
X1885070Y2167987D1*
X1849081Y2131999D2*
X923615Y1206531D1*
X875122Y1158039D2*
X426467Y709385D1*
X2769370Y3021175D2*
X2701795Y2953600D1*
X2675974Y2927778D2*
X2495563Y2747367D1*
X2262093Y2513898D2*
X1885070Y2136874D1*
X1849081Y2100886D2*
X1814433Y2066238D1*
X1739005Y1990810D2*
X972252Y1224056D1*
X857596Y1109400D2*
X426467Y678272D1*
X2769307Y2990000D2*
X2515413Y2736105D1*
X2273354Y2494046D2*
X1885070Y2105762D1*
X1729260Y1949951D2*
X1004507Y1225198D1*
X856453Y1077144D2*
X426467Y647159D1*
X2769245Y2958824D2*
X2533163Y2722741D1*
X2286715Y2476295D2*
X1885430Y2075009D1*
X1730230Y1919808D2*
X1030783Y1220362D1*
X861301Y1050879D2*
X452906Y642484D1*
X2769184Y2927650D2*
X2548911Y2707377D1*
X2302079Y2460545D2*
X1910463Y2068930D1*
X1736307Y1894774D2*
X1053218Y1211685D1*
X869976Y1028442D2*
X484017Y642483D1*
X2769121Y2896475D2*
X2562682Y2690037D1*
X2319417Y2446772D2*
X1931979Y2059333D1*
X1745916Y1873269D2*
X1072659Y1200012D1*
X881647Y1009001D2*
X515140Y642495D1*
X2769072Y2865312D2*
X2574366Y2670608D1*
X2338845Y2435087D2*
X1950623Y2046865D1*
X1758383Y1854623D2*
X1089450Y1185692D1*
X895966Y992207D2*
X546252Y642492D1*
X2769009Y2834138D2*
X2583776Y2648904D1*
X2360547Y2425676D2*
X1966682Y2031811D1*
X1773434Y1838563D2*
X1103707Y1168836D1*
X912822Y977949D2*
X577364Y642491D1*
X2768948Y2802963D2*
X2590463Y2624479D1*
X2384971Y2418987D2*
X1980194Y2014210D1*
X1791035Y1825051D2*
X1115316Y1149332D1*
X932323Y966339D2*
X608475Y642490D1*
X2768885Y2771787D2*
X2593657Y2596560D1*
X2401266Y2404169D2*
X1990995Y1993898D1*
X1811345Y1814248D2*
X1123919Y1126820D1*
X954833Y957736D2*
X639585Y642488D1*
X2768823Y2740613D2*
X2591570Y2563360D1*
X2446088Y2417878D2*
X2437256Y2409046D1*
X2401266Y2373056D2*
X1998602Y1970392D1*
X1834862Y1806652D2*
X1128654Y1100444D1*
X981222Y953012D2*
X670697Y642487D1*
X2768761Y2709438D2*
X2578146Y2518823D1*
X2490636Y2431314D2*
X2437256Y2377933D1*
X2401266Y2341945D2*
X2001908Y1942585D1*
X1862667Y1803344D2*
X1127311Y1067988D1*
X1013663Y954340D2*
X701808Y642486D1*
X2768698Y2678264D2*
X2437256Y2346820D1*
X2401266Y2310832D2*
X1997832Y1907396D1*
X1897856Y1807420D2*
X1108803Y1018369D1*
X1063294Y972858D2*
X732920Y642484D1*
X2768636Y2647088D2*
X2437256Y2315707D1*
X2401266Y2279719D2*
X1332126Y1210579D1*
X1272298Y1150749D2*
X764031Y642483D1*
X2768575Y2615913D2*
X2437256Y2284594D1*
X2401266Y2248606D2*
X1377259Y1224597D1*
X1258290Y1105629D2*
X795155Y642495D1*
X2768512Y2584739D2*
X2437256Y2253482D1*
X2401266Y2217493D2*
X1408693Y1224920D1*
X1257954Y1074181D2*
X826266Y642492D1*
X2768450Y2553564D2*
X2437256Y2222370D1*
X2401266Y2186381D2*
X1434509Y1219623D1*
X1263261Y1048375D2*
X857378Y642491D1*
X2768388Y2522390D2*
X2437256Y2191257D1*
X2401266Y2155268D2*
X1456597Y1210598D1*
X1272273Y1026274D2*
X888488Y642490D1*
X2768325Y2491214D2*
X2437256Y2160144D1*
X2401266Y2124155D2*
X1475739Y1198627D1*
X1284243Y1007131D2*
X919600Y642488D1*
X2768264Y2460039D2*
X2437256Y2129031D1*
X2401266Y2093043D2*
X2377718Y2069493D1*
X2290259Y1982034D2*
X1492269Y1184046D1*
X1298835Y990610D2*
X950711Y642487D1*
X2768202Y2428865D2*
X2437256Y2097919D1*
X2283421Y1944085D2*
X1506265Y1166928D1*
X1315950Y976614D2*
X981823Y642486D1*
X2768139Y2397690D2*
X2444689Y2074239D1*
X2285510Y1915060D2*
X1517589Y1147139D1*
X1335739Y965289D2*
X1012934Y642484D1*
X2768077Y2366514D2*
X2469026Y2067463D1*
X2292283Y1890722D2*
X1525829Y1124268D1*
X1358609Y957047D2*
X1044046Y642483D1*
X2768014Y2335340D2*
X2489982Y2057307D1*
X2302440Y1869764D2*
X1530068Y1097394D1*
X1385482Y952807D2*
X1075169Y642495D1*
X2767953Y2304165D2*
X2508167Y2044379D1*
X2315378Y1851591D2*
X1527831Y1064043D1*
X1418831Y955043D2*
X1106281Y642492D1*
X2767891Y2272991D2*
X2523778Y2028878D1*
X2330878Y1835978D2*
X1503046Y1008146D1*
X1474727Y979825D2*
X1137392Y642491D1*
X2767828Y2241815D2*
X2536829Y2010816D1*
X2348938Y1822925D2*
X1741471Y1215458D1*
X1666192Y1140178D2*
X1168503Y642490D1*
X2767766Y2210640D2*
X2547096Y1989970D1*
X2369770Y1812644D2*
X1782377Y1225251D1*
X1656409Y1099285D2*
X1199614Y642488D1*
X2767705Y2179466D2*
X2554045Y1965806D1*
X2393933Y1805696D2*
X1812531Y1224293D1*
X1657367Y1069129D2*
X1230726Y642487D1*
X2767642Y2148291D2*
X2556381Y1937030D1*
X2422720Y1803369D2*
X1837564Y1218213D1*
X1663445Y1044094D2*
X1261837Y642486D1*
X2767580Y2117117D2*
X2550154Y1899690D1*
X2460059Y1809596D2*
X1859080Y1208615D1*
X1673041Y1022577D2*
X1292949Y642484D1*
X2767518Y2085941D2*
X1877736Y1196160D1*
X1685508Y1003932D2*
X1324059Y642483D1*
X2767469Y2054780D2*
X1893795Y1181106D1*
X1700547Y987858D2*
X1355184Y642495D1*
X2767406Y2023604D2*
X1907319Y1163517D1*
X1718135Y974333D2*
X1386295Y642492D1*
X2767344Y1992429D2*
X1918121Y1143206D1*
X1738445Y963530D2*
X1417406Y642491D1*
X2767282Y1961255D2*
X1925727Y1119699D1*
X1761950Y955923D2*
X1448517Y642490D1*
X2767219Y1930080D2*
X1929059Y1091919D1*
X1789743Y952602D2*
X1479629Y642488D1*
X2767157Y1898904D2*
X1924993Y1056741D1*
X1824919Y956665D2*
X1510740Y642487D1*
X2767096Y1867730D2*
X1541852Y642486D1*
X2767033Y1836555D2*
X2148665Y1218186D1*
X2063480Y1133001D2*
X1572963Y642484D1*
X2766971Y1805381D2*
X2187135Y1225543D1*
X2056122Y1094530D2*
X1604073Y642483D1*
X2766909Y1774205D2*
X2216382Y1223678D1*
X2057986Y1065282D2*
X1635198Y642495D1*
X2766846Y1743030D2*
X2240856Y1217039D1*
X2064623Y1040807D2*
X1666308Y642492D1*
X2766785Y1711856D2*
X2261924Y1206995D1*
X2074667Y1019738D2*
X1697420Y642491D1*
X2766722Y1680681D2*
X2280196Y1194154D1*
X2087507Y1001465D2*
X1728531Y642490D1*
X2766660Y1649505D2*
X2295894Y1178739D1*
X2102919Y985765D2*
X1759643Y642488D1*
X2766598Y1618331D2*
X2309045Y1160777D1*
X2120879Y972613D2*
X1790755Y642487D1*
X2766535Y1587156D2*
X2319423Y1140043D1*
X2141613Y962232D2*
X1821866Y642486D1*
X2766474Y1555982D2*
X2326508Y1116016D1*
X2165639Y955147D2*
X1852976Y642484D1*
X2766412Y1524807D2*
X2329056Y1087450D1*
X2194214Y952609D2*
X1884088Y642483D1*
X2766349Y1493631D2*
X2323301Y1050583D1*
X2231080Y958364D2*
X1915213Y642495D1*
X2766287Y1462457D2*
X1946323Y642492D1*
X2766226Y1431282D2*
X2554976Y1220033D1*
X2462185Y1127241D2*
X1977434Y642491D1*
X2766163Y1400108D2*
X2591718Y1225663D1*
X2456554Y1090497D2*
X2008546Y642490D1*
X2766101Y1368932D2*
X2620232Y1223063D1*
X2459152Y1061983D2*
X2039657Y642488D1*
X2766039Y1337757D2*
X2644220Y1215940D1*
X2466274Y1037992D2*
X2070769Y642487D1*
X2765976Y1306583D2*
X2664929Y1205535D1*
X2476690Y1017295D2*
X2101879Y642486D1*
X2765927Y1275420D2*
X2682865Y1192358D1*
X2489865Y999358D2*
X2132991Y642484D1*
X2765865Y1244245D2*
X2698252Y1176634D1*
X2505589Y983970D2*
X2164102Y642483D1*
X2765803Y1213071D2*
X2711067Y1158336D1*
X2523885Y971154D2*
X2195226Y642495D1*
X2765740Y1181895D2*
X2721073Y1137228D1*
X2544991Y961146D2*
X2226337Y642492D1*
X2765678Y1150720D2*
X2727673Y1112717D1*
X2569501Y954545D2*
X2257449Y642491D1*
X2765617Y1119546D2*
X2729476Y1083406D1*
X2598811Y952740D2*
X2288560Y642490D1*
X2765554Y1088371D2*
X2721969Y1044785D1*
X2637429Y960247D2*
X2319672Y642488D1*
X2765492Y1057197D2*
X2350783Y642487D1*
X2765429Y1026021D2*
X2381894Y642486D1*
X2765367Y994846D2*
X2413005Y642484D1*
X2765306Y963672D2*
X2444117Y642483D1*
X2765243Y932497D2*
X2475240Y642495D1*
X2765181Y901322D2*
X2506352Y642492D1*
X2765119Y870147D2*
X2537463Y642491D1*
X2765056Y838972D2*
X2568575Y642490D1*
X2764995Y807798D2*
X2599686Y642488D1*
X2764933Y776622D2*
X2630797Y642487D1*
X2764870Y745448D2*
X2661908Y642486D1*
X2764808Y714273D2*
X2693020Y642484D1*
X2764747Y683098D2*
X2724131Y642483D1*
X2764684Y651924D2*
X2755255Y642495D1*
X2762776Y5200997D2*
X2773660Y5190113D1*
X2731664Y5200997D2*
X2773596Y5159064D1*
X2700551Y5200997D2*
X2773533Y5128016D1*
X2669438Y5200997D2*
X2773482Y5096954D1*
X2638325Y5200997D2*
X2773417Y5065904D1*
X2607213Y5200997D2*
X2773354Y5034856D1*
X2576100Y5200997D2*
X2773291Y5003806D1*
X2544987Y5200997D2*
X2773227Y4972757D1*
X2513874Y5200997D2*
X2773164Y4941707D1*
X2482762Y5200997D2*
X2627500Y5056259D1*
X2708980Y4974778D2*
X2773113Y4910646D1*
X2451650Y5200997D2*
X2591241Y5061404D1*
X2714125Y4938521D2*
X2773049Y4879597D1*
X2420537Y5200997D2*
X2563684Y5057850D1*
X2710581Y4910951D2*
X2772986Y4848547D1*
X2389424Y5200997D2*
X2540799Y5049622D1*
X2702352Y4888070D2*
X2772923Y4817499D1*
X2358311Y5200997D2*
X2521370Y5037938D1*
X2690667Y4868642D2*
X2772858Y4786449D1*
X2327198Y5200997D2*
X2504912Y5023283D1*
X2676010Y4852185D2*
X2772807Y4755388D1*
X2296085Y5200997D2*
X2491325Y5005757D1*
X2658483Y4838600D2*
X2772744Y4724339D1*
X2264972Y5200997D2*
X2480845Y4985125D1*
X2637849Y4828121D2*
X2772680Y4693290D1*
X2233861Y5200997D2*
X2474133Y4960724D1*
X2613448Y4821409D2*
X2772617Y4662240D1*
X2202748Y5200997D2*
X2473000Y4930745D1*
X2583467Y4820278D2*
X2772554Y4631192D1*
X2171635Y5200997D2*
X2485341Y4887291D1*
X2540012Y4832621D2*
X2772490Y4600142D1*
X2140522Y5200997D2*
X2772438Y4569080D1*
X2109409Y5200997D2*
X2299093Y5011314D1*
X2366466Y4943940D2*
X2651361Y4659046D1*
X2657232Y4653175D2*
X2772375Y4538031D1*
X2078297Y5200997D2*
X2270652Y5008642D1*
X2363793Y4915501D2*
X2616643Y4662651D1*
X2660836Y4618458D2*
X2772311Y4506982D1*
X2047184Y5200997D2*
X2249621Y4998560D1*
X2353711Y4894470D2*
X2585530Y4662651D1*
X2660833Y4587346D2*
X2772248Y4475933D1*
X2016071Y5200997D2*
X2233584Y4983484D1*
X2338633Y4878436D2*
X2554417Y4662651D1*
X2660832Y4556236D2*
X2772185Y4444883D1*
X1984958Y5200997D2*
X2222396Y4963559D1*
X2318706Y4867249D2*
X2527718Y4658238D1*
X2660831Y4525125D2*
X2772121Y4413835D1*
X1953846Y5200997D2*
X2217772Y4937071D1*
X2292218Y4862626D2*
X2520570Y4634274D1*
X2660829Y4494013D2*
X2772070Y4382773D1*
X1922734Y5200997D2*
X2520568Y4603163D1*
X2660828Y4462902D2*
X2772007Y4351723D1*
X1891621Y5200997D2*
X2520567Y4572051D1*
X2660827Y4431790D2*
X2771942Y4320675D1*
X1860508Y5200997D2*
X2520566Y4540940D1*
X2660839Y4400667D2*
X2771879Y4289626D1*
X1829395Y5200997D2*
X2520563Y4509828D1*
X2660837Y4369555D2*
X2771816Y4258576D1*
X1798282Y5200997D2*
X2520575Y4478705D1*
X2660836Y4338444D2*
X2771752Y4227528D1*
X1767169Y5200997D2*
X2520573Y4447593D1*
X2660833Y4307332D2*
X2771701Y4196466D1*
X1736056Y5200997D2*
X2520572Y4416482D1*
X2660832Y4276222D2*
X2771638Y4165416D1*
X1704945Y5200997D2*
X2238194Y4667747D1*
X2258659Y4647282D2*
X2520571Y4385370D1*
X2660831Y4245110D2*
X2771573Y4134367D1*
X1673832Y5200997D2*
X2207081Y4667747D1*
X2258657Y4616171D2*
X2520570Y4354260D1*
X2660829Y4213999D2*
X2771510Y4103318D1*
X1642719Y5200997D2*
X2175970Y4667747D1*
X2258656Y4585060D2*
X2520568Y4323148D1*
X2660828Y4182887D2*
X2771448Y4072269D1*
X1611606Y5200997D2*
X2144857Y4667747D1*
X2258667Y4553936D2*
X2520567Y4292037D1*
X2660827Y4151776D2*
X2771383Y4041219D1*
X1580493Y5200997D2*
X2121984Y4659505D1*
X2258665Y4522825D2*
X2520566Y4260925D1*
X2660839Y4120652D2*
X2771332Y4010157D1*
X1549381Y5200997D2*
X2118403Y4631974D1*
X2258664Y4491714D2*
X2520563Y4229814D1*
X2660837Y4089541D2*
X2771269Y3979109D1*
X1518268Y5200997D2*
X2118402Y4600864D1*
X2258663Y4460602D2*
X2520575Y4198690D1*
X2660836Y4058429D2*
X2771205Y3948059D1*
X1487155Y5200997D2*
X2118400Y4569752D1*
X2258661Y4429491D2*
X2520573Y4167579D1*
X2660833Y4027319D2*
X2771142Y3917010D1*
X1456043Y5200997D2*
X2118399Y4538640D1*
X2258660Y4398379D2*
X2520572Y4136467D1*
X2660832Y3996207D2*
X2771079Y3885962D1*
X1424930Y5200997D2*
X2118398Y4507529D1*
X2258659Y4367268D2*
X2520571Y4105357D1*
X2660831Y3965096D2*
X2771014Y3854912D1*
X1393818Y5200997D2*
X2118396Y4476417D1*
X2258657Y4336157D2*
X2520570Y4074245D1*
X2660829Y3933984D2*
X2770963Y3823850D1*
X1362705Y5200997D2*
X2118395Y4445306D1*
X2258656Y4305046D2*
X2520568Y4043134D1*
X2660828Y3902873D2*
X2770900Y3792802D1*
X1331592Y5200997D2*
X2118394Y4414196D1*
X2258667Y4273921D2*
X2520567Y4012022D1*
X2660827Y3871761D2*
X2770836Y3761752D1*
X1300479Y5200997D2*
X1841660Y4659816D1*
X1858743Y4642734D2*
X2118406Y4383071D1*
X2258665Y4242811D2*
X2520566Y3980911D1*
X2660839Y3840638D2*
X2770773Y3730703D1*
X1269366Y5200997D2*
X1810248Y4660115D1*
X1859039Y4611324D2*
X2118403Y4351959D1*
X2258664Y4211699D2*
X2520563Y3949799D1*
X2660837Y3809526D2*
X2770710Y3699654D1*
X1238253Y5200997D2*
X1779136Y4660115D1*
X1859038Y4580213D2*
X2118402Y4320849D1*
X2258663Y4180588D2*
X2520575Y3918676D1*
X2660836Y3778416D2*
X2770646Y3668605D1*
X1207142Y5200997D2*
X1748024Y4660115D1*
X1859037Y4549101D2*
X2118400Y4289738D1*
X2258661Y4149476D2*
X2520573Y3887564D1*
X2660833Y3747304D2*
X2770594Y3637543D1*
X1176029Y5200997D2*
X1723585Y4653440D1*
X1859035Y4517990D2*
X2118399Y4258626D1*
X2258660Y4118365D2*
X2520572Y3856454D1*
X2660832Y3716193D2*
X2770531Y3606493D1*
X1144916Y5200997D2*
X1718773Y4627139D1*
X1859034Y4486878D2*
X2118398Y4227514D1*
X2258659Y4087253D2*
X2520571Y3825343D1*
X2660831Y3685081D2*
X2770467Y3575445D1*
X1113803Y5200997D2*
X1718772Y4596028D1*
X1859033Y4455766D2*
X2118396Y4196403D1*
X2258657Y4056143D2*
X2520570Y3794231D1*
X2660829Y3653970D2*
X2770404Y3544395D1*
X1082690Y5200997D2*
X1718770Y4564916D1*
X1859043Y4424643D2*
X2118395Y4165293D1*
X2258656Y4025031D2*
X2520568Y3763119D1*
X2660828Y3622858D2*
X2770341Y3513346D1*
X1051577Y5200997D2*
X1718769Y4533806D1*
X1859042Y4393531D2*
X2118394Y4134181D1*
X2258667Y3993908D2*
X2520567Y3732008D1*
X2660827Y3591748D2*
X2770277Y3482298D1*
X1020465Y5200997D2*
X1718781Y4502681D1*
X1859041Y4362421D2*
X2118406Y4103056D1*
X2258665Y3962797D2*
X2520566Y3700896D1*
X2660839Y3560623D2*
X2770226Y3451236D1*
X989352Y5200997D2*
X1718780Y4471570D1*
X1859039Y4331310D2*
X2118403Y4071946D1*
X2258664Y3931685D2*
X2520563Y3669786D1*
X2660837Y3529512D2*
X2770163Y3420186D1*
X958240Y5200997D2*
X1718778Y4440459D1*
X1859038Y4300198D2*
X2118402Y4040835D1*
X2258663Y3900573D2*
X2520575Y3638661D1*
X2660836Y3498402D2*
X2770100Y3389138D1*
X927127Y5200997D2*
X1718777Y4409348D1*
X1859037Y4269087D2*
X2118400Y4009723D1*
X2258661Y3869462D2*
X2520573Y3607550D1*
X2660833Y3467290D2*
X2770035Y3358088D1*
X896014Y5200997D2*
X1439445Y4657567D1*
X1461959Y4635051D2*
X1718776Y4378236D1*
X1859035Y4237975D2*
X2118399Y3978612D1*
X2258660Y3838350D2*
X2520572Y3576440D1*
X2660832Y3436178D2*
X2769972Y3327039D1*
X864902Y5200997D2*
X1408332Y4657567D1*
X1461958Y4603941D2*
X1718773Y4347125D1*
X1859034Y4206864D2*
X2118398Y3947500D1*
X2258659Y3807240D2*
X2520571Y3545328D1*
X2660831Y3405067D2*
X2769921Y3295978D1*
X833789Y5200997D2*
X1377219Y4657567D1*
X1461957Y4572829D2*
X1718772Y4316013D1*
X1859033Y4175753D2*
X2118396Y3916388D1*
X2258657Y3776129D2*
X2520570Y3514217D1*
X2660829Y3373955D2*
X2769857Y3264928D1*
X802676Y5200997D2*
X1346106Y4657567D1*
X1461955Y4541718D2*
X1718770Y4284902D1*
X1859043Y4144629D2*
X2118395Y3885278D1*
X2258656Y3745017D2*
X2520568Y3483105D1*
X2660828Y3342845D2*
X2769794Y3233879D1*
X771563Y5200997D2*
X1324465Y4648096D1*
X1461954Y4510606D2*
X1718769Y4253791D1*
X1859042Y4113517D2*
X2118394Y3854167D1*
X2258667Y3713894D2*
X2520567Y3451993D1*
X2660827Y3311734D2*
X2769731Y3202829D1*
X740450Y5200997D2*
X1321692Y4619756D1*
X1461953Y4479495D2*
X1718781Y4222667D1*
X1859041Y4082407D2*
X2118406Y3823043D1*
X2258665Y3682782D2*
X2520566Y3420883D1*
X2660839Y3280609D2*
X2769667Y3171781D1*
X709339Y5200997D2*
X899804Y5010530D1*
X964593Y4945743D2*
X1321690Y4588644D1*
X1461963Y4448371D2*
X1718780Y4191556D1*
X1859039Y4051295D2*
X2118403Y3791932D1*
X2258664Y3651671D2*
X2520563Y3389772D1*
X2660837Y3249499D2*
X2769604Y3140731D1*
X678226Y5200997D2*
X870643Y5008579D1*
X962639Y4916583D2*
X1321701Y4557521D1*
X1461962Y4417260D2*
X1718778Y4160445D1*
X1859038Y4020184D2*
X2118402Y3760820D1*
X2258663Y3620559D2*
X2520575Y3358647D1*
X2660836Y3218387D2*
X2769552Y3109671D1*
X647110Y5201000D2*
X849235Y4998874D1*
X952941Y4895169D2*
X1321697Y4526412D1*
X1461958Y4386151D2*
X1718774Y4129336D1*
X1859034Y3989075D2*
X2118398Y3729711D1*
X2258659Y3589450D2*
X2520571Y3327539D1*
X2660832Y3187278D2*
X2769486Y3078623D1*
X615999Y5200999D2*
X832891Y4984106D1*
X938161Y4878835D2*
X1321697Y4495299D1*
X1461958Y4355038D2*
X1718774Y4098223D1*
X1859034Y3957962D2*
X2118398Y3698598D1*
X2258659Y3558337D2*
X2520571Y3296427D1*
X2660832Y3156165D2*
X2769424Y3047573D1*
X584887Y5200996D2*
X821369Y4964516D1*
X918572Y4867311D2*
X1321697Y4464186D1*
X1461958Y4323927D2*
X1718774Y4067110D1*
X1859034Y3926849D2*
X2118398Y3667486D1*
X2258659Y3527226D2*
X2520571Y3265314D1*
X2656319Y3129564D2*
X2769362Y3016522D1*
X553776Y5200995D2*
X816173Y4938598D1*
X892657Y4862114D2*
X1321697Y4433073D1*
X1461958Y4292814D2*
X1718774Y4035997D1*
X1859034Y3895738D2*
X2118398Y3636373D1*
X2258659Y3496113D2*
X2520571Y3234201D1*
X2632231Y3122541D2*
X2769299Y2985471D1*
X522665Y5200993D2*
X831660Y4891999D1*
X846058Y4877600D2*
X1321697Y4401962D1*
X1461958Y4261701D2*
X1718774Y4004885D1*
X1859034Y3864625D2*
X2118398Y3605261D1*
X2258659Y3465000D2*
X2520571Y3203088D1*
X2601119Y3122539D2*
X2769238Y2954421D1*
X491554Y5200992D2*
X649168Y5043378D1*
X702546Y4990000D2*
X1321697Y4370849D1*
X1461958Y4230588D2*
X1718774Y3973772D1*
X1859034Y3833512D2*
X2118398Y3574148D1*
X2258659Y3433887D2*
X2520571Y3171975D1*
X2570008Y3122538D2*
X2769176Y2923370D1*
X460442Y5200991D2*
X605329Y5056104D1*
X715274Y4946159D2*
X1321697Y4339736D1*
X1461958Y4199475D2*
X1718774Y3942660D1*
X1859034Y3802399D2*
X2118398Y3543035D1*
X2258659Y3402774D2*
X2520744Y3140689D1*
X2538710Y3122723D2*
X2769113Y2892320D1*
X429319Y5201003D2*
X575238Y5055084D1*
X714255Y4916066D2*
X1321697Y4308623D1*
X1461958Y4168362D2*
X1718774Y3911547D1*
X1859034Y3771286D2*
X2118398Y3511923D1*
X2258659Y3371661D2*
X2665587Y2964734D1*
X2702358Y2927962D2*
X2769051Y2861269D1*
X426472Y5172736D2*
X550776Y5048432D1*
X707605Y4891602D2*
X1321697Y4277510D1*
X1461958Y4137249D2*
X1718774Y3880434D1*
X1859034Y3740173D2*
X2118398Y3480810D1*
X2258659Y3340549D2*
X2634463Y2964744D1*
X2670465Y2928744D2*
X2768990Y2830219D1*
X426472Y5141623D2*
X530105Y5037990D1*
X697164Y4870930D2*
X1321697Y4246398D1*
X1461958Y4106136D2*
X1718774Y3849322D1*
X1859034Y3709060D2*
X2118398Y3449697D1*
X2258659Y3309436D2*
X2603352Y2964743D1*
X2639353Y2928743D2*
X2768927Y2799168D1*
X426472Y5110510D2*
X512530Y5024453D1*
X683629Y4853354D2*
X1321697Y4215285D1*
X1461958Y4075025D2*
X1718774Y3818209D1*
X1859034Y3677948D2*
X2118398Y3418584D1*
X2258659Y3278324D2*
X2572240Y2964741D1*
X2608241Y2928740D2*
X2768865Y2768118D1*
X426472Y5079398D2*
X497837Y5008031D1*
X667209Y4838661D2*
X1321697Y4184172D1*
X1461958Y4043912D2*
X1718774Y3787096D1*
X1859034Y3646836D2*
X2118398Y3387471D1*
X2258659Y3247211D2*
X2541129Y2964740D1*
X2577118Y2928752D2*
X2768815Y2737055D1*
X426472Y5048285D2*
X486117Y4988640D1*
X647806Y4826951D2*
X1321697Y4153060D1*
X1461958Y4012799D2*
X1718774Y3755983D1*
X1859034Y3615723D2*
X2118398Y3356358D1*
X2258659Y3216098D2*
X2510018Y2964739D1*
X2546007Y2928751D2*
X2768753Y2706004D1*
X426472Y5017172D2*
X477827Y4965818D1*
X624986Y4818659D2*
X1321697Y4121948D1*
X1461958Y3981686D2*
X1718774Y3724870D1*
X1859034Y3584610D2*
X2118398Y3325247D1*
X2258659Y3184986D2*
X2489448Y2954197D1*
X2515268Y2928377D2*
X2768690Y2674954D1*
X426472Y4986059D2*
X474209Y4938323D1*
X597504Y4815029D2*
X1321697Y4090835D1*
X1461958Y3950573D2*
X1718774Y3693759D1*
X1859034Y3553497D2*
X2118398Y3294134D1*
X2258659Y3153873D2*
X2473898Y2938634D1*
X2499719Y2912812D2*
X2768629Y2643903D1*
X426472Y4954948D2*
X479156Y4902262D1*
X561433Y4819987D2*
X845581Y4535837D1*
X957241Y4424177D2*
X1321697Y4059722D1*
X1461958Y3919461D2*
X1718774Y3662646D1*
X1859034Y3522385D2*
X2118398Y3263021D1*
X2250294Y3131125D2*
X2458336Y2923084D1*
X2484157Y2897262D2*
X2768567Y2612853D1*
X426472Y4923835D2*
X806341Y4543966D1*
X965370Y4384936D2*
X1321697Y4028609D1*
X1461958Y3888348D2*
X1718774Y3631533D1*
X1859034Y3491272D2*
X2118398Y3231908D1*
X2222675Y3127631D2*
X2442786Y2907520D1*
X2468608Y2881699D2*
X2768504Y2581802D1*
X426472Y4892722D2*
X775255Y4543940D1*
X965345Y4353848D2*
X1321697Y3997496D1*
X1461958Y3857235D2*
X1718774Y3600420D1*
X1859034Y3460159D2*
X2118398Y3200795D1*
X2191564Y3127630D2*
X2427224Y2891970D1*
X2453046Y2866148D2*
X2768442Y2550752D1*
X426472Y4861609D2*
X748643Y4539438D1*
X960833Y4327248D2*
X1321697Y3966383D1*
X1461958Y3826123D2*
X1718774Y3569307D1*
X1859034Y3429046D2*
X2118398Y3169682D1*
X2160453Y3127629D2*
X2411675Y2876406D1*
X2437496Y2850585D2*
X2768379Y2519701D1*
X426472Y4830496D2*
X725213Y4531756D1*
X953164Y4303804D2*
X1321697Y3935270D1*
X1461958Y3795010D2*
X1718774Y3538194D1*
X1859034Y3397934D2*
X2401259Y2855710D1*
X2437260Y2819709D2*
X2768318Y2488651D1*
X426472Y4799383D2*
X704319Y4521537D1*
X942948Y4282908D2*
X1321697Y3904157D1*
X1461958Y3763898D2*
X1718774Y3507081D1*
X1859034Y3366822D2*
X2267963Y2957892D1*
X2281467Y2944388D2*
X2401259Y2824597D1*
X2437260Y2788596D2*
X2468466Y2757390D1*
X2586465Y2639391D2*
X2768256Y2457600D1*
X426472Y4768270D2*
X685612Y4509131D1*
X930530Y4264213D2*
X1321697Y3873046D1*
X1461958Y3732785D2*
X1718774Y3475969D1*
X1859034Y3335709D2*
X2236256Y2958487D1*
X2271051Y2923692D2*
X2401259Y2793484D1*
X2593350Y2601392D2*
X2768193Y2426550D1*
X426472Y4737157D2*
X668944Y4494686D1*
X916087Y4247543D2*
X1321697Y3841933D1*
X1461958Y3701672D2*
X1718774Y3444857D1*
X1859034Y3304596D2*
X2205144Y2958486D1*
X2241133Y2922497D2*
X2399941Y2763689D1*
X2592755Y2570875D2*
X2768131Y2395499D1*
X426472Y4706046D2*
X654252Y4478265D1*
X899667Y4232850D2*
X1321697Y3810820D1*
X1461958Y3670559D2*
X1718774Y3413744D1*
X1859034Y3273483D2*
X2174033Y2958484D1*
X2210022Y2922496D2*
X2373727Y2758790D1*
X2587857Y2544660D2*
X2768070Y2364449D1*
X426472Y4674933D2*
X641587Y4459819D1*
X881222Y4220182D2*
X1321697Y3779707D1*
X1461958Y3639446D2*
X1718774Y3382631D1*
X1859034Y3242370D2*
X2142909Y2958495D1*
X2178911Y2922495D2*
X2350583Y2750822D1*
X2579890Y2521514D2*
X2768007Y2333398D1*
X426472Y4643820D2*
X631083Y4439209D1*
X860613Y4209678D2*
X1321697Y3748594D1*
X1461958Y3608333D2*
X1718774Y3351518D1*
X1859034Y3211257D2*
X2113104Y2957189D1*
X2147799Y2922493D2*
X2329925Y2740366D1*
X2569437Y2500856D2*
X2767945Y2302348D1*
X426472Y4612707D2*
X623066Y4416113D1*
X837507Y4201672D2*
X1321697Y3717482D1*
X1461958Y3577222D2*
X1718774Y3320406D1*
X1859034Y3180144D2*
X2102327Y2936853D1*
X2138315Y2900864D2*
X2311455Y2727724D1*
X2556795Y2482383D2*
X2767883Y2271297D1*
X426472Y4581594D2*
X618119Y4389948D1*
X811354Y4196711D2*
X1321697Y3686369D1*
X1461958Y3546109D2*
X1718774Y3289293D1*
X1859034Y3149033D2*
X2102327Y2905740D1*
X2138315Y2869751D2*
X2294999Y2713068D1*
X2542140Y2465925D2*
X2767820Y2240247D1*
X426472Y4550482D2*
X617423Y4359530D1*
X780928Y4196026D2*
X1321697Y3655256D1*
X1461958Y3514996D2*
X1718774Y3258180D1*
X1852248Y3124706D2*
X2102327Y2874627D1*
X2137906Y2839049D2*
X2280517Y2696436D1*
X2525510Y2451444D2*
X2767770Y2209184D1*
X426472Y4519369D2*
X624135Y4321706D1*
X743117Y4202724D2*
X1321697Y3624144D1*
X1461958Y3483883D2*
X1718774Y3227067D1*
X1825848Y3119993D2*
X2098449Y2847392D1*
X2124270Y2821571D2*
X2268063Y2677778D1*
X2506841Y2439000D2*
X2767709Y2178133D1*
X426472Y4488256D2*
X1321697Y3593031D1*
X1461958Y3452770D2*
X1718774Y3195955D1*
X1794736Y3119992D2*
X2082899Y2831829D1*
X2108720Y2806008D2*
X2257808Y2656920D1*
X2485984Y2428744D2*
X2767647Y2147083D1*
X426472Y4457144D2*
X1321697Y3561919D1*
X1461958Y3421657D2*
X1718774Y3164843D1*
X1763625Y3119991D2*
X2067337Y2816278D1*
X2093159Y2790457D2*
X2250091Y2633526D1*
X2462592Y2421025D2*
X2767584Y2116031D1*
X426472Y4426031D2*
X1321697Y3530806D1*
X1461958Y3390545D2*
X1721260Y3131244D1*
X1730028Y3122475D2*
X2051776Y2800727D1*
X2077609Y2774894D2*
X2245516Y2606987D1*
X2437260Y2415243D2*
X2767522Y2084980D1*
X426472Y4394919D2*
X1321697Y3499693D1*
X1461958Y3359432D2*
X1862895Y2958495D1*
X1894732Y2926657D2*
X2036226Y2785164D1*
X2062047Y2759343D2*
X2245404Y2575987D1*
X2437260Y2384130D2*
X2767461Y2053930D1*
X426472Y4363806D2*
X1321697Y3468580D1*
X1461958Y3328320D2*
X1831783Y2958493D1*
X1867785Y2922493D2*
X2020664Y2769614D1*
X2046497Y2743780D2*
X2253322Y2536957D1*
X2366026Y2424252D2*
X2401259Y2389018D1*
X2437260Y2353018D2*
X2767398Y2022879D1*
X426472Y4332693D2*
X1321697Y3437467D1*
X1461958Y3297207D2*
X1800672Y2958492D1*
X1836673Y2922491D2*
X2005114Y2754050D1*
X2030936Y2728230D2*
X2401259Y2357907D1*
X2437260Y2321906D2*
X2767336Y1991829D1*
X426472Y4301580D2*
X1321697Y3406354D1*
X1461958Y3266094D2*
X1769562Y2958491D1*
X1805562Y2922490D2*
X1989552Y2738500D1*
X2015374Y2712678D2*
X2401259Y2326794D1*
X2437260Y2290793D2*
X2767273Y1960778D1*
X426472Y4270467D2*
X1321697Y3375243D1*
X1461958Y3234982D2*
X1738450Y2958490D1*
X1774438Y2922501D2*
X1958827Y2738113D1*
X2014988Y2681951D2*
X2401259Y2295681D1*
X2437260Y2259680D2*
X2767211Y1929728D1*
X426472Y4239354D2*
X1321697Y3344130D1*
X1461958Y3203869D2*
X1707339Y2958488D1*
X1743327Y2922500D2*
X1905604Y2760223D1*
X2037101Y2628726D2*
X2401259Y2264568D1*
X2437260Y2228567D2*
X2767150Y1898677D1*
X426472Y4208243D2*
X1321697Y3313017D1*
X1461958Y3172756D2*
X1684990Y2949724D1*
X1712215Y2922499D2*
X1870067Y2764647D1*
X2041538Y2593176D2*
X2401259Y2233455D1*
X2437260Y2197454D2*
X2767087Y1867627D1*
X426472Y4177130D2*
X840249Y3763353D1*
X961131Y3642470D2*
X1321697Y3281904D1*
X1461958Y3141643D2*
X1669428Y2934173D1*
X1695249Y2908352D2*
X1840807Y2762794D1*
X2039675Y2563928D2*
X2401259Y2202343D1*
X2437260Y2166341D2*
X2767025Y1836576D1*
X426472Y4146017D2*
X802786Y3769703D1*
X967471Y3605018D2*
X1321697Y3250791D1*
X1452350Y3120139D2*
X1653879Y2918610D1*
X1679699Y2892789D2*
X1815451Y2757038D1*
X2033932Y2538558D2*
X2401259Y2171230D1*
X2437260Y2135228D2*
X2766963Y1805526D1*
X426472Y4114904D2*
X772545Y3768832D1*
X966601Y3574776D2*
X1321697Y3219678D1*
X1423924Y3117453D2*
X1638316Y2903059D1*
X1664138Y2877238D2*
X1792966Y2748409D1*
X2025293Y2516083D2*
X2401259Y2140117D1*
X2437260Y2104117D2*
X2478621Y2062756D1*
X2542762Y1998614D2*
X2766900Y1774475D1*
X426472Y4083791D2*
X746492Y3763772D1*
X961542Y3548722D2*
X1321697Y3188566D1*
X1392812Y3117451D2*
X1622755Y2887508D1*
X1648589Y2861675D2*
X1772892Y2737371D1*
X2014256Y2496008D2*
X2401259Y2109005D1*
X2555541Y1954723D2*
X2766839Y1743425D1*
X426472Y4052678D2*
X723497Y3755654D1*
X953425Y3525726D2*
X1321697Y3157453D1*
X1361701Y3117450D2*
X1607206Y2871945D1*
X1633026Y2846123D2*
X1754932Y2724219D1*
X2001105Y2478046D2*
X2401259Y2077892D1*
X2555528Y1923623D2*
X2766777Y1712374D1*
X426472Y4021566D2*
X702951Y3745087D1*
X942860Y3505178D2*
X1591643Y2856395D1*
X1619566Y2828472D2*
X1738972Y2709066D1*
X1985953Y2462085D2*
X2378028Y2070010D1*
X2550021Y1898017D2*
X2766727Y1681311D1*
X426472Y3990453D2*
X684580Y3732345D1*
X930119Y3486806D2*
X1464688Y2952238D1*
X1487749Y2929176D2*
X1583577Y2833349D1*
X1619566Y2797360D2*
X1725001Y2691924D1*
X1968812Y2448113D2*
X2356089Y2060836D1*
X2540861Y1876064D2*
X2766664Y1650261D1*
X426472Y3959341D2*
X668223Y3717589D1*
X915353Y3470459D2*
X1433576Y2952236D1*
X1469566Y2916248D2*
X1583577Y2802236D1*
X1619566Y2766247D2*
X1713081Y2672732D1*
X1949622Y2436192D2*
X2337060Y2048753D1*
X2528766Y1857046D2*
X2766602Y1619210D1*
X426472Y3928228D2*
X653843Y3700858D1*
X898623Y3456076D2*
X1402465Y2952235D1*
X1438454Y2916247D2*
X1583577Y2771123D1*
X1619566Y2735134D2*
X1703423Y2651277D1*
X1928155Y2426545D2*
X2320652Y2034047D1*
X2514063Y1840638D2*
X2766541Y1588160D1*
X426472Y3897115D2*
X641499Y3682088D1*
X879854Y3443732D2*
X1371353Y2952234D1*
X1407343Y2916245D2*
X1583577Y2740010D1*
X1619566Y2704022D2*
X1696425Y2627161D1*
X1904055Y2419533D2*
X2306781Y2016806D1*
X2496823Y1826765D2*
X2766478Y1557109D1*
X426472Y3866003D2*
X631369Y3661105D1*
X858873Y3433601D2*
X1340230Y2952244D1*
X1376231Y2916244D2*
X1583577Y2708898D1*
X1619566Y2672909D2*
X1692808Y2599667D1*
X1885075Y2407400D2*
X2295583Y1996892D1*
X2476898Y1815576D2*
X2766416Y1526059D1*
X426472Y3834890D2*
X623787Y3637575D1*
X835344Y3426018D2*
X1309118Y2952243D1*
X1345119Y2916241D2*
X1583577Y2677785D1*
X1619130Y2642231D2*
X1694201Y2567161D1*
X1844045Y2417318D2*
X1849085Y2412276D1*
X1885075Y2376287D2*
X2287491Y1973871D1*
X2453878Y1807483D2*
X2766354Y1495008D1*
X426472Y3803777D2*
X619399Y3610849D1*
X808621Y3421629D2*
X1280133Y2950117D1*
X1314008Y2916240D2*
X1579625Y2650625D1*
X1605458Y2624791D2*
X1705710Y2524539D1*
X1801411Y2428839D2*
X1849085Y2381163D1*
X1885075Y2345175D2*
X2283488Y1946761D1*
X2426782Y1803467D2*
X2766291Y1463958D1*
X426472Y3772664D2*
X619573Y3579563D1*
X777335Y3421802D2*
X1264073Y2935063D1*
X1289895Y2909241D2*
X1564075Y2635062D1*
X1589896Y2609240D2*
X1849085Y2350051D1*
X1885075Y2314062D2*
X2286148Y1912988D1*
X2392999Y1806138D2*
X2766230Y1432907D1*
X426472Y3741551D2*
X628125Y3539899D1*
X737660Y3430364D2*
X1248512Y2919512D1*
X1274333Y2893690D2*
X1548513Y2619510D1*
X1574335Y2593689D2*
X1849085Y2318938D1*
X1885075Y2282949D2*
X2316613Y1851411D1*
X2331421Y1836602D2*
X2766168Y1401857D1*
X426472Y3710440D2*
X1232962Y2903949D1*
X1258783Y2878127D2*
X1386480Y2750430D1*
X1478415Y2658496D2*
X1528724Y2608186D1*
X1558785Y2578126D2*
X1849085Y2287825D1*
X1885075Y2251836D2*
X2766105Y1370806D1*
X426472Y3679327D2*
X1217400Y2888398D1*
X1243222Y2862576D2*
X1342976Y2762822D1*
X1490795Y2615004D2*
X1497614Y2608185D1*
X1533602Y2572196D2*
X1849085Y2256713D1*
X1885075Y2220724D2*
X2766043Y1339756D1*
X426472Y3648214D2*
X1191199Y2883487D1*
X1226329Y2848356D2*
X1310150Y2764535D1*
X1502491Y2572194D2*
X1849085Y2225600D1*
X1885075Y2189612D2*
X2765980Y1308705D1*
X426472Y3617101D2*
X1160088Y2883486D1*
X1196076Y2847496D2*
X1282457Y2761115D1*
X1489092Y2554482D2*
X1849085Y2194487D1*
X1885075Y2158499D2*
X2765919Y1277654D1*
X426472Y3585988D2*
X1128976Y2883484D1*
X1164965Y2847495D2*
X1258207Y2754253D1*
X1482231Y2530230D2*
X1849085Y2163374D1*
X1885075Y2127386D2*
X2765857Y1246604D1*
X426472Y3554875D2*
X1097853Y2883495D1*
X1133853Y2847493D2*
X1236629Y2744718D1*
X1472697Y2508651D2*
X1849085Y2132261D1*
X1885075Y2096273D2*
X1914291Y2067056D1*
X1992566Y1988782D2*
X2765794Y1215552D1*
X426472Y3523762D2*
X1066741Y2883493D1*
X1102743Y2847492D2*
X1217325Y2732909D1*
X1460890Y2489345D2*
X1849085Y2101150D1*
X2001602Y1948633D2*
X2765732Y1184503D1*
X426472Y3492650D2*
X1036711Y2882411D1*
X1071631Y2847491D2*
X1200098Y2719024D1*
X1447005Y2472117D2*
X1844262Y2074860D1*
X2000371Y1918751D2*
X2765682Y1153440D1*
X426472Y3461538D2*
X1020030Y2867979D1*
X1045852Y2842157D2*
X1184835Y2703175D1*
X1431146Y2456865D2*
X1819391Y2068618D1*
X1994131Y1893878D2*
X2765621Y1122388D1*
X426472Y3430425D2*
X1004469Y2852428D1*
X1030290Y2826606D2*
X1171585Y2685312D1*
X1413283Y2443613D2*
X1798000Y2058896D1*
X1984412Y1872484D2*
X2639696Y1217201D1*
X2721152Y1135744D2*
X2765558Y1091339D1*
X426472Y3399312D2*
X988920Y2836865D1*
X1014740Y2811043D2*
X1160448Y2665336D1*
X1393310Y2432475D2*
X1779467Y2046316D1*
X1971833Y1853951D2*
X2600332Y1225453D1*
X2729406Y1096378D2*
X2765496Y1060287D1*
X426472Y3368199D2*
X973357Y2821314D1*
X999178Y2795492D2*
X1151685Y2642987D1*
X1370961Y2423710D2*
X1763496Y2031176D1*
X1956681Y1837990D2*
X2570736Y1223934D1*
X2727890Y1066782D2*
X2765434Y1029238D1*
X426472Y3337087D2*
X957795Y2805762D1*
X983630Y2779929D2*
X1145781Y2617778D1*
X1345766Y2417793D2*
X1750084Y2013475D1*
X1938982Y1824577D2*
X2546051Y1217508D1*
X2721463Y1042096D2*
X2765371Y998186D1*
X426472Y3305974D2*
X942247Y2790199D1*
X968067Y2764378D2*
X1143681Y2588765D1*
X1336171Y2396276D2*
X1739407Y1993039D1*
X1918560Y1813886D2*
X2524797Y1207650D1*
X2711594Y1020852D2*
X2765310Y967136D1*
X426472Y3274861D2*
X926684Y2774650D1*
X952505Y2748828D2*
X1147696Y2553638D1*
X1281617Y2419717D2*
X1300169Y2401164D1*
X1336171Y2365163D2*
X1731937Y1969396D1*
X1894907Y1806427D2*
X2506377Y1194957D1*
X2698903Y1002430D2*
X2765248Y936085D1*
X426472Y3243748D2*
X911135Y2759085D1*
X936957Y2733264D2*
X1167869Y2502352D1*
X1230320Y2439900D2*
X1300169Y2370051D1*
X1336171Y2334050D2*
X1728841Y1941379D1*
X1866890Y1803331D2*
X2490541Y1179680D1*
X2683639Y986581D2*
X2765185Y905035D1*
X426472Y3212636D2*
X895573Y2743535D1*
X921394Y2717714D2*
X1300169Y2338938D1*
X1336171Y2302937D2*
X1733353Y1905755D1*
X1831266Y1807841D2*
X2477241Y1161867D1*
X2665816Y973293D2*
X2765123Y873984D1*
X426472Y3181524D2*
X880024Y2727971D1*
X905845Y2702151D2*
X1300169Y2307825D1*
X1336171Y2271824D2*
X2466688Y1141307D1*
X2645257Y962738D2*
X2765062Y842934D1*
X426472Y3150411D2*
X820486Y2756396D1*
X934259Y2642623D2*
X1300169Y2276713D1*
X1336171Y2240713D2*
X2459392Y1117491D1*
X2621442Y955441D2*
X2764999Y811883D1*
X426472Y3119298D2*
X781668Y2764102D1*
X941966Y2603804D2*
X1300169Y2245601D1*
X1336171Y2209600D2*
X2456546Y1089224D1*
X2593177Y952593D2*
X2764937Y780833D1*
X426472Y3088185D2*
X750768Y2763888D1*
X941755Y2572903D2*
X1300169Y2214488D1*
X1336171Y2178487D2*
X2461592Y1053064D1*
X2557020Y957638D2*
X2764875Y749782D1*
X426472Y3057072D2*
X724293Y2759252D1*
X937118Y2546427D2*
X1300169Y2183375D1*
X1336171Y2147374D2*
X2764812Y718732D1*
X426472Y3025959D2*
X700950Y2751482D1*
X929349Y2523083D2*
X1300169Y2152262D1*
X1336171Y2116261D2*
X2233173Y1219259D1*
X2322647Y1129785D2*
X2764751Y687681D1*
X426472Y2994846D2*
X680130Y2741189D1*
X919058Y2502261D2*
X1300169Y2121150D1*
X1336171Y2085148D2*
X1348769Y2072550D1*
X1449951Y1971367D2*
X2195698Y1225621D1*
X2329022Y1092297D2*
X2764688Y656631D1*
X426472Y2963735D2*
X661510Y2728696D1*
X906566Y2483640D2*
X1300169Y2090037D1*
X1453780Y1936427D2*
X2166861Y1223345D1*
X2326748Y1063458D2*
X2747722Y642484D1*
X426472Y2932622D2*
X644906Y2714189D1*
X892049Y2467046D2*
X1286148Y2072945D1*
X1450349Y1908745D2*
X2142648Y1216445D1*
X2319837Y1039256D2*
X2716610Y642483D1*
X426472Y2901509D2*
X630287Y2697693D1*
X875567Y2452415D2*
X1262719Y2065262D1*
X1442655Y1885325D2*
X2121780Y1206202D1*
X2309596Y1018386D2*
X2685487Y642495D1*
X426472Y2870396D2*
X617684Y2679184D1*
X857046Y2439822D2*
X1242471Y2054398D1*
X1431791Y1865077D2*
X2103694Y1193175D1*
X2296570Y1000299D2*
X2654375Y642492D1*
X426472Y2839283D2*
X607268Y2658487D1*
X836350Y2429404D2*
X1224933Y2040823D1*
X1418218Y1847537D2*
X2088169Y1177587D1*
X2280983Y984773D2*
X2623264Y642491D1*
X426472Y2808171D2*
X599350Y2635293D1*
X813157Y2421486D2*
X1209942Y2024699D1*
X1402097Y1832546D2*
X2075205Y1159437D1*
X2262835Y971807D2*
X2592152Y642490D1*
X426472Y2777058D2*
X594516Y2609014D1*
X786881Y2416650D2*
X1197538Y2005992D1*
X1383391Y1820139D2*
X2065025Y1138505D1*
X2241904Y961626D2*
X2561042Y642488D1*
X426472Y2745945D2*
X594005Y2578412D1*
X786060Y2386357D2*
X1188004Y1984413D1*
X1361812Y1810605D2*
X2058202Y1114215D1*
X2217617Y954801D2*
X2529930Y642487D1*
X426472Y2714833D2*
X601091Y2540214D1*
X718071Y2423234D2*
X750059Y2391245D1*
X786060Y2355244D2*
X1182026Y1959280D1*
X1336680Y1804625D2*
X2056064Y1085241D1*
X2188643Y952661D2*
X2498819Y642486D1*
X426472Y2683720D2*
X750059Y2360133D1*
X786060Y2324131D2*
X1181206Y1928987D1*
X1306377Y1803815D2*
X2062739Y1047454D1*
X2150844Y959348D2*
X2467707Y642484D1*
X426472Y2652608D2*
X750059Y2329020D1*
X786060Y2293018D2*
X1191411Y1887669D1*
X1265073Y1814007D2*
X2436596Y642483D1*
X426472Y2621495D2*
X750059Y2297907D1*
X786060Y2261906D2*
X1826874Y1221093D1*
X1924488Y1123478D2*
X2405472Y642495D1*
X426472Y2590382D2*
X750059Y2266794D1*
X786060Y2230793D2*
X1791176Y1225677D1*
X1929075Y1087778D2*
X2374361Y642492D1*
X426472Y2559269D2*
X750059Y2235681D1*
X786060Y2199681D2*
X1763135Y1222606D1*
X1925992Y1059748D2*
X2343249Y642491D1*
X426472Y2528156D2*
X750059Y2204570D1*
X786060Y2168568D2*
X1739469Y1215160D1*
X1918560Y1036068D2*
X2312139Y642490D1*
X426472Y2497043D2*
X750059Y2173457D1*
X786060Y2137455D2*
X1719022Y1204493D1*
X1907883Y1015633D2*
X2281028Y642488D1*
X426472Y2465932D2*
X750059Y2142344D1*
X786060Y2106343D2*
X835140Y2057262D1*
X883621Y2008782D2*
X1701310Y1191093D1*
X1894484Y997920D2*
X2249916Y642487D1*
X426472Y2434819D2*
X750059Y2111231D1*
X901147Y1960144D2*
X1686146Y1175144D1*
X1878537Y982753D2*
X2218804Y642486D1*
X426472Y2403706D2*
X750059Y2080118D1*
X902290Y1927887D2*
X1673555Y1156623D1*
X1860016Y970161D2*
X2187693Y642484D1*
X426472Y2372593D2*
X727972Y2071093D1*
X897455Y1901610D2*
X1663823Y1135243D1*
X1838638Y960428D2*
X2156581Y642483D1*
X426472Y2341480D2*
X705537Y2062416D1*
X888780Y1879173D2*
X1657558Y1110395D1*
X1813790Y954161D2*
X2125458Y642495D1*
X426472Y2310367D2*
X686097Y2050743D1*
X877094Y1859744D2*
X1656303Y1080537D1*
X1783934Y952906D2*
X2094346Y642492D1*
X426472Y2279255D2*
X669304Y2036423D1*
X862776Y1842950D2*
X1665227Y1040500D1*
X1743887Y961840D2*
X2063235Y642491D1*
X426472Y2248142D2*
X655047Y2019567D1*
X845921Y1828693D2*
X1482301Y1192314D1*
X1496923Y1177692D2*
X2032125Y642490D1*
X426472Y2217029D2*
X643427Y2000076D1*
X826432Y1817070D2*
X1420650Y1222852D1*
X1527475Y1116028D2*
X2001013Y642488D1*
X426472Y2185917D2*
X634824Y1977564D1*
X803923Y1808467D2*
X1386853Y1225535D1*
X1530147Y1082241D2*
X1969902Y642487D1*
X426472Y2154804D2*
X630101Y1951175D1*
X777534Y1803743D2*
X1359757Y1221520D1*
X1526133Y1055144D2*
X1938790Y642486D1*
X426472Y2123692D2*
X631432Y1918732D1*
X745080Y1805083D2*
X1336738Y1213427D1*
X1518041Y1032123D2*
X1907678Y642484D1*
X426472Y2092579D2*
X649951Y1869100D1*
X695461Y1823589D2*
X1316812Y1202239D1*
X1506854Y1012197D2*
X1876568Y642483D1*
X426472Y2061466D2*
X1299572Y1188365D1*
X1492983Y994955D2*
X1845444Y642495D1*
X426472Y2030353D2*
X1284869Y1171957D1*
X1476563Y980262D2*
X1814332Y642492D1*
X426472Y1999240D2*
X1272774Y1152938D1*
X1457546Y968167D2*
X1783222Y642491D1*
X426472Y1968127D2*
X1263601Y1130999D1*
X1435608Y958992D2*
X1752110Y642490D1*
X426472Y1937016D2*
X1258094Y1105392D1*
X1410003Y953486D2*
X1720999Y642488D1*
X426472Y1905903D2*
X1258083Y1074291D1*
X1378903Y953471D2*
X1689887Y642487D1*
X426472Y1874790D2*
X1270848Y1030413D1*
X1335026Y966235D2*
X1658776Y642486D1*
X426472Y1843677D2*
X1067337Y1202811D1*
X1106210Y1163940D2*
X1627664Y642484D1*
X426472Y1812564D2*
X1015407Y1223630D1*
X1127017Y1112020D2*
X1596554Y642483D1*
X426472Y1781451D2*
X982568Y1225356D1*
X1128745Y1079178D2*
X1565429Y642495D1*
X426472Y1750339D2*
X955969Y1220843D1*
X1124234Y1052577D2*
X1534319Y642492D1*
X426472Y1719226D2*
X933297Y1212402D1*
X1115794Y1029906D2*
X1503207Y642491D1*
X426472Y1688114D2*
X913671Y1200915D1*
X1104308Y1010277D2*
X1472096Y642490D1*
X426472Y1657001D2*
X896705Y1186769D1*
X1090164Y993310D2*
X1440984Y642488D1*
X426472Y1625888D2*
X882261Y1170100D1*
X1073496Y978865D2*
X1409873Y642487D1*
X426472Y1594776D2*
X870453Y1150795D1*
X1054192Y967055D2*
X1378761Y642486D1*
X426472Y1563663D2*
X861627Y1128507D1*
X1031906Y958228D2*
X1347651Y642484D1*
X426472Y1532550D2*
X856581Y1102441D1*
X1005841Y953181D2*
X1316539Y642483D1*
X426472Y1501437D2*
X857352Y1070558D1*
X973959Y953950D2*
X1285415Y642495D1*
X426472Y1470324D2*
X873163Y1023634D1*
X927037Y969760D2*
X1254304Y642492D1*
X426472Y1439213D2*
X654972Y1210711D1*
X715188Y1150497D2*
X1223193Y642491D1*
X426472Y1408100D2*
X609966Y1224606D1*
X729083Y1105488D2*
X1192081Y642490D1*
X426472Y1376987D2*
X578555Y1224903D1*
X729382Y1074077D2*
X1160970Y642488D1*
X426472Y1345874D2*
X552752Y1219594D1*
X724062Y1048285D2*
X1129858Y642487D1*
X426472Y1314761D2*
X530677Y1210556D1*
X715038Y1026196D2*
X1098748Y642486D1*
X426472Y1283648D2*
X511547Y1198573D1*
X703055Y1007064D2*
X1067636Y642484D1*
X426472Y1252535D2*
X495029Y1183979D1*
X688463Y990545D2*
X1036525Y642483D1*
X426472Y1221423D2*
X481046Y1166849D1*
X671336Y976560D2*
X1005402Y642495D1*
X426472Y1190311D2*
X469735Y1147049D1*
X651535Y965248D2*
X974290Y642492D1*
X426472Y1159198D2*
X461493Y1124176D1*
X628652Y957018D2*
X943178Y642491D1*
X426472Y1128085D2*
X457280Y1097277D1*
X601755Y952803D2*
X912067Y642490D1*
X426472Y1096972D2*
X459555Y1063890D1*
X568369Y955076D2*
X880955Y642488D1*
X426472Y1065860D2*
X484675Y1007656D1*
X512125Y980207D2*
X849844Y642487D1*
X426472Y1034747D2*
X818734Y642486D1*
X426472Y1003634D2*
X787622Y642484D1*
X426472Y972521D2*
X756510Y642483D1*
X426472Y941409D2*
X725387Y642495D1*
X426472Y910297D2*
X694276Y642492D1*
X426472Y879184D2*
X663164Y642491D1*
X426472Y848071D2*
X632052Y642490D1*
X426472Y816958D2*
X600941Y642488D1*
X426472Y785845D2*
X569831Y642487D1*
X426472Y754732D2*
X538719Y642486D1*
X426472Y723619D2*
X507608Y642484D1*
X426472Y692508D2*
X476496Y642483D1*
X426472Y661395D2*
X445373Y642495D1*
X2366063Y4932655D2*
X2365652Y4928175D1*
X2364970Y4923727D1*
X2364018Y4919329D1*
X2362801Y4914999D1*
X2361322Y4910749D1*
X2359588Y4906597D1*
X2357604Y4902559D1*
X2355377Y4898650D1*
X2352917Y4894882D1*
X2350232Y4891272D1*
X2347333Y4887831D1*
X2344230Y4884573D1*
X2340933Y4881510D1*
X2337457Y4878655D1*
X2333814Y4876014D1*
X2330016Y4873602D1*
X2326079Y4871424D1*
X2322016Y4869491D1*
X2317844Y4867807D1*
X2313576Y4866382D1*
X2309230Y4865218D1*
X2304820Y4864322D1*
X2300365Y4863694D1*
X2295881Y4863340D1*
X2291382Y4863259D1*
X2286886Y4863451D1*
X2282411Y4863917D1*
X2277972Y4864655D1*
X2273588Y4865661D1*
X2269272Y4866933D1*
X2265041Y4868465D1*
X2260911Y4870251D1*
X2256898Y4872285D1*
X2253016Y4874559D1*
X2249280Y4877066D1*
X2245703Y4879795D1*
X2242299Y4882738D1*
X2239080Y4885882D1*
X2236059Y4889215D1*
X2233245Y4892727D1*
X2230651Y4896403D1*
X2228286Y4900230D1*
X2226157Y4904194D1*
X2224274Y4908281D1*
X2222643Y4912474D1*
X2221270Y4916759D1*
X2220161Y4921119D1*
X2219319Y4925539D1*
X2218748Y4930001D1*
X2218449Y4934491D1*
X2218424Y4938991D1*
X2218673Y4943483D1*
X2219194Y4947951D1*
X2219987Y4952381D1*
X2221049Y4956753D1*
X2222373Y4961052D1*
X2223957Y4965264D1*
X2225794Y4969371D1*
X2227878Y4973358D1*
X2230201Y4977213D1*
X2232755Y4980917D1*
X2235528Y4984459D1*
X2238512Y4987827D1*
X2241696Y4991007D1*
X2245067Y4993986D1*
X2248613Y4996755D1*
X2252322Y4999303D1*
X2256177Y5001621D1*
X2260168Y5003699D1*
X2264277Y5005531D1*
X2268491Y5007110D1*
X2272791Y5008430D1*
X2277165Y5009486D1*
X2281596Y5010272D1*
X2286066Y5010789D1*
X2290558Y5011031D1*
X2295058Y5011000D1*
X2299546Y5010696D1*
X2304008Y5010118D1*
X2308427Y5009270D1*
X2312786Y5008155D1*
X2317070Y5006777D1*
X2321260Y5005140D1*
X2325344Y5003252D1*
X2329306Y5001119D1*
X2333130Y4998748D1*
X2336802Y4996150D1*
X2340310Y4993332D1*
X2343640Y4990306D1*
X2346780Y4987084D1*
X2349718Y4983676D1*
X2352442Y4980094D1*
X2354944Y4976356D1*
X2357214Y4972471D1*
X2359243Y4968455D1*
X2361024Y4964323D1*
X2362550Y4960091D1*
X2363815Y4955773D1*
X2364816Y4951386D1*
X2365549Y4946946D1*
X2366008Y4942471D1*
X2366199Y4937152D1*
X2366063Y4932655D1*
X964463Y4932142D2*
X964052Y4927661D1*
X963370Y4923214D1*
X962419Y4918816D1*
X961201Y4914486D1*
X959722Y4910236D1*
X957988Y4906084D1*
X956004Y4902046D1*
X953777Y4898136D1*
X951318Y4894369D1*
X948633Y4890759D1*
X945734Y4887318D1*
X942630Y4884060D1*
X939333Y4880997D1*
X935857Y4878142D1*
X932214Y4875501D1*
X928416Y4873089D1*
X924479Y4870911D1*
X920416Y4868978D1*
X916244Y4867294D1*
X911976Y4865869D1*
X907630Y4864705D1*
X903220Y4863808D1*
X898765Y4863181D1*
X894281Y4862827D1*
X889782Y4862745D1*
X885286Y4862938D1*
X880811Y4863404D1*
X876373Y4864142D1*
X871988Y4865148D1*
X867672Y4866420D1*
X863441Y4867951D1*
X859311Y4869738D1*
X855298Y4871772D1*
X851416Y4874046D1*
X847680Y4876552D1*
X844104Y4879282D1*
X840699Y4882224D1*
X837480Y4885369D1*
X834459Y4888702D1*
X831646Y4892214D1*
X829051Y4895890D1*
X826686Y4899717D1*
X824558Y4903681D1*
X822675Y4907768D1*
X821043Y4911961D1*
X819671Y4916245D1*
X818562Y4920606D1*
X817719Y4925026D1*
X817148Y4929488D1*
X816849Y4933978D1*
X816824Y4938478D1*
X817073Y4942970D1*
X817594Y4947438D1*
X818387Y4951867D1*
X819449Y4956240D1*
X820773Y4960539D1*
X822357Y4964751D1*
X824194Y4968858D1*
X826278Y4972845D1*
X828601Y4976699D1*
X831155Y4980404D1*
X833928Y4983946D1*
X836912Y4987314D1*
X840096Y4990493D1*
X843467Y4993472D1*
X847013Y4996241D1*
X850722Y4998790D1*
X854577Y5001108D1*
X858568Y5003186D1*
X862677Y5005018D1*
X866891Y5006597D1*
X871192Y5007917D1*
X875566Y5008972D1*
X879996Y5009759D1*
X884466Y5010276D1*
X888958Y5010518D1*
X893458Y5010487D1*
X897946Y5010182D1*
X902408Y5009605D1*
X906827Y5008757D1*
X911186Y5007642D1*
X915470Y5006264D1*
X919660Y5004627D1*
X923744Y5002739D1*
X927706Y5000606D1*
X931530Y4998235D1*
X935202Y4995636D1*
X938710Y4992819D1*
X942041Y4989793D1*
X945180Y4986571D1*
X948118Y4983163D1*
X950843Y4979581D1*
X953344Y4975843D1*
X955614Y4971958D1*
X957643Y4967942D1*
X959424Y4963810D1*
X960950Y4959577D1*
X962215Y4955260D1*
X963217Y4950873D1*
X963949Y4946433D1*
X964408Y4941958D1*
X964600Y4936639D1*
X964463Y4932142D1*
X715060Y4931316D2*
X714387Y4922344D1*
X713045Y4913446D1*
X711039Y4904675D1*
X708383Y4896077D1*
X705092Y4887703D1*
X701184Y4879598D1*
X696678Y4871810D1*
X691604Y4864379D1*
X685988Y4857349D1*
X679861Y4850760D1*
X673259Y4844647D1*
X666217Y4839046D1*
X658776Y4833987D1*
X650976Y4829499D1*
X642864Y4825606D1*
X634483Y4822333D1*
X625881Y4819696D1*
X617105Y4817709D1*
X608205Y4816385D1*
X599231Y4815731D1*
X590232Y4815749D1*
X581261Y4816442D1*
X572367Y4817803D1*
X563600Y4819827D1*
X555008Y4822501D1*
X546640Y4825810D1*
X538545Y4829736D1*
X530765Y4834257D1*
X523345Y4839348D1*
X516328Y4844979D1*
X509751Y4851119D1*
X503652Y4857735D1*
X498066Y4864789D1*
X493022Y4872240D1*
X488551Y4880049D1*
X484676Y4888169D1*
X481420Y4896558D1*
X478801Y4905167D1*
X476833Y4913946D1*
X475528Y4922849D1*
X474892Y4931824D1*
X474930Y4940823D1*
X475642Y4949791D1*
X477022Y4958684D1*
X479064Y4967446D1*
X481756Y4976033D1*
X485084Y4984392D1*
X489026Y4992480D1*
X493564Y5000251D1*
X498671Y5007659D1*
X504316Y5014665D1*
X510471Y5021228D1*
X517100Y5027314D1*
X524165Y5032886D1*
X531627Y5037912D1*
X539445Y5042367D1*
X547573Y5046224D1*
X555969Y5049463D1*
X564583Y5052064D1*
X573367Y5054013D1*
X582273Y5055299D1*
X591249Y5055916D1*
X600247Y5055860D1*
X609215Y5055129D1*
X618104Y5053730D1*
X626862Y5051669D1*
X635442Y5048958D1*
X643795Y5045614D1*
X651875Y5041654D1*
X659635Y5037100D1*
X667033Y5031978D1*
X674028Y5026318D1*
X680579Y5020148D1*
X686648Y5013507D1*
X692206Y5006430D1*
X697218Y4998957D1*
X701656Y4991130D1*
X705496Y4982992D1*
X708717Y4974591D1*
X711299Y4965971D1*
X713230Y4957184D1*
X714497Y4948276D1*
X715094Y4939297D1*
X715060Y4931316D1*
X2713413Y4936115D2*
X2712740Y4927143D1*
X2711398Y4918245D1*
X2709392Y4909474D1*
X2706736Y4900877D1*
X2703445Y4892503D1*
X2699537Y4884398D1*
X2695031Y4876609D1*
X2689957Y4869178D1*
X2684341Y4862148D1*
X2678214Y4855559D1*
X2671612Y4849446D1*
X2664570Y4843845D1*
X2657129Y4838786D1*
X2649329Y4834298D1*
X2641217Y4830406D1*
X2632836Y4827133D1*
X2624234Y4824495D1*
X2615458Y4822508D1*
X2606558Y4821184D1*
X2597584Y4820530D1*
X2588585Y4820549D1*
X2579614Y4821241D1*
X2570720Y4822602D1*
X2561953Y4824626D1*
X2553361Y4827301D1*
X2544993Y4830609D1*
X2536898Y4834535D1*
X2529118Y4839056D1*
X2521698Y4844147D1*
X2514681Y4849778D1*
X2508104Y4855919D1*
X2502005Y4862534D1*
X2496419Y4869588D1*
X2491375Y4877039D1*
X2486904Y4884848D1*
X2483029Y4892969D1*
X2479773Y4901357D1*
X2477154Y4909966D1*
X2475186Y4918745D1*
X2473881Y4927648D1*
X2473245Y4936623D1*
X2473283Y4945622D1*
X2473995Y4954591D1*
X2475375Y4963483D1*
X2477417Y4972245D1*
X2480109Y4980832D1*
X2483437Y4989192D1*
X2487379Y4997280D1*
X2491917Y5005050D1*
X2497024Y5012458D1*
X2502669Y5019465D1*
X2508824Y5026028D1*
X2515453Y5032113D1*
X2522518Y5037685D1*
X2529980Y5042711D1*
X2537798Y5047167D1*
X2545927Y5051024D1*
X2554322Y5054262D1*
X2562936Y5056864D1*
X2571720Y5058812D1*
X2580626Y5060098D1*
X2589602Y5060715D1*
X2598600Y5060659D1*
X2607568Y5059928D1*
X2616457Y5058529D1*
X2625215Y5056469D1*
X2633795Y5053757D1*
X2642148Y5050413D1*
X2650228Y5046453D1*
X2657988Y5041899D1*
X2665386Y5036777D1*
X2672381Y5031117D1*
X2678932Y5024948D1*
X2685001Y5018306D1*
X2690559Y5011230D1*
X2695571Y5003756D1*
X2700009Y4995929D1*
X2703849Y4987791D1*
X2707070Y4979390D1*
X2709652Y4970770D1*
X2711583Y4961983D1*
X2712850Y4953075D1*
X2713448Y4944096D1*
X2713413Y4936115D1*
X729444Y1084634D2*
X728848Y1075655D1*
X727659Y1066735D1*
X725883Y1057913D1*
X723528Y1049230D1*
X720602Y1040719D1*
X717121Y1032423D1*
X713097Y1024374D1*
X708550Y1016609D1*
X703499Y1009161D1*
X697966Y1002066D1*
X691975Y995350D1*
X685554Y989047D1*
X678730Y983182D1*
X671531Y977782D1*
X663992Y972870D1*
X656144Y968467D1*
X648024Y964593D1*
X639663Y961265D1*
X631100Y958499D1*
X622374Y956304D1*
X613521Y954692D1*
X604581Y953669D1*
X595593Y953240D1*
X586596Y953407D1*
X577630Y954168D1*
X568734Y955521D1*
X559948Y957461D1*
X551307Y959976D1*
X542853Y963059D1*
X534622Y966694D1*
X526650Y970866D1*
X518970Y975556D1*
X511618Y980744D1*
X504625Y986408D1*
X498022Y992521D1*
X491839Y999058D1*
X486101Y1005991D1*
X480836Y1013286D1*
X476063Y1020916D1*
X471807Y1028844D1*
X468084Y1037035D1*
X464912Y1045457D1*
X462304Y1054068D1*
X460272Y1062835D1*
X458824Y1071715D1*
X457967Y1080673D1*
X457703Y1089668D1*
X458037Y1098660D1*
X458965Y1107610D1*
X460483Y1116479D1*
X462584Y1125228D1*
X465260Y1133820D1*
X468499Y1142215D1*
X472285Y1150378D1*
X476604Y1158273D1*
X481436Y1165864D1*
X486759Y1173118D1*
X492551Y1180005D1*
X498786Y1186493D1*
X505436Y1192555D1*
X512474Y1198163D1*
X519866Y1203293D1*
X527583Y1207923D1*
X535588Y1212031D1*
X543848Y1215601D1*
X552325Y1218617D1*
X560984Y1221066D1*
X569786Y1222936D1*
X578693Y1224219D1*
X587664Y1224909D1*
X596663Y1225005D1*
X605647Y1224505D1*
X614579Y1223412D1*
X623419Y1221731D1*
X632127Y1219467D1*
X640668Y1216633D1*
X649001Y1213240D1*
X657093Y1209302D1*
X664906Y1204839D1*
X672406Y1199866D1*
X679560Y1194409D1*
X686339Y1188491D1*
X692710Y1182138D1*
X698648Y1175375D1*
X704125Y1168236D1*
X709117Y1160749D1*
X713602Y1152949D1*
X717563Y1144869D1*
X720979Y1136545D1*
X723837Y1128012D1*
X726125Y1119310D1*
X727831Y1110474D1*
X728949Y1101546D1*
X729474Y1092563D1*
X729444Y1084634D1*
X728848Y1075655D1*
X727659Y1066735D1*
X725883Y1057913D1*
X723528Y1049230D1*
X720602Y1040719D1*
X717121Y1032423D1*
X713097Y1024374D1*
X708550Y1016609D1*
X703499Y1009161D1*
X697966Y1002066D1*
X691975Y995350D1*
X685554Y989047D1*
X678730Y983182D1*
X671531Y977782D1*
X663992Y972870D1*
X656144Y968467D1*
X648024Y964593D1*
X639663Y961265D1*
X631100Y958499D1*
X622374Y956304D1*
X613521Y954692D1*
X604581Y953669D1*
X595593Y953240D1*
X586596Y953407D1*
X577630Y954168D1*
X568734Y955521D1*
X559948Y957461D1*
X551307Y959976D1*
X542853Y963059D1*
X534622Y966694D1*
X526650Y970866D1*
X518970Y975556D1*
X511618Y980744D1*
X504625Y986408D1*
X498022Y992521D1*
X491839Y999058D1*
X486101Y1005991D1*
X480836Y1013286D1*
X476063Y1020916D1*
X471807Y1028844D1*
X468084Y1037035D1*
X464912Y1045457D1*
X462304Y1054068D1*
X460272Y1062835D1*
X458824Y1071715D1*
X457967Y1080673D1*
X457703Y1089668D1*
X458037Y1098660D1*
X458965Y1107610D1*
X460483Y1116479D1*
X462584Y1125228D1*
X465260Y1133820D1*
X468499Y1142215D1*
X472285Y1150378D1*
X476604Y1158273D1*
X481436Y1165864D1*
X486759Y1173118D1*
X492551Y1180005D1*
X498786Y1186493D1*
X505436Y1192555D1*
X512474Y1198163D1*
X519866Y1203293D1*
X527583Y1207923D1*
X535588Y1212031D1*
X543848Y1215601D1*
X552325Y1218617D1*
X560984Y1221066D1*
X569786Y1222936D1*
X578693Y1224219D1*
X587664Y1224909D1*
X596663Y1225005D1*
X605647Y1224505D1*
X614579Y1223412D1*
X623419Y1221731D1*
X632127Y1219467D1*
X640668Y1216633D1*
X649001Y1213240D1*
X657093Y1209302D1*
X664906Y1204839D1*
X672406Y1199866D1*
X679560Y1194409D1*
X686339Y1188491D1*
X692710Y1182138D1*
X698648Y1175375D1*
X704125Y1168236D1*
X709117Y1160749D1*
X713602Y1152949D1*
X717563Y1144869D1*
X720979Y1136545D1*
X723837Y1128012D1*
X726125Y1119310D1*
X727831Y1110474D1*
X728949Y1101546D1*
X729474Y1092563D1*
X729444Y1084634D1*
X1128361D2*
X1127765Y1075655D1*
X1126576Y1066735D1*
X1124801Y1057913D1*
X1122445Y1049230D1*
X1119520Y1040719D1*
X1116038Y1032423D1*
X1112014Y1024374D1*
X1107467Y1016609D1*
X1102416Y1009161D1*
X1096883Y1002066D1*
X1090892Y995350D1*
X1084471Y989047D1*
X1077647Y983182D1*
X1070449Y977782D1*
X1062909Y972870D1*
X1055062Y968467D1*
X1046941Y964593D1*
X1038580Y961265D1*
X1030017Y958499D1*
X1021291Y956304D1*
X1012438Y954692D1*
X1003499Y953669D1*
X994510Y953240D1*
X985513Y953407D1*
X976547Y954168D1*
X967651Y955521D1*
X958865Y957461D1*
X950224Y959976D1*
X941770Y963059D1*
X933539Y966694D1*
X925567Y970866D1*
X917887Y975556D1*
X910535Y980744D1*
X903542Y986408D1*
X896940Y992521D1*
X890756Y999058D1*
X885018Y1005991D1*
X879753Y1013286D1*
X874980Y1020916D1*
X870724Y1028844D1*
X867001Y1037035D1*
X863829Y1045457D1*
X861222Y1054068D1*
X859189Y1062835D1*
X857741Y1071715D1*
X856885Y1080673D1*
X856621Y1089668D1*
X856954Y1098660D1*
X857882Y1107610D1*
X859400Y1116479D1*
X861501Y1125228D1*
X864177Y1133820D1*
X867416Y1142215D1*
X871202Y1150378D1*
X875521Y1158273D1*
X880353Y1165864D1*
X885676Y1173118D1*
X891469Y1180005D1*
X897703Y1186493D1*
X904353Y1192555D1*
X911391Y1198163D1*
X918783Y1203293D1*
X926500Y1207923D1*
X934505Y1212031D1*
X942765Y1215601D1*
X951243Y1218617D1*
X959902Y1221066D1*
X968703Y1222936D1*
X977610Y1224219D1*
X986581Y1224909D1*
X995580Y1225005D1*
X1004564Y1224505D1*
X1013496Y1223412D1*
X1022336Y1221731D1*
X1031045Y1219467D1*
X1039585Y1216633D1*
X1047919Y1213240D1*
X1056010Y1209302D1*
X1063823Y1204839D1*
X1071323Y1199866D1*
X1078478Y1194409D1*
X1085256Y1188491D1*
X1091627Y1182138D1*
X1097566Y1175375D1*
X1103042Y1168236D1*
X1108034Y1160749D1*
X1112520Y1152949D1*
X1116480Y1144869D1*
X1119896Y1136545D1*
X1122755Y1128012D1*
X1125042Y1119310D1*
X1126748Y1110474D1*
X1127866Y1101546D1*
X1128391Y1092563D1*
X1128361Y1084634D1*
X1127765Y1075655D1*
X1126576Y1066735D1*
X1124801Y1057913D1*
X1122445Y1049230D1*
X1119520Y1040719D1*
X1116038Y1032423D1*
X1112014Y1024374D1*
X1107467Y1016609D1*
X1102416Y1009161D1*
X1096883Y1002066D1*
X1090892Y995350D1*
X1084471Y989047D1*
X1077647Y983182D1*
X1070449Y977782D1*
X1062909Y972870D1*
X1055062Y968467D1*
X1046941Y964593D1*
X1038580Y961265D1*
X1030017Y958499D1*
X1021291Y956304D1*
X1012438Y954692D1*
X1003499Y953669D1*
X994510Y953240D1*
X985513Y953407D1*
X976547Y954168D1*
X967651Y955521D1*
X958865Y957461D1*
X950224Y959976D1*
X941770Y963059D1*
X933539Y966694D1*
X925567Y970866D1*
X917887Y975556D1*
X910535Y980744D1*
X903542Y986408D1*
X896940Y992521D1*
X890756Y999058D1*
X885018Y1005991D1*
X879753Y1013286D1*
X874980Y1020916D1*
X870724Y1028844D1*
X867001Y1037035D1*
X863829Y1045457D1*
X861222Y1054068D1*
X859189Y1062835D1*
X857741Y1071715D1*
X856885Y1080673D1*
X856621Y1089668D1*
X856954Y1098660D1*
X857882Y1107610D1*
X859400Y1116479D1*
X861501Y1125228D1*
X864177Y1133820D1*
X867416Y1142215D1*
X871202Y1150378D1*
X875521Y1158273D1*
X880353Y1165864D1*
X885676Y1173118D1*
X891469Y1180005D1*
X897703Y1186493D1*
X904353Y1192555D1*
X911391Y1198163D1*
X918783Y1203293D1*
X926500Y1207923D1*
X934505Y1212031D1*
X942765Y1215601D1*
X951243Y1218617D1*
X959902Y1221066D1*
X968703Y1222936D1*
X977610Y1224219D1*
X986581Y1224909D1*
X995580Y1225005D1*
X1004564Y1224505D1*
X1013496Y1223412D1*
X1022336Y1221731D1*
X1031045Y1219467D1*
X1039585Y1216633D1*
X1047919Y1213240D1*
X1056010Y1209302D1*
X1063823Y1204839D1*
X1071323Y1199866D1*
X1078478Y1194409D1*
X1085256Y1188491D1*
X1091627Y1182138D1*
X1097566Y1175375D1*
X1103042Y1168236D1*
X1108034Y1160749D1*
X1112520Y1152949D1*
X1116480Y1144869D1*
X1119896Y1136545D1*
X1122755Y1128012D1*
X1125042Y1119310D1*
X1126748Y1110474D1*
X1127866Y1101546D1*
X1128391Y1092563D1*
X1128361Y1084634D1*
X1529577D2*
X1528982Y1075655D1*
X1527793Y1066735D1*
X1526017Y1057913D1*
X1523661Y1049230D1*
X1520736Y1040719D1*
X1517255Y1032423D1*
X1513231Y1024374D1*
X1508684Y1016609D1*
X1503633Y1009161D1*
X1498100Y1002066D1*
X1492109Y995350D1*
X1485688Y989047D1*
X1478864Y983182D1*
X1471665Y977782D1*
X1464126Y972870D1*
X1456278Y968467D1*
X1448157Y964593D1*
X1439797Y961265D1*
X1431234Y958499D1*
X1422508Y956304D1*
X1413655Y954692D1*
X1404715Y953669D1*
X1395727Y953240D1*
X1386730Y953407D1*
X1377764Y954168D1*
X1368867Y955521D1*
X1360081Y957461D1*
X1351441Y959976D1*
X1342987Y963059D1*
X1334756Y966694D1*
X1326783Y970866D1*
X1319104Y975556D1*
X1311752Y980744D1*
X1304759Y986408D1*
X1298156Y992521D1*
X1291972Y999058D1*
X1286235Y1005991D1*
X1280970Y1013286D1*
X1276197Y1020916D1*
X1271941Y1028844D1*
X1268218Y1037035D1*
X1265046Y1045457D1*
X1262438Y1054068D1*
X1260406Y1062835D1*
X1258958Y1071715D1*
X1258101Y1080673D1*
X1257837Y1089668D1*
X1258171Y1098660D1*
X1259098Y1107610D1*
X1260617Y1116479D1*
X1262718Y1125228D1*
X1265394Y1133820D1*
X1268633Y1142215D1*
X1272419Y1150378D1*
X1276738Y1158273D1*
X1281570Y1165864D1*
X1286892Y1173118D1*
X1292685Y1180005D1*
X1298920Y1186493D1*
X1305570Y1192555D1*
X1312608Y1198163D1*
X1320000Y1203293D1*
X1327717Y1207923D1*
X1335722Y1212031D1*
X1343982Y1215601D1*
X1352459Y1218617D1*
X1361118Y1221066D1*
X1369920Y1222936D1*
X1378827Y1224219D1*
X1387798Y1224909D1*
X1396797Y1225005D1*
X1405781Y1224505D1*
X1414713Y1223412D1*
X1423552Y1221731D1*
X1432261Y1219467D1*
X1440802Y1216633D1*
X1449135Y1213240D1*
X1457227Y1209302D1*
X1465039Y1204839D1*
X1472539Y1199866D1*
X1479694Y1194409D1*
X1486472Y1188491D1*
X1492844Y1182138D1*
X1498782Y1175375D1*
X1504259Y1168236D1*
X1509251Y1160749D1*
X1513736Y1152949D1*
X1517697Y1144869D1*
X1521113Y1136545D1*
X1523971Y1128012D1*
X1526259Y1119310D1*
X1527965Y1110474D1*
X1529083Y1101546D1*
X1529608Y1092563D1*
X1529577Y1084634D1*
X1528982Y1075655D1*
X1527793Y1066735D1*
X1526017Y1057913D1*
X1523661Y1049230D1*
X1520736Y1040719D1*
X1517255Y1032423D1*
X1513231Y1024374D1*
X1508684Y1016609D1*
X1503633Y1009161D1*
X1498100Y1002066D1*
X1492109Y995350D1*
X1485688Y989047D1*
X1478864Y983182D1*
X1471665Y977782D1*
X1464126Y972870D1*
X1456278Y968467D1*
X1448157Y964593D1*
X1439797Y961265D1*
X1431234Y958499D1*
X1422508Y956304D1*
X1413655Y954692D1*
X1404715Y953669D1*
X1395727Y953240D1*
X1386730Y953407D1*
X1377764Y954168D1*
X1368867Y955521D1*
X1360081Y957461D1*
X1351441Y959976D1*
X1342987Y963059D1*
X1334756Y966694D1*
X1326783Y970866D1*
X1319104Y975556D1*
X1311752Y980744D1*
X1304759Y986408D1*
X1298156Y992521D1*
X1291972Y999058D1*
X1286235Y1005991D1*
X1280970Y1013286D1*
X1276197Y1020916D1*
X1271941Y1028844D1*
X1268218Y1037035D1*
X1265046Y1045457D1*
X1262438Y1054068D1*
X1260406Y1062835D1*
X1258958Y1071715D1*
X1258101Y1080673D1*
X1257837Y1089668D1*
X1258171Y1098660D1*
X1259098Y1107610D1*
X1260617Y1116479D1*
X1262718Y1125228D1*
X1265394Y1133820D1*
X1268633Y1142215D1*
X1272419Y1150378D1*
X1276738Y1158273D1*
X1281570Y1165864D1*
X1286892Y1173118D1*
X1292685Y1180005D1*
X1298920Y1186493D1*
X1305570Y1192555D1*
X1312608Y1198163D1*
X1320000Y1203293D1*
X1327717Y1207923D1*
X1335722Y1212031D1*
X1343982Y1215601D1*
X1352459Y1218617D1*
X1361118Y1221066D1*
X1369920Y1222936D1*
X1378827Y1224219D1*
X1387798Y1224909D1*
X1396797Y1225005D1*
X1405781Y1224505D1*
X1414713Y1223412D1*
X1423552Y1221731D1*
X1432261Y1219467D1*
X1440802Y1216633D1*
X1449135Y1213240D1*
X1457227Y1209302D1*
X1465039Y1204839D1*
X1472539Y1199866D1*
X1479694Y1194409D1*
X1486472Y1188491D1*
X1492844Y1182138D1*
X1498782Y1175375D1*
X1504259Y1168236D1*
X1509251Y1160749D1*
X1513736Y1152949D1*
X1517697Y1144869D1*
X1521113Y1136545D1*
X1523971Y1128012D1*
X1526259Y1119310D1*
X1527965Y1110474D1*
X1529083Y1101546D1*
X1529608Y1092563D1*
X1529577Y1084634D1*
X1928361D2*
X1927765Y1075655D1*
X1926576Y1066735D1*
X1924801Y1057913D1*
X1922445Y1049230D1*
X1919520Y1040719D1*
X1916038Y1032423D1*
X1912014Y1024374D1*
X1907467Y1016609D1*
X1902416Y1009161D1*
X1896883Y1002066D1*
X1890892Y995350D1*
X1884471Y989047D1*
X1877647Y983182D1*
X1870449Y977782D1*
X1862909Y972870D1*
X1855062Y968467D1*
X1846941Y964593D1*
X1838580Y961265D1*
X1830017Y958499D1*
X1821291Y956304D1*
X1812438Y954692D1*
X1803499Y953669D1*
X1794510Y953240D1*
X1785513Y953407D1*
X1776547Y954168D1*
X1767651Y955521D1*
X1758865Y957461D1*
X1750224Y959976D1*
X1741770Y963059D1*
X1733539Y966694D1*
X1725567Y970866D1*
X1717887Y975556D1*
X1710535Y980744D1*
X1703542Y986408D1*
X1696940Y992521D1*
X1690756Y999058D1*
X1685018Y1005991D1*
X1679753Y1013286D1*
X1674980Y1020916D1*
X1670724Y1028844D1*
X1667001Y1037035D1*
X1663829Y1045457D1*
X1661222Y1054068D1*
X1659189Y1062835D1*
X1657741Y1071715D1*
X1656885Y1080673D1*
X1656621Y1089668D1*
X1656954Y1098660D1*
X1657882Y1107610D1*
X1659400Y1116479D1*
X1661501Y1125228D1*
X1664177Y1133820D1*
X1667416Y1142215D1*
X1671202Y1150378D1*
X1675521Y1158273D1*
X1680353Y1165864D1*
X1685676Y1173118D1*
X1691469Y1180005D1*
X1697703Y1186493D1*
X1704353Y1192555D1*
X1711391Y1198163D1*
X1718783Y1203293D1*
X1726500Y1207923D1*
X1734505Y1212031D1*
X1742765Y1215601D1*
X1751243Y1218617D1*
X1759902Y1221066D1*
X1768703Y1222936D1*
X1777610Y1224219D1*
X1786581Y1224909D1*
X1795580Y1225005D1*
X1804564Y1224505D1*
X1813496Y1223412D1*
X1822336Y1221731D1*
X1831045Y1219467D1*
X1839585Y1216633D1*
X1847919Y1213240D1*
X1856010Y1209302D1*
X1863823Y1204839D1*
X1871323Y1199866D1*
X1878478Y1194409D1*
X1885256Y1188491D1*
X1891627Y1182138D1*
X1897566Y1175375D1*
X1903042Y1168236D1*
X1908034Y1160749D1*
X1912520Y1152949D1*
X1916480Y1144869D1*
X1919896Y1136545D1*
X1922755Y1128012D1*
X1925042Y1119310D1*
X1926748Y1110474D1*
X1927866Y1101546D1*
X1928391Y1092563D1*
X1928361Y1084634D1*
X1927765Y1075655D1*
X1926576Y1066735D1*
X1924801Y1057913D1*
X1922445Y1049230D1*
X1919520Y1040719D1*
X1916038Y1032423D1*
X1912014Y1024374D1*
X1907467Y1016609D1*
X1902416Y1009161D1*
X1896883Y1002066D1*
X1890892Y995350D1*
X1884471Y989047D1*
X1877647Y983182D1*
X1870449Y977782D1*
X1862909Y972870D1*
X1855062Y968467D1*
X1846941Y964593D1*
X1838580Y961265D1*
X1830017Y958499D1*
X1821291Y956304D1*
X1812438Y954692D1*
X1803499Y953669D1*
X1794510Y953240D1*
X1785513Y953407D1*
X1776547Y954168D1*
X1767651Y955521D1*
X1758865Y957461D1*
X1750224Y959976D1*
X1741770Y963059D1*
X1733539Y966694D1*
X1725567Y970866D1*
X1717887Y975556D1*
X1710535Y980744D1*
X1703542Y986408D1*
X1696940Y992521D1*
X1690756Y999058D1*
X1685018Y1005991D1*
X1679753Y1013286D1*
X1674980Y1020916D1*
X1670724Y1028844D1*
X1667001Y1037035D1*
X1663829Y1045457D1*
X1661222Y1054068D1*
X1659189Y1062835D1*
X1657741Y1071715D1*
X1656885Y1080673D1*
X1656621Y1089668D1*
X1656954Y1098660D1*
X1657882Y1107610D1*
X1659400Y1116479D1*
X1661501Y1125228D1*
X1664177Y1133820D1*
X1667416Y1142215D1*
X1671202Y1150378D1*
X1675521Y1158273D1*
X1680353Y1165864D1*
X1685676Y1173118D1*
X1691469Y1180005D1*
X1697703Y1186493D1*
X1704353Y1192555D1*
X1711391Y1198163D1*
X1718783Y1203293D1*
X1726500Y1207923D1*
X1734505Y1212031D1*
X1742765Y1215601D1*
X1751243Y1218617D1*
X1759902Y1221066D1*
X1768703Y1222936D1*
X1777610Y1224219D1*
X1786581Y1224909D1*
X1795580Y1225005D1*
X1804564Y1224505D1*
X1813496Y1223412D1*
X1822336Y1221731D1*
X1831045Y1219467D1*
X1839585Y1216633D1*
X1847919Y1213240D1*
X1856010Y1209302D1*
X1863823Y1204839D1*
X1871323Y1199866D1*
X1878478Y1194409D1*
X1885256Y1188491D1*
X1891627Y1182138D1*
X1897566Y1175375D1*
X1903042Y1168236D1*
X1908034Y1160749D1*
X1912520Y1152949D1*
X1916480Y1144869D1*
X1919896Y1136545D1*
X1922755Y1128012D1*
X1925042Y1119310D1*
X1926748Y1110474D1*
X1927866Y1101546D1*
X1928391Y1092563D1*
X1928361Y1084634D1*
X2328361D2*
X2327765Y1075655D1*
X2326576Y1066735D1*
X2324801Y1057913D1*
X2322445Y1049230D1*
X2319520Y1040719D1*
X2316038Y1032423D1*
X2312014Y1024374D1*
X2307467Y1016609D1*
X2302416Y1009161D1*
X2296883Y1002066D1*
X2290892Y995350D1*
X2284471Y989047D1*
X2277647Y983182D1*
X2270449Y977782D1*
X2262909Y972870D1*
X2255062Y968467D1*
X2246941Y964593D1*
X2238580Y961265D1*
X2230017Y958499D1*
X2221291Y956304D1*
X2212438Y954692D1*
X2203499Y953669D1*
X2194510Y953240D1*
X2185513Y953407D1*
X2176547Y954168D1*
X2167651Y955521D1*
X2158865Y957461D1*
X2150224Y959976D1*
X2141770Y963059D1*
X2133539Y966694D1*
X2125567Y970866D1*
X2117887Y975556D1*
X2110535Y980744D1*
X2103542Y986408D1*
X2096940Y992521D1*
X2090756Y999058D1*
X2085018Y1005991D1*
X2079753Y1013286D1*
X2074980Y1020916D1*
X2070724Y1028844D1*
X2067001Y1037035D1*
X2063829Y1045457D1*
X2061222Y1054068D1*
X2059189Y1062835D1*
X2057741Y1071715D1*
X2056885Y1080673D1*
X2056621Y1089668D1*
X2056954Y1098660D1*
X2057882Y1107610D1*
X2059400Y1116479D1*
X2061501Y1125228D1*
X2064177Y1133820D1*
X2067416Y1142215D1*
X2071202Y1150378D1*
X2075521Y1158273D1*
X2080353Y1165864D1*
X2085676Y1173118D1*
X2091469Y1180005D1*
X2097703Y1186493D1*
X2104353Y1192555D1*
X2111391Y1198163D1*
X2118783Y1203293D1*
X2126500Y1207923D1*
X2134505Y1212031D1*
X2142765Y1215601D1*
X2151243Y1218617D1*
X2159902Y1221066D1*
X2168703Y1222936D1*
X2177610Y1224219D1*
X2186581Y1224909D1*
X2195580Y1225005D1*
X2204564Y1224505D1*
X2213496Y1223412D1*
X2222336Y1221731D1*
X2231045Y1219467D1*
X2239585Y1216633D1*
X2247919Y1213240D1*
X2256010Y1209302D1*
X2263823Y1204839D1*
X2271323Y1199866D1*
X2278478Y1194409D1*
X2285256Y1188491D1*
X2291627Y1182138D1*
X2297566Y1175375D1*
X2303042Y1168236D1*
X2308034Y1160749D1*
X2312520Y1152949D1*
X2316480Y1144869D1*
X2319896Y1136545D1*
X2322755Y1128012D1*
X2325042Y1119310D1*
X2326748Y1110474D1*
X2327866Y1101546D1*
X2328391Y1092563D1*
X2328361Y1084634D1*
X2327765Y1075655D1*
X2326576Y1066735D1*
X2324801Y1057913D1*
X2322445Y1049230D1*
X2319520Y1040719D1*
X2316038Y1032423D1*
X2312014Y1024374D1*
X2307467Y1016609D1*
X2302416Y1009161D1*
X2296883Y1002066D1*
X2290892Y995350D1*
X2284471Y989047D1*
X2277647Y983182D1*
X2270449Y977782D1*
X2262909Y972870D1*
X2255062Y968467D1*
X2246941Y964593D1*
X2238580Y961265D1*
X2230017Y958499D1*
X2221291Y956304D1*
X2212438Y954692D1*
X2203499Y953669D1*
X2194510Y953240D1*
X2185513Y953407D1*
X2176547Y954168D1*
X2167651Y955521D1*
X2158865Y957461D1*
X2150224Y959976D1*
X2141770Y963059D1*
X2133539Y966694D1*
X2125567Y970866D1*
X2117887Y975556D1*
X2110535Y980744D1*
X2103542Y986408D1*
X2096940Y992521D1*
X2090756Y999058D1*
X2085018Y1005991D1*
X2079753Y1013286D1*
X2074980Y1020916D1*
X2070724Y1028844D1*
X2067001Y1037035D1*
X2063829Y1045457D1*
X2061222Y1054068D1*
X2059189Y1062835D1*
X2057741Y1071715D1*
X2056885Y1080673D1*
X2056621Y1089668D1*
X2056954Y1098660D1*
X2057882Y1107610D1*
X2059400Y1116479D1*
X2061501Y1125228D1*
X2064177Y1133820D1*
X2067416Y1142215D1*
X2071202Y1150378D1*
X2075521Y1158273D1*
X2080353Y1165864D1*
X2085676Y1173118D1*
X2091469Y1180005D1*
X2097703Y1186493D1*
X2104353Y1192555D1*
X2111391Y1198163D1*
X2118783Y1203293D1*
X2126500Y1207923D1*
X2134505Y1212031D1*
X2142765Y1215601D1*
X2151243Y1218617D1*
X2159902Y1221066D1*
X2168703Y1222936D1*
X2177610Y1224219D1*
X2186581Y1224909D1*
X2195580Y1225005D1*
X2204564Y1224505D1*
X2213496Y1223412D1*
X2222336Y1221731D1*
X2231045Y1219467D1*
X2239585Y1216633D1*
X2247919Y1213240D1*
X2256010Y1209302D1*
X2263823Y1204839D1*
X2271323Y1199866D1*
X2278478Y1194409D1*
X2285256Y1188491D1*
X2291627Y1182138D1*
X2297566Y1175375D1*
X2303042Y1168236D1*
X2308034Y1160749D1*
X2312520Y1152949D1*
X2316480Y1144869D1*
X2319896Y1136545D1*
X2322755Y1128012D1*
X2325042Y1119310D1*
X2326748Y1110474D1*
X2327866Y1101546D1*
X2328391Y1092563D1*
X2328361Y1084634D1*
X2728919D2*
X2728323Y1075655D1*
X2727134Y1066735D1*
X2725358Y1057913D1*
X2723003Y1049230D1*
X2720077Y1040719D1*
X2716596Y1032423D1*
X2712572Y1024374D1*
X2708025Y1016609D1*
X2702974Y1009161D1*
X2697441Y1002066D1*
X2691450Y995350D1*
X2685029Y989047D1*
X2678205Y983182D1*
X2671007Y977782D1*
X2663467Y972870D1*
X2655619Y968467D1*
X2647499Y964593D1*
X2639138Y961265D1*
X2630575Y958499D1*
X2621849Y956304D1*
X2612996Y954692D1*
X2604056Y953669D1*
X2595068Y953240D1*
X2586071Y953407D1*
X2577105Y954168D1*
X2568209Y955521D1*
X2559423Y957461D1*
X2550782Y959976D1*
X2542328Y963059D1*
X2534097Y966694D1*
X2526125Y970866D1*
X2518445Y975556D1*
X2511093Y980744D1*
X2504100Y986408D1*
X2497497Y992521D1*
X2491314Y999058D1*
X2485576Y1005991D1*
X2480311Y1013286D1*
X2475538Y1020916D1*
X2471282Y1028844D1*
X2467559Y1037035D1*
X2464387Y1045457D1*
X2461780Y1054068D1*
X2459747Y1062835D1*
X2458299Y1071715D1*
X2457442Y1080673D1*
X2457178Y1089668D1*
X2457512Y1098660D1*
X2458440Y1107610D1*
X2459958Y1116479D1*
X2462059Y1125228D1*
X2464735Y1133820D1*
X2467974Y1142215D1*
X2471760Y1150378D1*
X2476079Y1158273D1*
X2480911Y1165864D1*
X2486234Y1173118D1*
X2492026Y1180005D1*
X2498261Y1186493D1*
X2504911Y1192555D1*
X2511949Y1198163D1*
X2519341Y1203293D1*
X2527058Y1207923D1*
X2535063Y1212031D1*
X2543323Y1215601D1*
X2551801Y1218617D1*
X2560459Y1221066D1*
X2569261Y1222936D1*
X2578168Y1224219D1*
X2587139Y1224909D1*
X2596138Y1225005D1*
X2605122Y1224505D1*
X2614054Y1223412D1*
X2622894Y1221731D1*
X2631602Y1219467D1*
X2640143Y1216633D1*
X2648476Y1213240D1*
X2656568Y1209302D1*
X2664381Y1204839D1*
X2671881Y1199866D1*
X2679035Y1194409D1*
X2685814Y1188491D1*
X2692185Y1182138D1*
X2698123Y1175375D1*
X2703600Y1168236D1*
X2708592Y1160749D1*
X2713077Y1152949D1*
X2717038Y1144869D1*
X2720454Y1136545D1*
X2723312Y1128012D1*
X2725600Y1119310D1*
X2727306Y1110474D1*
X2728424Y1101546D1*
X2728949Y1092563D1*
X2728919Y1084634D1*
X2728323Y1075655D1*
X2727134Y1066735D1*
X2725358Y1057913D1*
X2723003Y1049230D1*
X2720077Y1040719D1*
X2716596Y1032423D1*
X2712572Y1024374D1*
X2708025Y1016609D1*
X2702974Y1009161D1*
X2697441Y1002066D1*
X2691450Y995350D1*
X2685029Y989047D1*
X2678205Y983182D1*
X2671007Y977782D1*
X2663467Y972870D1*
X2655619Y968467D1*
X2647499Y964593D1*
X2639138Y961265D1*
X2630575Y958499D1*
X2621849Y956304D1*
X2612996Y954692D1*
X2604056Y953669D1*
X2595068Y953240D1*
X2586071Y953407D1*
X2577105Y954168D1*
X2568209Y955521D1*
X2559423Y957461D1*
X2550782Y959976D1*
X2542328Y963059D1*
X2534097Y966694D1*
X2526125Y970866D1*
X2518445Y975556D1*
X2511093Y980744D1*
X2504100Y986408D1*
X2497497Y992521D1*
X2491314Y999058D1*
X2485576Y1005991D1*
X2480311Y1013286D1*
X2475538Y1020916D1*
X2471282Y1028844D1*
X2467559Y1037035D1*
X2464387Y1045457D1*
X2461780Y1054068D1*
X2459747Y1062835D1*
X2458299Y1071715D1*
X2457442Y1080673D1*
X2457178Y1089668D1*
X2457512Y1098660D1*
X2458440Y1107610D1*
X2459958Y1116479D1*
X2462059Y1125228D1*
X2464735Y1133820D1*
X2467974Y1142215D1*
X2471760Y1150378D1*
X2476079Y1158273D1*
X2480911Y1165864D1*
X2486234Y1173118D1*
X2492026Y1180005D1*
X2498261Y1186493D1*
X2504911Y1192555D1*
X2511949Y1198163D1*
X2519341Y1203293D1*
X2527058Y1207923D1*
X2535063Y1212031D1*
X2543323Y1215601D1*
X2551801Y1218617D1*
X2560459Y1221066D1*
X2569261Y1222936D1*
X2578168Y1224219D1*
X2587139Y1224909D1*
X2596138Y1225005D1*
X2605122Y1224505D1*
X2614054Y1223412D1*
X2622894Y1221731D1*
X2631602Y1219467D1*
X2640143Y1216633D1*
X2648476Y1213240D1*
X2656568Y1209302D1*
X2664381Y1204839D1*
X2671881Y1199866D1*
X2679035Y1194409D1*
X2685814Y1188491D1*
X2692185Y1182138D1*
X2698123Y1175375D1*
X2703600Y1168236D1*
X2708592Y1160749D1*
X2713077Y1152949D1*
X2717038Y1144869D1*
X2720454Y1136545D1*
X2723312Y1128012D1*
X2725600Y1119310D1*
X2727306Y1110474D1*
X2728424Y1101546D1*
X2728949Y1092563D1*
X2728919Y1084634D1*
X1884451Y2074411D2*
X1890782Y2073378D1*
X1899562Y2071404D1*
X1908192Y2068854D1*
X1916633Y2065739D1*
X1924850Y2062072D1*
X1932806Y2057869D1*
X1940467Y2053148D1*
X1947799Y2047930D1*
X1954769Y2042240D1*
X1961348Y2036101D1*
X1967505Y2029539D1*
X1973215Y2022585D1*
X1978453Y2015268D1*
X1983194Y2007619D1*
X1987420Y1999676D1*
X1991110Y1991469D1*
X1994249Y1983035D1*
X1996824Y1974413D1*
X1998822Y1965639D1*
X2000235Y1956753D1*
X2001056Y1947793D1*
X2001287Y1939866D1*
X2000990Y1930873D1*
X2000097Y1921919D1*
X1998614Y1913043D1*
X1996547Y1904286D1*
X1993906Y1895684D1*
X1990701Y1887276D1*
X1986946Y1879098D1*
X1982657Y1871188D1*
X1977856Y1863577D1*
X1972562Y1856302D1*
X1966797Y1849392D1*
X1960588Y1842879D1*
X1953961Y1836791D1*
X1946946Y1831156D1*
X1939573Y1825997D1*
X1931875Y1821337D1*
X1923886Y1817197D1*
X1915640Y1813594D1*
X1907175Y1810545D1*
X1898525Y1808063D1*
X1889731Y1806157D1*
X1880829Y1804840D1*
X1871861Y1804113D1*
X1862864Y1803982D1*
X1853877Y1804446D1*
X1844941Y1805505D1*
X1836094Y1807152D1*
X1827377Y1809381D1*
X1818825Y1812181D1*
X1810478Y1815542D1*
X1802371Y1819448D1*
X1794541Y1823881D1*
X1787021Y1828823D1*
X1779845Y1834252D1*
X1773043Y1840143D1*
X1766647Y1846472D1*
X1760684Y1853210D1*
X1755178Y1860328D1*
X1750156Y1867795D1*
X1745640Y1875577D1*
X1741648Y1883643D1*
X1738199Y1891953D1*
X1735307Y1900475D1*
X1732986Y1909168D1*
X1731244Y1917996D1*
X1730092Y1926920D1*
X1729531Y1935902D1*
X1729567Y1944900D1*
X1730197Y1953877D1*
X1731421Y1962791D1*
X1733231Y1971605D1*
X1735621Y1980281D1*
X1738580Y1988778D1*
X1742094Y1997062D1*
X1746150Y2005094D1*
X1750727Y2012841D1*
X1755808Y2020269D1*
X1761369Y2027344D1*
X1767385Y2034034D1*
X1773831Y2040312D1*
X1780678Y2046151D1*
X1787898Y2051522D1*
X1795457Y2056406D1*
X1803322Y2060777D1*
X1811458Y2064618D1*
X1819832Y2067913D1*
X1828404Y2070647D1*
X1837140Y2072807D1*
X1845999Y2074385D1*
X1849713Y2074857D1*
X1849717Y2417213D1*
X1843249Y2417974D1*
X1834371Y2419437D1*
X1825579Y2421358D1*
X1816899Y2423731D1*
X1808353Y2426550D1*
X1799965Y2429808D1*
X1791756Y2433496D1*
X1783748Y2437602D1*
X1775965Y2442118D1*
X1768425Y2447031D1*
X1761150Y2452328D1*
X1754157Y2457993D1*
X1747469Y2464013D1*
X1741100Y2470371D1*
X1735068Y2477050D1*
X1729391Y2484031D1*
X1724083Y2491298D1*
X1719157Y2498829D1*
X1714627Y2506605D1*
X1710507Y2514605D1*
X1706806Y2522808D1*
X1703534Y2531192D1*
X1700699Y2539732D1*
X1698312Y2548408D1*
X1696375Y2557197D1*
X1694898Y2566073D1*
X1693879Y2575014D1*
X1693327Y2583997D1*
X1693239Y2592996D1*
X1693617Y2601987D1*
X1694459Y2610946D1*
X1695764Y2619850D1*
X1697529Y2628675D1*
X1699747Y2637395D1*
X1702413Y2645991D1*
X1705521Y2654436D1*
X1709062Y2662709D1*
X1713025Y2670787D1*
X1717402Y2678651D1*
X1722180Y2686277D1*
X1727345Y2693646D1*
X1732885Y2700738D1*
X1738785Y2707533D1*
X1745028Y2714013D1*
X1751598Y2720163D1*
X1758478Y2725963D1*
X1765648Y2731402D1*
X1773091Y2736461D1*
X1780785Y2741127D1*
X1788710Y2745390D1*
X1796845Y2749238D1*
X1805169Y2752657D1*
X1813659Y2755643D1*
X1822291Y2758186D1*
X1831043Y2760278D1*
X1839892Y2761915D1*
X1848814Y2763091D1*
X1857785Y2763804D1*
X1866780Y2764052D1*
X1875777Y2763835D1*
X1884749Y2763152D1*
X1893676Y2762007D1*
X1902530Y2760400D1*
X1911289Y2758337D1*
X1919930Y2755824D1*
X1928429Y2752867D1*
X1936765Y2749475D1*
X1944913Y2745656D1*
X1952853Y2741420D1*
X1960563Y2736780D1*
X1968022Y2731745D1*
X1975211Y2726333D1*
X1977105Y2724789D1*
X2102966Y2850634D1*
X2103017Y2941854D1*
X2103444Y2944546D1*
X2104285Y2947136D1*
X2105521Y2949563D1*
X2107123Y2951768D1*
X2109049Y2953693D1*
X2111253Y2955295D1*
X2113680Y2956531D1*
X2116270Y2957373D1*
X2118962Y2957799D1*
X2147316Y2957853D1*
X2265436Y2957799D1*
X2268126Y2957373D1*
X2270717Y2956531D1*
X2273144Y2955295D1*
X2275348Y2953693D1*
X2277274Y2951768D1*
X2278875Y2949563D1*
X2280112Y2947136D1*
X2280954Y2944546D1*
X2281381Y2941854D1*
Y2939131D1*
X2280954Y2936440D1*
X2280112Y2933849D1*
X2278875Y2931423D1*
X2277274Y2929218D1*
X2275348Y2927293D1*
X2273144Y2925690D1*
X2270717Y2924454D1*
X2268126Y2923613D1*
X2265436Y2923186D1*
X2237081Y2923133D1*
X2137677D1*
X2137630Y2842079D1*
X2137203Y2839387D1*
X2136362Y2836797D1*
X2135126Y2834370D1*
X2133524Y2832165D1*
X2113524Y2812089D1*
X2001669Y2700235D1*
X2006454Y2694121D1*
X2011646Y2686770D1*
X2016449Y2679160D1*
X2020852Y2671312D1*
X2024844Y2663247D1*
X2028412Y2654986D1*
X2031549Y2646551D1*
X2034244Y2637965D1*
X2036492Y2629251D1*
X2038286Y2620433D1*
X2039622Y2611534D1*
X2040495Y2602577D1*
X2040903Y2593588D1*
X2040878Y2585693D1*
X2040412Y2576706D1*
X2039482Y2567756D1*
X2038091Y2558865D1*
X2036240Y2550058D1*
X2033937Y2541360D1*
X2031186Y2532790D1*
X2027996Y2524375D1*
X2024375Y2516138D1*
X2020333Y2508097D1*
X2015879Y2500278D1*
X2011028Y2492698D1*
X2005791Y2485381D1*
X2000181Y2478344D1*
X1994217Y2471606D1*
X1987909Y2465186D1*
X1981280Y2459102D1*
X1974344Y2453369D1*
X1967121Y2448001D1*
X1959629Y2443016D1*
X1951890Y2438424D1*
X1943923Y2434239D1*
X1935751Y2430471D1*
X1927394Y2427131D1*
X1918877Y2424228D1*
X1910219Y2421770D1*
X1901448Y2419764D1*
X1892583Y2418214D1*
X1884436Y2417210D1*
Y2074429D1*
X1890782Y2073378D1*
X1899562Y2071404D1*
X1908192Y2068854D1*
X1916633Y2065739D1*
X1924850Y2062072D1*
X1932806Y2057869D1*
X1940467Y2053148D1*
X1947799Y2047930D1*
X1954769Y2042240D1*
X1961348Y2036101D1*
X1967505Y2029539D1*
X1973215Y2022585D1*
X1978453Y2015268D1*
X1983194Y2007619D1*
X1987420Y1999676D1*
X1991110Y1991469D1*
X1994249Y1983035D1*
X1996824Y1974413D1*
X1998822Y1965639D1*
X2000235Y1956753D1*
X2001056Y1947793D1*
X2001287Y1939866D1*
X2000990Y1930873D1*
X2000097Y1921919D1*
X1998614Y1913043D1*
X1996547Y1904286D1*
X1993906Y1895684D1*
X1990701Y1887276D1*
X1986946Y1879098D1*
X1982657Y1871188D1*
X1977856Y1863577D1*
X1972562Y1856302D1*
X1966797Y1849392D1*
X1960588Y1842879D1*
X1953961Y1836791D1*
X1946946Y1831156D1*
X1939573Y1825997D1*
X1931875Y1821337D1*
X1923886Y1817197D1*
X1915640Y1813594D1*
X1907175Y1810545D1*
X1898525Y1808063D1*
X1889731Y1806157D1*
X1880829Y1804840D1*
X1871861Y1804113D1*
X1862864Y1803982D1*
X1853877Y1804446D1*
X1844941Y1805505D1*
X1836094Y1807152D1*
X1827377Y1809381D1*
X1818825Y1812181D1*
X1810478Y1815542D1*
X1802371Y1819448D1*
X1794541Y1823881D1*
X1787021Y1828823D1*
X1779845Y1834252D1*
X1773043Y1840143D1*
X1766647Y1846472D1*
X1760684Y1853210D1*
X1755178Y1860328D1*
X1750156Y1867795D1*
X1745640Y1875577D1*
X1741648Y1883643D1*
X1738199Y1891953D1*
X1735307Y1900475D1*
X1732986Y1909168D1*
X1731244Y1917996D1*
X1730092Y1926920D1*
X1729531Y1935902D1*
X1729567Y1944900D1*
X1730197Y1953877D1*
X1731421Y1962791D1*
X1733231Y1971605D1*
X1735621Y1980281D1*
X1738580Y1988778D1*
X1742094Y1997062D1*
X1746150Y2005094D1*
X1750727Y2012841D1*
X1755808Y2020269D1*
X1761369Y2027344D1*
X1767385Y2034034D1*
X1773831Y2040312D1*
X1780678Y2046151D1*
X1787898Y2051522D1*
X1795457Y2056406D1*
X1803322Y2060777D1*
X1811458Y2064618D1*
X1819832Y2067913D1*
X1828404Y2070647D1*
X1837140Y2072807D1*
X1845999Y2074385D1*
X1849713Y2074857D1*
X2436619Y2074735D2*
X2445283Y2073378D1*
X2454063Y2071404D1*
X2462693Y2068854D1*
X2471134Y2065739D1*
X2479352Y2062072D1*
X2487307Y2057869D1*
X2494969Y2053148D1*
X2502301Y2047930D1*
X2509270Y2042240D1*
X2515849Y2036101D1*
X2522007Y2029539D1*
X2527717Y2022585D1*
X2532954Y2015268D1*
X2537696Y2007619D1*
X2541921Y1999676D1*
X2545612Y1991469D1*
X2548751Y1983035D1*
X2551325Y1974413D1*
X2553323Y1965639D1*
X2554736Y1956753D1*
X2555558Y1947793D1*
X2555789Y1939866D1*
X2555491Y1930873D1*
X2554598Y1921919D1*
X2553115Y1913043D1*
X2551049Y1904286D1*
X2548407Y1895684D1*
X2545202Y1887276D1*
X2541448Y1879098D1*
X2537159Y1871188D1*
X2532357Y1863577D1*
X2527063Y1856302D1*
X2521298Y1849392D1*
X2515089Y1842879D1*
X2508462Y1836791D1*
X2501448Y1831156D1*
X2494075Y1825997D1*
X2486377Y1821337D1*
X2478387Y1817197D1*
X2470142Y1813594D1*
X2461676Y1810545D1*
X2453026Y1808063D1*
X2444232Y1806157D1*
X2435331Y1804840D1*
X2426362Y1804113D1*
X2417365Y1803982D1*
X2408378Y1804446D1*
X2399442Y1805505D1*
X2390596Y1807152D1*
X2381878Y1809381D1*
X2373327Y1812181D1*
X2364979Y1815542D1*
X2356873Y1819448D1*
X2349042Y1823881D1*
X2341522Y1828823D1*
X2334346Y1834252D1*
X2327545Y1840143D1*
X2321148Y1846472D1*
X2315185Y1853210D1*
X2309680Y1860328D1*
X2304657Y1867795D1*
X2300142Y1875577D1*
X2296150Y1883643D1*
X2292701Y1891953D1*
X2289808Y1900475D1*
X2287487Y1909168D1*
X2285745Y1917996D1*
X2284593Y1926920D1*
X2284033Y1935902D1*
X2284068Y1944900D1*
X2284698Y1953877D1*
X2285923Y1962791D1*
X2287732Y1971605D1*
X2290122Y1980281D1*
X2293081Y1988778D1*
X2296596Y1997062D1*
X2300651Y2005094D1*
X2305228Y2012841D1*
X2310310Y2020269D1*
X2315870Y2027344D1*
X2321886Y2034034D1*
X2328332Y2040312D1*
X2335180Y2046151D1*
X2342399Y2051522D1*
X2349958Y2056406D1*
X2357823Y2060777D1*
X2365959Y2064618D1*
X2374333Y2067913D1*
X2382906Y2070647D1*
X2391642Y2072807D1*
X2400500Y2074385D1*
X2401913Y2074564D1*
X2401902Y2417199D1*
X2390986Y2418647D1*
X2382147Y2420340D1*
X2373408Y2422488D1*
X2364793Y2425085D1*
X2356323Y2428125D1*
X2348021Y2431598D1*
X2339911Y2435497D1*
X2332012Y2439810D1*
X2324348Y2444526D1*
X2316938Y2449633D1*
X2309802Y2455115D1*
X2302959Y2460959D1*
X2296428Y2467151D1*
X2290226Y2473672D1*
X2284370Y2480504D1*
X2278875Y2487630D1*
X2273756Y2495031D1*
X2269028Y2502688D1*
X2264701Y2510579D1*
X2260789Y2518682D1*
X2257301Y2526979D1*
X2254247Y2535444D1*
X2251635Y2544055D1*
X2249472Y2552790D1*
X2247764Y2561626D1*
X2246516Y2570538D1*
X2245730Y2579503D1*
X2245409Y2588496D1*
X2245555Y2597493D1*
X2246165Y2606471D1*
X2247239Y2615407D1*
X2248774Y2624273D1*
X2250766Y2633050D1*
X2253209Y2641710D1*
X2256097Y2650234D1*
X2259423Y2658596D1*
X2263176Y2666774D1*
X2267348Y2674748D1*
X2271927Y2682495D1*
X2276899Y2689995D1*
X2282255Y2697227D1*
X2287976Y2704173D1*
X2294050Y2710814D1*
X2300458Y2717131D1*
X2307185Y2723108D1*
X2314213Y2728728D1*
X2321522Y2733979D1*
X2329093Y2738844D1*
X2336906Y2743310D1*
X2344938Y2747366D1*
X2353171Y2751001D1*
X2361580Y2754206D1*
X2370143Y2756970D1*
X2378839Y2759289D1*
X2387642Y2761154D1*
X2396530Y2762560D1*
X2401891Y2763173D1*
X2401954Y2859542D1*
X2402381Y2862234D1*
X2403223Y2864824D1*
X2404459Y2867251D1*
X2406060Y2869455D1*
X2426059Y2889529D1*
X2496549Y2959944D1*
X2498753Y2961545D1*
X2501180Y2962781D1*
X2503770Y2963623D1*
X2506462Y2964050D1*
X2534698Y2964102D1*
X2684185Y2964050D1*
X2686877Y2963623D1*
X2689467Y2962781D1*
X2691894Y2961545D1*
X2694098Y2959944D1*
X2701349Y2952768D1*
X2703118Y2950697D1*
X2704542Y2948374D1*
X2705584Y2945857D1*
X2706220Y2943209D1*
X2706433Y2940492D1*
X2706220Y2937777D1*
X2705584Y2935129D1*
X2704542Y2932612D1*
X2703118Y2930289D1*
X2701349Y2928218D1*
X2699277Y2926449D1*
X2696955Y2925025D1*
X2694438Y2923983D1*
X2691789Y2923346D1*
X2689073Y2923133D1*
X2686358Y2923346D1*
X2683709Y2923983D1*
X2681192Y2925025D1*
X2678870Y2926449D1*
X2676798Y2928218D1*
X2675638Y2929377D1*
X2515025Y2929383D1*
X2436629Y2850996D1*
X2436621Y2763169D1*
X2445861Y2762007D1*
X2454715Y2760400D1*
X2463474Y2758337D1*
X2472115Y2755824D1*
X2480614Y2752867D1*
X2488950Y2749475D1*
X2497098Y2745656D1*
X2505038Y2741420D1*
X2512748Y2736780D1*
X2520207Y2731745D1*
X2527396Y2726333D1*
X2534295Y2720555D1*
X2540887Y2714428D1*
X2547152Y2707969D1*
X2553075Y2701193D1*
X2558639Y2694121D1*
X2563831Y2686770D1*
X2568634Y2679160D1*
X2573037Y2671312D1*
X2577029Y2663247D1*
X2580597Y2654986D1*
X2583734Y2646551D1*
X2586429Y2637965D1*
X2588677Y2629251D1*
X2590471Y2620433D1*
X2591807Y2611534D1*
X2592680Y2602577D1*
X2593088Y2593588D1*
X2593063Y2585693D1*
X2592597Y2576706D1*
X2591667Y2567756D1*
X2590276Y2558865D1*
X2588425Y2550058D1*
X2586122Y2541360D1*
X2583371Y2532790D1*
X2580181Y2524375D1*
X2576560Y2516138D1*
X2572518Y2508097D1*
X2568064Y2500278D1*
X2563213Y2492698D1*
X2557976Y2485381D1*
X2552366Y2478344D1*
X2546402Y2471606D1*
X2540094Y2465186D1*
X2533465Y2459102D1*
X2526529Y2453369D1*
X2519306Y2448001D1*
X2511814Y2443016D1*
X2504075Y2438424D1*
X2496108Y2434239D1*
X2487936Y2430471D1*
X2479579Y2427131D1*
X2471062Y2424228D1*
X2462404Y2421770D1*
X2453633Y2419764D1*
X2444768Y2418214D1*
X2436621Y2417210D1*
Y2074738D1*
X2445283Y2073378D1*
X2454063Y2071404D1*
X2462693Y2068854D1*
X2471134Y2065739D1*
X2479352Y2062072D1*
X2487307Y2057869D1*
X2494969Y2053148D1*
X2502301Y2047930D1*
X2509270Y2042240D1*
X2515849Y2036101D1*
X2522007Y2029539D1*
X2527717Y2022585D1*
X2532954Y2015268D1*
X2537696Y2007619D1*
X2541921Y1999676D1*
X2545612Y1991469D1*
X2548751Y1983035D1*
X2551325Y1974413D1*
X2553323Y1965639D1*
X2554736Y1956753D1*
X2555558Y1947793D1*
X2555789Y1939866D1*
X2555491Y1930873D1*
X2554598Y1921919D1*
X2553115Y1913043D1*
X2551049Y1904286D1*
X2548407Y1895684D1*
X2545202Y1887276D1*
X2541448Y1879098D1*
X2537159Y1871188D1*
X2532357Y1863577D1*
X2527063Y1856302D1*
X2521298Y1849392D1*
X2515089Y1842879D1*
X2508462Y1836791D1*
X2501448Y1831156D1*
X2494075Y1825997D1*
X2486377Y1821337D1*
X2478387Y1817197D1*
X2470142Y1813594D1*
X2461676Y1810545D1*
X2453026Y1808063D1*
X2444232Y1806157D1*
X2435331Y1804840D1*
X2426362Y1804113D1*
X2417365Y1803982D1*
X2408378Y1804446D1*
X2399442Y1805505D1*
X2390596Y1807152D1*
X2381878Y1809381D1*
X2373327Y1812181D1*
X2364979Y1815542D1*
X2356873Y1819448D1*
X2349042Y1823881D1*
X2341522Y1828823D1*
X2334346Y1834252D1*
X2327545Y1840143D1*
X2321148Y1846472D1*
X2315185Y1853210D1*
X2309680Y1860328D1*
X2304657Y1867795D1*
X2300142Y1875577D1*
X2296150Y1883643D1*
X2292701Y1891953D1*
X2289808Y1900475D1*
X2287487Y1909168D1*
X2285745Y1917996D1*
X2284593Y1926920D1*
X2284033Y1935902D1*
X2284068Y1944900D1*
X2284698Y1953877D1*
X2285923Y1962791D1*
X2287732Y1971605D1*
X2290122Y1980281D1*
X2293081Y1988778D1*
X2296596Y1997062D1*
X2300651Y2005094D1*
X2305228Y2012841D1*
X2310310Y2020269D1*
X2315870Y2027344D1*
X2321886Y2034034D1*
X2328332Y2040312D1*
X2335180Y2046151D1*
X2342399Y2051522D1*
X2349958Y2056406D1*
X2357823Y2060777D1*
X2365959Y2064618D1*
X2374333Y2067913D1*
X2382906Y2070647D1*
X2391642Y2072807D1*
X2400500Y2074385D1*
X2401913Y2074564D1*
X785434Y2074391D2*
X791626Y2073378D1*
X800406Y2071404D1*
X809035Y2068854D1*
X817476Y2065739D1*
X825694Y2062072D1*
X833650Y2057869D1*
X841311Y2053148D1*
X848643Y2047930D1*
X855613Y2042240D1*
X862192Y2036101D1*
X868349Y2029539D1*
X874059Y2022585D1*
X879297Y2015268D1*
X884038Y2007619D1*
X888264Y1999676D1*
X891954Y1991469D1*
X895093Y1983035D1*
X897668Y1974413D1*
X899665Y1965639D1*
X901079Y1956753D1*
X901900Y1947793D1*
X902131Y1939866D1*
X901833Y1930873D1*
X900941Y1921919D1*
X899458Y1913043D1*
X897391Y1904286D1*
X894749Y1895684D1*
X891545Y1887276D1*
X887790Y1879098D1*
X883501Y1871188D1*
X878699Y1863577D1*
X873406Y1856302D1*
X867640Y1849392D1*
X861432Y1842879D1*
X854804Y1836791D1*
X847790Y1831156D1*
X840417Y1825997D1*
X832719Y1821337D1*
X824730Y1817197D1*
X816484Y1813594D1*
X808018Y1810545D1*
X799369Y1808063D1*
X790575Y1806157D1*
X781673Y1804840D1*
X772705Y1804113D1*
X763707Y1803982D1*
X754720Y1804446D1*
X745785Y1805505D1*
X736938Y1807152D1*
X728220Y1809381D1*
X719669Y1812181D1*
X711322Y1815542D1*
X703215Y1819448D1*
X695385Y1823881D1*
X687865Y1828823D1*
X680689Y1834252D1*
X673887Y1840143D1*
X667491Y1846472D1*
X661528Y1853210D1*
X656022Y1860328D1*
X651000Y1867795D1*
X646484Y1875577D1*
X642492Y1883643D1*
X639043Y1891953D1*
X636151Y1900475D1*
X633829Y1909168D1*
X632088Y1917996D1*
X630936Y1926920D1*
X630375Y1935902D1*
X630411Y1944900D1*
X631041Y1953877D1*
X632265Y1962791D1*
X634075Y1971605D1*
X636465Y1980281D1*
X639424Y1988778D1*
X642938Y1997062D1*
X646993Y2005094D1*
X651571Y2012841D1*
X656652Y2020269D1*
X662213Y2027344D1*
X668228Y2034034D1*
X674675Y2040312D1*
X681522Y2046151D1*
X688741Y2051522D1*
X696301Y2056406D1*
X704165Y2060777D1*
X712302Y2064618D1*
X720676Y2067913D1*
X729248Y2070647D1*
X737984Y2072807D1*
X746843Y2074385D1*
X750697Y2074874D1*
X750699Y2417210D1*
X744232Y2417974D1*
X735354Y2419437D1*
X726562Y2421358D1*
X717882Y2423731D1*
X709336Y2426550D1*
X700948Y2429808D1*
X692739Y2433496D1*
X684731Y2437602D1*
X676948Y2442118D1*
X669408Y2447031D1*
X662133Y2452328D1*
X655140Y2457993D1*
X648451Y2464013D1*
X642083Y2470371D1*
X636051Y2477050D1*
X630374Y2484031D1*
X625066Y2491298D1*
X620140Y2498829D1*
X615610Y2506605D1*
X611490Y2514605D1*
X607789Y2522808D1*
X604517Y2531192D1*
X601682Y2539732D1*
X599295Y2548408D1*
X597358Y2557197D1*
X595881Y2566073D1*
X594862Y2575014D1*
X594310Y2583997D1*
X594222Y2592996D1*
X594600Y2601987D1*
X595442Y2610946D1*
X596747Y2619850D1*
X598512Y2628675D1*
X600730Y2637395D1*
X603396Y2645991D1*
X606504Y2654436D1*
X610045Y2662709D1*
X614008Y2670787D1*
X618385Y2678651D1*
X623163Y2686277D1*
X628328Y2693646D1*
X633867Y2700738D1*
X639768Y2707533D1*
X646010Y2714013D1*
X652581Y2720163D1*
X659461Y2725963D1*
X666631Y2731402D1*
X674073Y2736461D1*
X681768Y2741127D1*
X689693Y2745390D1*
X697828Y2749238D1*
X706152Y2752657D1*
X714642Y2755643D1*
X723274Y2758186D1*
X732026Y2760278D1*
X740875Y2761915D1*
X749797Y2763091D1*
X758768Y2763804D1*
X767762Y2764052D1*
X776760Y2763835D1*
X785732Y2763152D1*
X794659Y2762007D1*
X803513Y2760400D1*
X812272Y2758337D1*
X820913Y2755824D1*
X829412Y2752867D1*
X837748Y2749475D1*
X845896Y2745656D1*
X853836Y2741420D1*
X861546Y2736780D1*
X869005Y2731745D1*
X876194Y2726333D1*
X878088Y2724789D1*
X1032084Y2878693D1*
X1034289Y2880295D1*
X1036715Y2881531D1*
X1039306Y2882373D1*
X1041997Y2882799D1*
X1070283Y2882853D1*
X1213140D1*
X1277799Y2947444D1*
X1280003Y2949045D1*
X1282430Y2950281D1*
X1285021Y2951123D1*
X1287711Y2951550D1*
X1316105Y2951602D1*
X1471685Y2951550D1*
X1474377Y2951123D1*
X1476967Y2950281D1*
X1479394Y2949045D1*
X1481598Y2947444D1*
X1483524Y2945517D1*
X1485126Y2943314D1*
X1486362Y2940886D1*
X1487203Y2938295D1*
X1487630Y2935605D1*
Y2932881D1*
X1487203Y2930190D1*
X1486362Y2927600D1*
X1485126Y2925172D1*
X1483524Y2922969D1*
X1481598Y2921042D1*
X1479394Y2919441D1*
X1476967Y2918205D1*
X1474377Y2917362D1*
X1471685Y2916936D1*
X1443293Y2916883D1*
X1296251D1*
X1231598Y2852293D1*
X1229394Y2850690D1*
X1226967Y2849454D1*
X1224377Y2848613D1*
X1221685Y2848186D1*
X1193399Y2848133D1*
X1050542D1*
X902667Y2700251D1*
X907437Y2694121D1*
X912629Y2686770D1*
X917432Y2679160D1*
X921835Y2671312D1*
X925827Y2663247D1*
X929395Y2654986D1*
X932531Y2646551D1*
X935227Y2637965D1*
X937475Y2629251D1*
X939269Y2620433D1*
X940605Y2611534D1*
X941478Y2602577D1*
X941886Y2593588D1*
X941861Y2585693D1*
X941395Y2576706D1*
X940465Y2567756D1*
X939073Y2558865D1*
X937223Y2550058D1*
X934920Y2541360D1*
X932169Y2532790D1*
X928979Y2524375D1*
X925358Y2516138D1*
X921316Y2508097D1*
X916862Y2500278D1*
X912010Y2492698D1*
X906774Y2485381D1*
X901164Y2478344D1*
X895199Y2471606D1*
X888892Y2465186D1*
X882262Y2459102D1*
X875327Y2453369D1*
X868104Y2448001D1*
X860612Y2443016D1*
X852873Y2438424D1*
X844906Y2434239D1*
X836734Y2430471D1*
X828377Y2427131D1*
X819860Y2424228D1*
X811202Y2421770D1*
X802430Y2419764D1*
X793566Y2418214D1*
X785419Y2417210D1*
Y2074395D1*
X791626Y2073378D1*
X800406Y2071404D1*
X809035Y2068854D1*
X817476Y2065739D1*
X825694Y2062072D1*
X833650Y2057869D1*
X841311Y2053148D1*
X848643Y2047930D1*
X855613Y2042240D1*
X862192Y2036101D1*
X868349Y2029539D1*
X874059Y2022585D1*
X879297Y2015268D1*
X884038Y2007619D1*
X888264Y1999676D1*
X891954Y1991469D1*
X895093Y1983035D1*
X897668Y1974413D1*
X899665Y1965639D1*
X901079Y1956753D1*
X901900Y1947793D1*
X902131Y1939866D1*
X901833Y1930873D1*
X900941Y1921919D1*
X899458Y1913043D1*
X897391Y1904286D1*
X894749Y1895684D1*
X891545Y1887276D1*
X887790Y1879098D1*
X883501Y1871188D1*
X878699Y1863577D1*
X873406Y1856302D1*
X867640Y1849392D1*
X861432Y1842879D1*
X854804Y1836791D1*
X847790Y1831156D1*
X840417Y1825997D1*
X832719Y1821337D1*
X824730Y1817197D1*
X816484Y1813594D1*
X808018Y1810545D1*
X799369Y1808063D1*
X790575Y1806157D1*
X781673Y1804840D1*
X772705Y1804113D1*
X763707Y1803982D1*
X754720Y1804446D1*
X745785Y1805505D1*
X736938Y1807152D1*
X728220Y1809381D1*
X719669Y1812181D1*
X711322Y1815542D1*
X703215Y1819448D1*
X695385Y1823881D1*
X687865Y1828823D1*
X680689Y1834252D1*
X673887Y1840143D1*
X667491Y1846472D1*
X661528Y1853210D1*
X656022Y1860328D1*
X651000Y1867795D1*
X646484Y1875577D1*
X642492Y1883643D1*
X639043Y1891953D1*
X636151Y1900475D1*
X633829Y1909168D1*
X632088Y1917996D1*
X630936Y1926920D1*
X630375Y1935902D1*
X630411Y1944900D1*
X631041Y1953877D1*
X632265Y1962791D1*
X634075Y1971605D1*
X636465Y1980281D1*
X639424Y1988778D1*
X642938Y1997062D1*
X646993Y2005094D1*
X651571Y2012841D1*
X656652Y2020269D1*
X662213Y2027344D1*
X668228Y2034034D1*
X674675Y2040312D1*
X681522Y2046151D1*
X688741Y2051522D1*
X696301Y2056406D1*
X704165Y2060777D1*
X712302Y2064618D1*
X720676Y2067913D1*
X729248Y2070647D1*
X737984Y2072807D1*
X746843Y2074385D1*
X750697Y2074874D1*
X1335533Y2074522D2*
X1342665Y2073378D1*
X1351445Y2071404D1*
X1360075Y2068854D1*
X1368516Y2065739D1*
X1376734Y2062072D1*
X1384689Y2057869D1*
X1392350Y2053148D1*
X1399682Y2047930D1*
X1406652Y2042240D1*
X1413231Y2036101D1*
X1419388Y2029539D1*
X1425098Y2022585D1*
X1430336Y2015268D1*
X1435077Y2007619D1*
X1439303Y1999676D1*
X1442993Y1991469D1*
X1446133Y1983035D1*
X1448707Y1974413D1*
X1450705Y1965639D1*
X1452118Y1956753D1*
X1452940Y1947793D1*
X1453171Y1939866D1*
X1452873Y1930873D1*
X1451980Y1921919D1*
X1450497Y1913043D1*
X1448430Y1904286D1*
X1445789Y1895684D1*
X1442584Y1887276D1*
X1438829Y1879098D1*
X1434541Y1871188D1*
X1429739Y1863577D1*
X1424445Y1856302D1*
X1418680Y1849392D1*
X1412471Y1842879D1*
X1405844Y1836791D1*
X1398829Y1831156D1*
X1391457Y1825997D1*
X1383759Y1821337D1*
X1375769Y1817197D1*
X1367524Y1813594D1*
X1359058Y1810545D1*
X1350408Y1808063D1*
X1341614Y1806157D1*
X1332713Y1804840D1*
X1323744Y1804113D1*
X1314747Y1803982D1*
X1305760Y1804446D1*
X1296824Y1805505D1*
X1287978Y1807152D1*
X1279260Y1809381D1*
X1270709Y1812181D1*
X1262361Y1815542D1*
X1254255Y1819448D1*
X1246424Y1823881D1*
X1238904Y1828823D1*
X1231728Y1834252D1*
X1224927Y1840143D1*
X1218530Y1846472D1*
X1212567Y1853210D1*
X1207062Y1860328D1*
X1202039Y1867795D1*
X1197524Y1875577D1*
X1193531Y1883643D1*
X1190083Y1891953D1*
X1187190Y1900475D1*
X1184869Y1909168D1*
X1183127Y1917996D1*
X1181975Y1926920D1*
X1181415Y1935902D1*
X1181450Y1944900D1*
X1182080Y1953877D1*
X1183304Y1962791D1*
X1185114Y1971605D1*
X1187504Y1980281D1*
X1190463Y1988778D1*
X1193978Y1997062D1*
X1198033Y2005094D1*
X1202610Y2012841D1*
X1207692Y2020269D1*
X1213252Y2027344D1*
X1219268Y2034034D1*
X1225714Y2040312D1*
X1232562Y2046151D1*
X1239781Y2051522D1*
X1247340Y2056406D1*
X1255205Y2060777D1*
X1263341Y2064618D1*
X1271715Y2067913D1*
X1280287Y2070647D1*
X1289024Y2072807D1*
X1297882Y2074385D1*
X1300794Y2074755D1*
X1300810Y2417202D1*
X1289894Y2418647D1*
X1281055Y2420340D1*
X1272316Y2422488D1*
X1263701Y2425085D1*
X1255231Y2428125D1*
X1246929Y2431598D1*
X1238819Y2435497D1*
X1230920Y2439810D1*
X1223256Y2444526D1*
X1215846Y2449633D1*
X1208710Y2455115D1*
X1201867Y2460959D1*
X1195336Y2467151D1*
X1189134Y2473672D1*
X1183278Y2480504D1*
X1177783Y2487630D1*
X1172664Y2495031D1*
X1167936Y2502688D1*
X1163609Y2510579D1*
X1159697Y2518682D1*
X1156209Y2526979D1*
X1153155Y2535444D1*
X1150543Y2544055D1*
X1148381Y2552790D1*
X1146672Y2561626D1*
X1145424Y2570538D1*
X1144638Y2579503D1*
X1144318Y2588496D1*
X1144463Y2597493D1*
X1145073Y2606471D1*
X1146147Y2615407D1*
X1147682Y2624273D1*
X1149675Y2633050D1*
X1152117Y2641710D1*
X1155005Y2650234D1*
X1158331Y2658596D1*
X1162084Y2666774D1*
X1166256Y2674748D1*
X1170835Y2682495D1*
X1175807Y2689995D1*
X1181163Y2697227D1*
X1186885Y2704173D1*
X1192958Y2710814D1*
X1199366Y2717131D1*
X1206093Y2723108D1*
X1213121Y2728728D1*
X1220430Y2733979D1*
X1228001Y2738844D1*
X1235814Y2743310D1*
X1243846Y2747366D1*
X1252079Y2751001D1*
X1260488Y2754206D1*
X1269051Y2756970D1*
X1277747Y2759289D1*
X1286550Y2761154D1*
X1295438Y2762560D1*
X1304388Y2763505D1*
X1313374Y2763987D1*
X1322373Y2764003D1*
X1331361Y2763551D1*
X1340314Y2762636D1*
X1349206Y2761260D1*
X1358016Y2759425D1*
X1366719Y2757136D1*
X1375293Y2754402D1*
X1383713Y2751226D1*
X1391957Y2747618D1*
X1400004Y2743589D1*
X1407831Y2739150D1*
X1415419Y2734311D1*
X1422745Y2729085D1*
X1429791Y2723488D1*
X1436539Y2717534D1*
X1442970Y2711239D1*
X1449066Y2704619D1*
X1454811Y2697693D1*
X1460190Y2690479D1*
X1465189Y2682996D1*
X1469794Y2675265D1*
X1473993Y2667306D1*
X1477774Y2659139D1*
X1481127Y2650789D1*
X1484045Y2642276D1*
X1486517Y2633622D1*
X1488539Y2624854D1*
X1490105Y2615992D1*
X1491154Y2607568D1*
X1537845Y2607552D1*
X1584203Y2653924D1*
X1584266Y2841854D1*
X1584693Y2844546D1*
X1585535Y2847136D1*
X1586772Y2849563D1*
X1588373Y2851768D1*
X1608333Y2871803D1*
X1690299Y2953693D1*
X1692503Y2955295D1*
X1694930Y2956531D1*
X1697521Y2957373D1*
X1700211Y2957799D1*
X1728605Y2957853D1*
X1884185Y2957799D1*
X1886877Y2957373D1*
X1889467Y2956531D1*
X1891894Y2955295D1*
X1894098Y2953693D1*
X1896024Y2951768D1*
X1897626Y2949563D1*
X1898862Y2947136D1*
X1899703Y2944546D1*
X1900130Y2941854D1*
Y2939131D1*
X1899703Y2936440D1*
X1898862Y2933849D1*
X1897626Y2931423D1*
X1896024Y2929218D1*
X1894098Y2927293D1*
X1891894Y2925690D1*
X1889467Y2924454D1*
X1886877Y2923613D1*
X1884185Y2923186D1*
X1855793Y2923133D1*
X1708751D1*
X1618932Y2833299D1*
X1618881Y2645381D1*
X1618454Y2642690D1*
X1617612Y2640100D1*
X1616375Y2637672D1*
X1614774Y2635469D1*
X1594798Y2615416D1*
X1556298Y2576992D1*
X1554094Y2575391D1*
X1551667Y2574155D1*
X1549076Y2573312D1*
X1546386Y2572886D1*
X1517987Y2572833D1*
X1491144D1*
X1489937Y2563302D1*
X1488315Y2554450D1*
X1486238Y2545694D1*
X1483710Y2537056D1*
X1480739Y2528563D1*
X1477332Y2520234D1*
X1473500Y2512092D1*
X1469251Y2504159D1*
X1464596Y2496457D1*
X1459550Y2489005D1*
X1454125Y2481825D1*
X1448336Y2474937D1*
X1442198Y2468356D1*
X1435727Y2462101D1*
X1428942Y2456190D1*
X1421860Y2450638D1*
X1414500Y2445459D1*
X1406882Y2440669D1*
X1399026Y2436280D1*
X1390954Y2432302D1*
X1382688Y2428747D1*
X1374247Y2425625D1*
X1365656Y2422944D1*
X1356940Y2420711D1*
X1348118Y2418932D1*
X1339217Y2417612D1*
X1335529Y2417210D1*
Y2074529D1*
X1342665Y2073378D1*
X1351445Y2071404D1*
X1360075Y2068854D1*
X1368516Y2065739D1*
X1376734Y2062072D1*
X1384689Y2057869D1*
X1392350Y2053148D1*
X1399682Y2047930D1*
X1406652Y2042240D1*
X1413231Y2036101D1*
X1419388Y2029539D1*
X1425098Y2022585D1*
X1430336Y2015268D1*
X1435077Y2007619D1*
X1439303Y1999676D1*
X1442993Y1991469D1*
X1446133Y1983035D1*
X1448707Y1974413D1*
X1450705Y1965639D1*
X1452118Y1956753D1*
X1452940Y1947793D1*
X1453171Y1939866D1*
X1452873Y1930873D1*
X1451980Y1921919D1*
X1450497Y1913043D1*
X1448430Y1904286D1*
X1445789Y1895684D1*
X1442584Y1887276D1*
X1438829Y1879098D1*
X1434541Y1871188D1*
X1429739Y1863577D1*
X1424445Y1856302D1*
X1418680Y1849392D1*
X1412471Y1842879D1*
X1405844Y1836791D1*
X1398829Y1831156D1*
X1391457Y1825997D1*
X1383759Y1821337D1*
X1375769Y1817197D1*
X1367524Y1813594D1*
X1359058Y1810545D1*
X1350408Y1808063D1*
X1341614Y1806157D1*
X1332713Y1804840D1*
X1323744Y1804113D1*
X1314747Y1803982D1*
X1305760Y1804446D1*
X1296824Y1805505D1*
X1287978Y1807152D1*
X1279260Y1809381D1*
X1270709Y1812181D1*
X1262361Y1815542D1*
X1254255Y1819448D1*
X1246424Y1823881D1*
X1238904Y1828823D1*
X1231728Y1834252D1*
X1224927Y1840143D1*
X1218530Y1846472D1*
X1212567Y1853210D1*
X1207062Y1860328D1*
X1202039Y1867795D1*
X1197524Y1875577D1*
X1193531Y1883643D1*
X1190083Y1891953D1*
X1187190Y1900475D1*
X1184869Y1909168D1*
X1183127Y1917996D1*
X1181975Y1926920D1*
X1181415Y1935902D1*
X1181450Y1944900D1*
X1182080Y1953877D1*
X1183304Y1962791D1*
X1185114Y1971605D1*
X1187504Y1980281D1*
X1190463Y1988778D1*
X1193978Y1997062D1*
X1198033Y2005094D1*
X1202610Y2012841D1*
X1207692Y2020269D1*
X1213252Y2027344D1*
X1219268Y2034034D1*
X1225714Y2040312D1*
X1232562Y2046151D1*
X1239781Y2051522D1*
X1247340Y2056406D1*
X1255205Y2060777D1*
X1263341Y2064618D1*
X1271715Y2067913D1*
X1280287Y2070647D1*
X1289024Y2072807D1*
X1297882Y2074385D1*
X1300794Y2074755D1*
X965360Y4365654D2*
X964894Y4356667D1*
X963963Y4347717D1*
X962572Y4338825D1*
X960722Y4330018D1*
X958419Y4321320D1*
X955668Y4312751D1*
X952478Y4304336D1*
X948857Y4296098D1*
X944815Y4288058D1*
X940361Y4280239D1*
X935509Y4272659D1*
X930273Y4265341D1*
X924663Y4258304D1*
X918698Y4251567D1*
X912391Y4245147D1*
X905761Y4239063D1*
X898825Y4233329D1*
X891602Y4227962D1*
X884110Y4222976D1*
X876371Y4218385D1*
X868404Y4214199D1*
X860232Y4210432D1*
X851875Y4207092D1*
X843358Y4204189D1*
X834701Y4201731D1*
X825929Y4199724D1*
X817064Y4198175D1*
X808131Y4197085D1*
X799154Y4196459D1*
X790156Y4196299D1*
X781163Y4196605D1*
X772197Y4197375D1*
X763282Y4198608D1*
X754444Y4200301D1*
X745705Y4202449D1*
X737089Y4205046D1*
X728619Y4208085D1*
X720318Y4211559D1*
X712207Y4215458D1*
X704308Y4219770D1*
X696644Y4224487D1*
X689235Y4229593D1*
X682098Y4235076D1*
X675256Y4240920D1*
X668724Y4247112D1*
X662522Y4253633D1*
X656667Y4260465D1*
X651172Y4267591D1*
X646052Y4274992D1*
X641324Y4282648D1*
X636997Y4290539D1*
X633085Y4298643D1*
X629597Y4306940D1*
X626543Y4315404D1*
X623932Y4324016D1*
X621769Y4332751D1*
X620060Y4341587D1*
X618812Y4350499D1*
X618026Y4359463D1*
X617706Y4368457D1*
X617852Y4377454D1*
X618462Y4386432D1*
X619535Y4395367D1*
X621071Y4404234D1*
X623063Y4413010D1*
X625505Y4421671D1*
X628394Y4430194D1*
X631719Y4438556D1*
X635472Y4446735D1*
X639644Y4454709D1*
X644223Y4462455D1*
X649196Y4469955D1*
X654551Y4477188D1*
X660273Y4484134D1*
X666346Y4490774D1*
X672755Y4497092D1*
X679482Y4503068D1*
X686509Y4508689D1*
X693819Y4513940D1*
X701390Y4518804D1*
X709202Y4523270D1*
X717235Y4527327D1*
X725467Y4530962D1*
X733877Y4534167D1*
X742440Y4536930D1*
X751135Y4539249D1*
X759938Y4541114D1*
X768827Y4542521D1*
X777777Y4543466D1*
X786762Y4543948D1*
X795761Y4543963D1*
X804749Y4543512D1*
X813702Y4542597D1*
X822594Y4541220D1*
X831404Y4539386D1*
X840108Y4537097D1*
X848681Y4534362D1*
X857101Y4531186D1*
X865345Y4527579D1*
X873392Y4523550D1*
X881219Y4519110D1*
X888807Y4514272D1*
X896134Y4509046D1*
X903180Y4503449D1*
X909928Y4497495D1*
X916358Y4491199D1*
X922454Y4484580D1*
X928199Y4477654D1*
X933579Y4470440D1*
X938577Y4462957D1*
X943182Y4455226D1*
X947382Y4447266D1*
X951163Y4439100D1*
X954516Y4430749D1*
X957433Y4422236D1*
X959906Y4413583D1*
X961928Y4404815D1*
X963493Y4395953D1*
X964597Y4387021D1*
X965239Y4378046D1*
X965417Y4370154D1*
X965360Y4365654D1*
X967077Y3591005D2*
X966612Y3582018D1*
X965681Y3573068D1*
X964290Y3564177D1*
X962440Y3555370D1*
X960136Y3546672D1*
X957386Y3538102D1*
X954196Y3529688D1*
X950575Y3521450D1*
X946533Y3513409D1*
X942079Y3505591D1*
X937227Y3498010D1*
X931991Y3490693D1*
X926381Y3483656D1*
X920416Y3476919D1*
X914109Y3470499D1*
X907479Y3464415D1*
X900543Y3458681D1*
X893320Y3453314D1*
X885828Y3448328D1*
X878089Y3443736D1*
X870122Y3439551D1*
X861950Y3435783D1*
X853593Y3432444D1*
X845076Y3429541D1*
X836419Y3427083D1*
X827647Y3425076D1*
X818782Y3423526D1*
X809849Y3422437D1*
X800871Y3421811D1*
X791874Y3421651D1*
X782881Y3421957D1*
X773915Y3422727D1*
X765000Y3423959D1*
X756161Y3425652D1*
X747423Y3427801D1*
X738807Y3430398D1*
X730337Y3433437D1*
X722035Y3436911D1*
X713925Y3440810D1*
X706026Y3445122D1*
X698362Y3449839D1*
X690953Y3454945D1*
X683816Y3460428D1*
X676974Y3466272D1*
X670442Y3472463D1*
X664240Y3478984D1*
X658385Y3485816D1*
X652890Y3492942D1*
X647770Y3500344D1*
X643042Y3508000D1*
X638715Y3515891D1*
X634803Y3523995D1*
X631315Y3532291D1*
X628261Y3540756D1*
X625650Y3549367D1*
X623487Y3558102D1*
X621778Y3566938D1*
X620530Y3575850D1*
X619744Y3584815D1*
X619424Y3593808D1*
X619570Y3602806D1*
X620180Y3611783D1*
X621253Y3620719D1*
X622789Y3629585D1*
X624781Y3638362D1*
X627223Y3647022D1*
X630112Y3655546D1*
X633437Y3663908D1*
X637190Y3672087D1*
X641362Y3680060D1*
X645941Y3687807D1*
X650913Y3695307D1*
X656269Y3702539D1*
X661991Y3709486D1*
X668064Y3716126D1*
X674472Y3722444D1*
X681199Y3728420D1*
X688227Y3734041D1*
X695537Y3739291D1*
X703108Y3744156D1*
X710920Y3748622D1*
X718953Y3752678D1*
X727185Y3756314D1*
X735594Y3759518D1*
X744157Y3762282D1*
X752853Y3764601D1*
X761656Y3766466D1*
X770545Y3767873D1*
X779495Y3768818D1*
X788480Y3769299D1*
X797479Y3769315D1*
X806467Y3768864D1*
X815420Y3767949D1*
X824312Y3766572D1*
X833122Y3764738D1*
X841825Y3762449D1*
X850399Y3759714D1*
X858819Y3756538D1*
X867063Y3752930D1*
X875110Y3748902D1*
X882937Y3744462D1*
X890525Y3739623D1*
X897852Y3734398D1*
X904898Y3728801D1*
X911646Y3722846D1*
X918076Y3716551D1*
X924172Y3709932D1*
X929917Y3703005D1*
X935297Y3695791D1*
X940295Y3688308D1*
X944900Y3680577D1*
X949100Y3672618D1*
X952881Y3664451D1*
X956234Y3656101D1*
X959151Y3647588D1*
X961623Y3638934D1*
X963646Y3630167D1*
X965211Y3621304D1*
X966315Y3612373D1*
X966957Y3603398D1*
X967135Y3595505D1*
X967077Y3591005D1*
X2774332Y5201633D2*
X425824D1*
X425829Y641841D1*
X2765302Y641853D1*
X2774322Y5201650D1*
X1341850Y4656929D2*
X1443352Y4656869D1*
X1446374Y4656391D1*
X1449283Y4655445D1*
X1452010Y4654055D1*
X1454486Y4652257D1*
X1456650Y4650093D1*
X1458448Y4647618D1*
X1459837Y4644891D1*
X1460783Y4641982D1*
X1461261Y4638959D1*
X1461322Y4619438D1*
X1461261Y3136056D1*
X1460783Y3133034D1*
X1459837Y3130125D1*
X1458448Y3127398D1*
X1456650Y3124923D1*
X1454486Y3122759D1*
X1452010Y3120961D1*
X1449283Y3119571D1*
X1446374Y3118625D1*
X1443352Y3118147D1*
X1423777Y3118087D1*
X1340302Y3118147D1*
X1337280Y3118625D1*
X1334370Y3119571D1*
X1331643Y3120961D1*
X1329168Y3122759D1*
X1327004Y3124923D1*
X1325206Y3127398D1*
X1323816Y3130125D1*
X1322870Y3133034D1*
X1322392Y3136056D1*
X1322332Y3155577D1*
X1322392Y4638959D1*
X1322870Y4641982D1*
X1323816Y4644891D1*
X1325206Y4647618D1*
X1327004Y4650093D1*
X1329168Y4652257D1*
X1331643Y4654055D1*
X1334370Y4655445D1*
X1337280Y4656391D1*
X1340302Y4656869D1*
X1341839Y4656929D1*
X1738930Y4659475D2*
X1840432Y4659415D1*
X1843454Y4658937D1*
X1846364Y4657991D1*
X1849091Y4656601D1*
X1851566Y4654803D1*
X1853730Y4652639D1*
X1855528Y4650164D1*
X1856917Y4647437D1*
X1857864Y4644528D1*
X1858341Y4641505D1*
X1858402Y4621984D1*
X1858341Y3138602D1*
X1857864Y3135580D1*
X1856917Y3132671D1*
X1855528Y3129944D1*
X1853730Y3127469D1*
X1851566Y3125304D1*
X1849091Y3123507D1*
X1846364Y3122117D1*
X1843454Y3121171D1*
X1840432Y3120693D1*
X1820857Y3120633D1*
X1737382Y3120693D1*
X1734360Y3121171D1*
X1731450Y3122117D1*
X1728723Y3123507D1*
X1726248Y3125304D1*
X1724084Y3127469D1*
X1722286Y3129944D1*
X1720896Y3132671D1*
X1719950Y3135580D1*
X1719472Y3138602D1*
X1719412Y3158123D1*
X1719472Y4641505D1*
X1719950Y4644528D1*
X1720896Y4647437D1*
X1722286Y4650164D1*
X1724084Y4652639D1*
X1726248Y4654803D1*
X1728723Y4656601D1*
X1731450Y4657991D1*
X1734360Y4658937D1*
X1737382Y4659415D1*
X1738919Y4659475D1*
X2143080Y4667112D2*
X2240055Y4667051D1*
X2243077Y4666573D1*
X2245987Y4665627D1*
X2248714Y4664238D1*
X2251189Y4662440D1*
X2253353Y4660276D1*
X2255151Y4657801D1*
X2256541Y4655073D1*
X2257487Y4652164D1*
X2257965Y4649142D1*
X2258025Y4629621D1*
X2257965Y3146239D1*
X2257487Y3143217D1*
X2256541Y3140307D1*
X2255151Y3137580D1*
X2253353Y3135105D1*
X2251189Y3132941D1*
X2248714Y3131143D1*
X2245987Y3129753D1*
X2243077Y3128807D1*
X2240055Y3128329D1*
X2220480Y3128269D1*
X2137005Y3128329D1*
X2133983Y3128808D1*
X2131073Y3129753D1*
X2128346Y3131143D1*
X2125871Y3132941D1*
X2123707Y3135105D1*
X2121909Y3137580D1*
X2120520Y3140307D1*
X2119575Y3143217D1*
X2119096Y3146239D1*
X2119035Y3165760D1*
X2119096Y4649142D1*
X2119573Y4652164D1*
X2120520Y4655073D1*
X2121909Y4657801D1*
X2123707Y4660276D1*
X2125871Y4662440D1*
X2128346Y4664238D1*
X2131073Y4665627D1*
X2133983Y4666573D1*
X2137005Y4667051D1*
X2143080Y4667112D1*
X2540724Y4662020D2*
X2642226Y4661959D1*
X2645248Y4661480D1*
X2648157Y4660535D1*
X2650885Y4659146D1*
X2653360Y4657348D1*
X2655524Y4655184D1*
X2657322Y4652709D1*
X2658711Y4649982D1*
X2659656Y4647072D1*
X2660135Y4644050D1*
X2660196Y4624529D1*
X2660135Y3141147D1*
X2659656Y3138125D1*
X2658711Y3135215D1*
X2657322Y3132488D1*
X2655524Y3130013D1*
X2653360Y3127849D1*
X2650885Y3126051D1*
X2648157Y3124661D1*
X2645248Y3123717D1*
X2642226Y3123238D1*
X2622651Y3123177D1*
X2539176Y3123238D1*
X2536154Y3123717D1*
X2533244Y3124661D1*
X2530517Y3126051D1*
X2528042Y3127849D1*
X2525878Y3130013D1*
X2524080Y3132488D1*
X2522690Y3135215D1*
X2521745Y3138125D1*
X2521266Y3141147D1*
X2521206Y3160668D1*
X2521266Y4644050D1*
X2521745Y4647072D1*
X2522690Y4649982D1*
X2524080Y4652709D1*
X2525878Y4655184D1*
X2528042Y4657348D1*
X2530517Y4659146D1*
X2533244Y4660535D1*
X2536154Y4661480D1*
X2539176Y4661959D1*
X2540713Y4662020D1*
D19*
X593610Y1089133D3*
X992528D3*
X1393744D3*
X1792528D3*
X2192528D3*
D20*
X2509819Y517364D3*
X709819D3*
Y5337214D3*
X2509819D3*
D19*
X2593085Y1089133D3*
X1865381Y1939866D3*
X2419882D3*
X766224D3*
X1317264D3*
D21*
X768059Y2590193D3*
X1318169D3*
X1867076D3*
X2419261D3*
X791558Y4370154D3*
X793276Y3595505D3*
G36*
X420324Y5442377D2*
X2779298D1*
Y5215492D1*
X420324D1*
Y5442377D1*
G37*
G36*
X425010Y627992D2*
X2770324D1*
Y427992D1*
X425010D1*
Y627992D1*
G37*
M02*
