G04 DipTrace 4.0.0.0*
G04 rangoon_panel_plugg.GTS*
%MOIN*%
G04 #@! TF.FileFunction,Soldermask,Top*
G04 #@! TF.Part,Single*
%ADD22C,0.120079*%
%ADD23C,0.212598*%
%ADD28C,0.328*%
%ADD30O,0.2324X0.134*%
%ADD32C,0.252094*%
%FSLAX26Y26*%
G04*
G70*
G90*
G75*
G01*
G04 TopMask*
%LPD*%
D22*
X2292301Y4937152D3*
X890701Y4936639D3*
D23*
X594986Y4935815D3*
X2593339Y4940614D3*
D32*
X593610Y1089133D3*
X992528D3*
X1393744D3*
X1792528D3*
X2192528D3*
D30*
X2509819Y517364D3*
X709819D3*
Y5337214D3*
X2509819D3*
D32*
X2593085Y1089133D3*
X1865381Y1939866D3*
X2419882D3*
X766224D3*
X1317264D3*
D28*
X768059Y2590193D3*
X1318169D3*
X1867076D3*
X2419261D3*
X791558Y4370154D3*
X793276Y3595505D3*
G36*
X670043Y4153253D2*
X679937Y4147543D1*
X718017Y4213500D1*
X708123Y4219211D1*
X670043Y4153253D1*
G37*
G36*
X604093Y4209786D2*
X611626Y4201198D1*
X668886Y4251412D1*
X661354Y4260003D1*
X604093Y4209786D1*
G37*
G36*
X559814Y4284517D2*
X564186Y4273963D1*
X634549Y4303106D1*
X630177Y4313663D1*
X559814Y4284517D1*
G37*
G36*
X541906Y4369514D2*
X542654Y4358115D1*
X618651Y4363096D1*
X617904Y4374496D1*
X541906Y4369514D1*
G37*
G36*
X552270Y4455757D2*
X549314Y4444723D1*
X622879Y4425010D1*
X625836Y4436045D1*
X552270Y4455757D1*
G37*
G36*
X589806Y4534092D2*
X583459Y4524594D1*
X646785Y4482281D1*
X653131Y4491778D1*
X589806Y4534092D1*
G37*
G36*
X650530Y4596205D2*
X641467Y4589249D1*
X687831Y4528828D1*
X696894Y4535782D1*
X650530Y4596205D1*
G37*
G36*
X727997Y4635500D2*
X717178Y4631828D1*
X741660Y4559710D1*
X752478Y4563382D1*
X727997Y4635500D1*
G37*
G36*
X813984Y4647811D2*
X802559D1*
Y4571651D1*
X813984D1*
Y4647811D1*
G37*
G36*
X899365Y4631828D2*
X888547Y4635500D1*
X864066Y4563382D1*
X874883Y4559710D1*
X899365Y4631828D1*
G37*
G36*
X975076Y4589249D2*
X966013Y4596205D1*
X919650Y4535782D1*
X928713Y4528828D1*
X975076Y4589249D1*
G37*
G36*
X1033084Y4524594D2*
X1026738Y4534092D1*
X963412Y4491781D1*
X969759Y4482281D1*
X1033084Y4524594D1*
G37*
G36*
X1067230Y4444723D2*
X1064273Y4455757D1*
X990707Y4436045D1*
X993664Y4425010D1*
X1067230Y4444723D1*
G37*
G36*
X1073890Y4358115D2*
X1074638Y4369514D1*
X998639Y4374496D1*
X997892Y4363096D1*
X1073890Y4358115D1*
G37*
G36*
X1052358Y4273963D2*
X1056730Y4284517D1*
X986366Y4313663D1*
X981995Y4303106D1*
X1052358Y4273963D1*
G37*
G36*
X1004917Y4201197D2*
X1012450Y4209786D1*
X955190Y4260003D1*
X947657Y4251412D1*
X1004917Y4201197D1*
G37*
G36*
X936606Y4147543D2*
X946500Y4153253D1*
X908420Y4219211D1*
X898526Y4213500D1*
X936606Y4147543D1*
G37*
G36*
X671591Y3373306D2*
X681484Y3367596D1*
X719564Y3433552D1*
X709671Y3439264D1*
X671591Y3373306D1*
G37*
G36*
X605640Y3429839D2*
X613173Y3421251D1*
X670433Y3471465D1*
X662902Y3480055D1*
X605640Y3429839D1*
G37*
G36*
X561361Y3504570D2*
X565734Y3494016D1*
X636096Y3523159D1*
X631724Y3533715D1*
X561361Y3504570D1*
G37*
G36*
X543453Y3589567D2*
X544201Y3578168D1*
X620198Y3583148D1*
X619451Y3594549D1*
X543453Y3589567D1*
G37*
G36*
X553818Y3675810D2*
X550861Y3664776D1*
X624427Y3645063D1*
X627383Y3656097D1*
X553818Y3675810D1*
G37*
G36*
X591353Y3754144D2*
X585007Y3744647D1*
X648332Y3702333D1*
X654678Y3711831D1*
X591353Y3754144D1*
G37*
G36*
X652077Y3816257D2*
X643014Y3809302D1*
X689378Y3748881D1*
X698441Y3755835D1*
X652077Y3816257D1*
G37*
G36*
X729545Y3855552D2*
X718726Y3851881D1*
X743207Y3779762D1*
X754025Y3783434D1*
X729545Y3855552D1*
G37*
G36*
X815531Y3867864D2*
X804106D1*
Y3791703D1*
X815531D1*
Y3867864D1*
G37*
G36*
X900912Y3851881D2*
X890094Y3855552D1*
X865613Y3783434D1*
X876430Y3779762D1*
X900912Y3851881D1*
G37*
G36*
X976623Y3809302D2*
X967560Y3816257D1*
X921197Y3755835D1*
X930260Y3748881D1*
X976623Y3809302D1*
G37*
G36*
X1034631Y3744647D2*
X1028285Y3754144D1*
X964959Y3711833D1*
X971306Y3702333D1*
X1034631Y3744647D1*
G37*
G36*
X1068777Y3664776D2*
X1065820Y3675810D1*
X992255Y3656097D1*
X995211Y3645063D1*
X1068777Y3664776D1*
G37*
G36*
X1075437Y3578168D2*
X1076185Y3589567D1*
X1000186Y3594549D1*
X999440Y3583148D1*
X1075437Y3578168D1*
G37*
G36*
X1053906Y3494016D2*
X1058277Y3504570D1*
X987913Y3533715D1*
X983542Y3523159D1*
X1053906Y3494016D1*
G37*
G36*
X1006465Y3421249D2*
X1013997Y3429839D1*
X956738Y3480055D1*
X949205Y3471465D1*
X1006465Y3421249D1*
G37*
G36*
X938154Y3367596D2*
X948047Y3373306D1*
X909967Y3439264D1*
X900073Y3433552D1*
X938154Y3367596D1*
G37*
M02*
