G04 DipTrace 4.0.0.0*
G04 rangoon_panel_plugg.GBO*
%MOIN*%
G04 #@! TF.FileFunction,Legend,Bot*
G04 #@! TF.Part,Single*
%FSLAX26Y26*%
G04*
G70*
G90*
G75*
G01*
G04 BotSilk*
%LPD*%
G36*
X2580168Y3030118D2*
X2576231Y3029331D1*
X2571507Y3027756D1*
X2569932Y3026969D1*
X2567570Y3025394D1*
X2563633Y3021457D1*
X2562058Y3019094D1*
X2561270Y3017520D1*
X2560483Y3015157D1*
X2559696Y3013583D1*
Y3012008D1*
X2565995Y3010433D1*
X2566782Y3011220D1*
X2567570Y3012795D1*
X2568357Y3015157D1*
Y3015945D1*
X2572294Y3019882D1*
X2573869Y3020669D1*
X2574656Y3021457D1*
X2577018Y3022244D1*
X2580168Y3023031D1*
X2583580Y3023819D1*
X2586992D1*
X2590404Y3023031D1*
X2593554Y3022244D1*
X2595916Y3021457D1*
X2599066Y3019882D1*
X2603790Y3015157D1*
Y3014370D1*
X2605365Y3012008D1*
X2606940Y3007283D1*
X2607727Y3003346D1*
X2608514Y3002559D1*
Y2993898D1*
X2607727Y2993110D1*
X2606940Y2988386D1*
X2606152Y2986024D1*
X2604577Y2982874D1*
Y2982087D1*
X2599853Y2977362D1*
X2593554Y2974213D1*
X2590404Y2973425D1*
X2586730Y2972638D1*
X2583055D1*
X2579381Y2973425D1*
X2576231Y2974213D1*
X2573869Y2975000D1*
X2569144Y2977362D1*
X2568357Y2978150D1*
X2566782Y2978937D1*
X2565995Y2979724D1*
Y2991535D1*
X2584105Y2992323D1*
Y2998622D1*
X2558908D1*
Y2975787D1*
X2560483Y2974213D1*
X2562845Y2972638D1*
X2566782Y2970276D1*
X2570719Y2968701D1*
X2575444Y2967126D1*
X2579381Y2966339D1*
X2589617D1*
X2593554Y2967126D1*
X2598278Y2968701D1*
X2603003Y2971063D1*
X2605365Y2972638D1*
X2610089Y2977362D1*
X2611664Y2979724D1*
X2614026Y2984449D1*
X2614814Y2986811D1*
X2615601Y2989961D1*
X2616388Y2995472D1*
Y3000197D1*
X2615601Y3005709D1*
X2614814Y3008858D1*
X2613239Y3013583D1*
X2611664Y3016732D1*
X2610089Y3019094D1*
X2604577Y3024606D1*
X2602215Y3026181D1*
X2599066Y3027756D1*
X2594341Y3029331D1*
X2590404Y3030118D1*
X2580168D1*
G37*
G36*
X2436861Y3029331D2*
Y3023031D1*
X2458121Y3022244D1*
Y2967126D1*
X2465207D1*
Y3022244D1*
X2486467Y3023031D1*
Y3029331D1*
X2436861D1*
G37*
G36*
X2496703D2*
Y2967126D1*
X2503790D1*
Y2996260D1*
X2515076Y2997047D1*
X2526362D1*
X2537648Y2996260D1*
Y2967126D1*
X2545522D1*
Y3029331D1*
X2537648D1*
Y3004134D1*
X2526362Y3003346D1*
X2515076D1*
X2503790Y3004134D1*
Y3029331D1*
X2496703D1*
G37*
G36*
X2629774D2*
Y2967126D1*
X2636861D1*
Y3029331D1*
X2629774D1*
G37*
G36*
X2654971Y3022244D2*
X2654712Y3021289D1*
X2654184Y3020669D1*
X2653396Y3019094D1*
X2652609Y3016732D1*
Y3008858D1*
X2653396Y3006496D1*
X2654971Y3003346D1*
X2658121Y3000197D1*
X2660483Y2998622D1*
X2665207Y2997047D1*
X2668357Y2996260D1*
X2668866Y2995194D1*
X2668357Y2994685D1*
X2666782Y2993898D1*
X2660483Y2987598D1*
X2658121Y2984449D1*
X2657333Y2982874D1*
X2654184Y2978150D1*
X2653396Y2976575D1*
X2650247Y2971850D1*
X2649459Y2970276D1*
X2647885Y2967913D1*
Y2967126D1*
X2657333D1*
X2658908Y2969488D1*
X2659696Y2971063D1*
X2664420Y2978150D1*
X2665207Y2979724D1*
X2669932Y2986811D1*
Y2987598D1*
X2675444Y2993110D1*
X2678593Y2994685D1*
X2683843Y2995472D1*
X2689092D1*
X2694341Y2994685D1*
Y2967126D1*
X2702215D1*
Y3029331D1*
X2667570D1*
X2663633Y3028543D1*
X2661270Y3027756D1*
X2659696Y3026969D1*
X2654971Y3022244D1*
X2669144D1*
X2677543Y3023031D1*
X2685942D1*
X2694341Y3022244D1*
Y3002559D1*
X2686205Y3001772D1*
X2678068D1*
X2669932Y3002559D1*
X2666782Y3003346D1*
X2663633Y3004921D1*
X2662058Y3006496D1*
Y3007283D1*
X2660483Y3008858D1*
Y3015945D1*
X2661270Y3016732D1*
Y3017520D1*
X2664420Y3020669D1*
X2665995Y3021457D1*
X2669144Y3022244D1*
X2654971D1*
G37*
G36*
X2718751Y2995472D2*
X2717176Y2993898D1*
X2715601Y2990748D1*
X2714814Y2988386D1*
Y2980512D1*
X2715601Y2978150D1*
X2717176Y2975000D1*
X2721900Y2970276D1*
X2725050Y2968701D1*
X2727412Y2967913D1*
X2731349Y2967126D1*
X2761270D1*
Y3029331D1*
X2732924D1*
X2728987Y3028543D1*
X2724262Y3026181D1*
X2720325Y3022244D1*
X2732924D1*
X2740010Y3023031D1*
X2747097D1*
X2754184Y3022244D1*
Y3003346D1*
X2747097Y3002559D1*
X2740010D1*
X2732924Y3003346D1*
X2730562Y3004134D1*
X2727412Y3005709D1*
X2726478Y3006594D1*
X2726625Y3007283D1*
X2725837Y3008858D1*
X2725050Y3009646D1*
Y3015157D1*
X2725837Y3015945D1*
X2727412Y3019094D1*
X2729774Y3021457D1*
X2732924Y3022244D1*
X2720325D1*
X2717963Y3017520D1*
Y3009646D1*
X2718751Y3007283D1*
X2719538Y3005709D1*
X2724262Y3000984D1*
X2725837Y3000197D1*
X2725050Y2999409D1*
X2721900Y2997835D1*
X2719538Y2996260D1*
X2718751Y2995472D1*
X2732136D1*
X2739486Y2996260D1*
X2746835D1*
X2754184Y2995472D1*
Y2974213D1*
X2746572Y2973425D1*
X2738961D1*
X2731349Y2974213D1*
X2728199Y2975000D1*
X2726625Y2975787D1*
X2724262Y2978150D1*
Y2978937D1*
X2723475Y2980512D1*
X2722688Y2981299D1*
Y2988386D1*
X2723475Y2989173D1*
X2724262Y2990748D1*
Y2991535D1*
X2725837Y2993110D1*
X2728987Y2994685D1*
X2732136Y2995472D1*
X2718751D1*
G37*
G36*
X2539223Y1371850D2*
X2535286Y1371063D1*
X2532924Y1370276D1*
X2529774Y1368701D1*
X2527412Y1367126D1*
X2523475Y1363189D1*
X2521900Y1360827D1*
X2519538Y1356102D1*
Y1354528D1*
X2520325Y1353740D1*
X2524262Y1352953D1*
X2526625D1*
X2527412Y1353740D1*
X2528199Y1356102D1*
X2529774Y1358465D1*
Y1359252D1*
X2532136Y1361614D1*
X2533711Y1362402D1*
X2534499Y1363189D1*
X2536073Y1363976D1*
X2539223Y1364764D1*
X2542635Y1365551D1*
X2546047D1*
X2549459Y1364764D1*
X2554184Y1363189D1*
X2555759Y1362402D1*
X2557333Y1360827D1*
X2558908Y1360039D1*
X2559542Y1359023D1*
X2559696Y1358465D1*
X2562058Y1355315D1*
X2563633Y1350591D1*
X2564420Y1347441D1*
X2565207Y1346654D1*
Y1333268D1*
X2564420Y1332480D1*
X2563633Y1329331D1*
X2562058Y1324606D1*
X2560483Y1322244D1*
Y1321457D1*
X2558121Y1319094D1*
X2556546Y1318307D1*
X2555759Y1317520D1*
X2554184Y1316732D1*
X2549459Y1315157D1*
X2546310Y1314370D1*
X2543160D1*
X2536861Y1315945D1*
X2533711Y1317520D1*
X2528199Y1323031D1*
Y1323819D1*
X2527412Y1325394D1*
X2525837Y1330118D1*
X2524262D1*
X2521113Y1329331D1*
X2518751Y1328543D1*
X2517963Y1327756D1*
X2518751Y1325394D1*
X2521900Y1319094D1*
X2523475Y1316732D1*
X2526625Y1313583D1*
X2531349Y1310433D1*
X2536073Y1308858D1*
X2539223Y1308071D1*
X2549459D1*
X2553396Y1308858D1*
X2555759Y1309646D1*
X2560483Y1312008D1*
X2562845Y1313583D1*
X2565207Y1315945D1*
X2567570Y1319094D1*
X2570719Y1325394D1*
X2571507Y1327756D1*
X2572294Y1330906D1*
X2573081Y1334843D1*
Y1345866D1*
X2572294Y1349803D1*
X2571507Y1352953D1*
X2570719Y1354528D1*
X2569932Y1356890D1*
X2569144Y1358465D1*
X2567570Y1360827D1*
X2562058Y1366339D1*
X2559696Y1367913D1*
X2556546Y1369488D1*
X2551822Y1371063D1*
X2548672Y1371850D1*
X2539223D1*
G37*
G36*
X2591979Y1364764D2*
X2588829Y1361614D1*
X2587255Y1359252D1*
X2584105Y1352953D1*
X2582530Y1346654D1*
Y1333268D1*
X2584105Y1326969D1*
X2587255Y1320669D1*
X2588829Y1318307D1*
X2592766Y1314370D1*
X2597491Y1311220D1*
X2599066Y1310433D1*
X2603790Y1308858D1*
X2607727Y1308071D1*
X2616388D1*
X2620325Y1308858D1*
X2625050Y1310433D1*
X2626625Y1311220D1*
X2628987Y1312795D1*
X2632136Y1315157D1*
X2634499Y1317520D1*
X2636861Y1320669D1*
X2639223Y1325394D1*
X2640798Y1330118D1*
X2641585Y1333268D1*
Y1345866D1*
X2640798Y1349803D1*
X2640010Y1352953D1*
X2636861Y1359252D1*
X2635286Y1361614D1*
X2631349Y1365551D1*
X2628199Y1367913D1*
X2625050Y1369488D1*
X2620325Y1371063D1*
X2617176Y1371850D1*
X2607727D1*
X2603790Y1371063D1*
X2599066Y1369488D1*
X2597491Y1368701D1*
X2592766Y1365551D1*
X2591979Y1364764D1*
X2606940D1*
X2610352Y1365551D1*
X2613764D1*
X2617176Y1364764D1*
X2621900Y1363189D1*
X2623475Y1362402D1*
X2624262Y1361614D1*
X2625837Y1360827D1*
X2629774Y1356890D1*
Y1356102D1*
X2631349Y1353740D1*
X2632136Y1351378D1*
X2632924Y1348228D1*
X2633711Y1347441D1*
Y1332480D1*
X2632924Y1331693D1*
X2632136Y1328543D1*
X2629774Y1323819D1*
Y1323031D1*
X2625837Y1319094D1*
X2624262Y1318307D1*
X2623475Y1317520D1*
X2621900Y1316732D1*
X2617176Y1315157D1*
X2613764Y1314370D1*
X2610352D1*
X2606940Y1315157D1*
X2602215Y1316732D1*
X2600640Y1317520D1*
X2599853Y1318307D1*
X2598278Y1319094D1*
X2594341Y1323031D1*
Y1323819D1*
X2591979Y1328543D1*
X2591192Y1331693D1*
X2590404Y1332480D1*
Y1347441D1*
X2591192Y1348228D1*
X2592766Y1352953D1*
X2593554Y1354528D1*
X2595129Y1356890D1*
Y1357677D1*
X2598278Y1360827D1*
X2599853Y1361614D1*
X2600640Y1362402D1*
X2602215Y1363189D1*
X2606940Y1364764D1*
X2591979D1*
G37*
G36*
X2462058Y1371063D2*
Y1364764D1*
X2483318Y1363976D1*
Y1308858D1*
X2490404D1*
Y1363976D1*
X2511664Y1364764D1*
Y1371063D1*
X2462058D1*
G37*
G36*
X2647097D2*
Y1369488D1*
X2647885Y1367126D1*
X2648672Y1363976D1*
X2649459Y1361614D1*
X2650247Y1358465D1*
X2651034Y1356102D1*
X2651822Y1352953D1*
X2652609Y1350591D1*
X2653396Y1347441D1*
X2654971Y1342717D1*
X2655759Y1339567D1*
X2656546Y1337205D1*
X2657333Y1334055D1*
X2658121Y1331693D1*
X2658908Y1328543D1*
X2659696Y1326181D1*
X2660483Y1323031D1*
X2661270Y1320669D1*
X2662058Y1317520D1*
X2663633Y1312795D1*
X2664420Y1309646D1*
X2665207Y1308858D1*
X2669932D1*
Y1311220D1*
X2669144Y1313583D1*
X2668357Y1316732D1*
X2667570Y1319094D1*
X2666782Y1322244D1*
X2665995Y1324606D1*
X2665207Y1327756D1*
X2663633Y1332480D1*
X2662845Y1335630D1*
X2662058Y1337992D1*
X2661270Y1341142D1*
X2660483Y1343504D1*
X2659696Y1346654D1*
X2658908Y1349016D1*
X2658121Y1352165D1*
X2657333Y1354528D1*
X2656546Y1357677D1*
X2654971Y1362402D1*
X2654184Y1365551D1*
X2653396Y1367913D1*
X2652609Y1371063D1*
X2647097D1*
G37*
G36*
X2672294D2*
Y1370276D1*
X2673081Y1368701D1*
X2674656Y1363976D1*
X2675444Y1362402D1*
X2676231Y1360039D1*
X2677018Y1358465D1*
X2677806Y1356102D1*
X2678593Y1354528D1*
X2679381Y1352165D1*
X2680168Y1350591D1*
X2680955Y1348228D1*
X2681743Y1346654D1*
X2682530Y1344291D1*
X2683318Y1342717D1*
X2684105Y1340354D1*
X2684892Y1338780D1*
X2685680Y1336417D1*
X2686467Y1334843D1*
X2687255Y1332480D1*
X2688042Y1330906D1*
X2688829Y1328543D1*
X2689617Y1326969D1*
X2690404Y1324606D1*
X2691192Y1323031D1*
X2691979Y1320669D1*
X2692766Y1319094D1*
X2693554Y1316732D1*
X2694341Y1315157D1*
X2695129Y1312795D1*
X2695916Y1311220D1*
X2696703Y1308858D1*
X2704577D1*
X2706152Y1312008D1*
X2706940Y1314370D1*
X2707727Y1315945D1*
X2708514Y1318307D1*
X2709302Y1319882D1*
X2710877Y1324606D1*
X2711664Y1326181D1*
X2712451Y1328543D1*
X2713239Y1330118D1*
X2714026Y1332480D1*
X2714814Y1334055D1*
X2716388Y1338780D1*
X2717176Y1340354D1*
X2717963Y1342717D1*
X2718751Y1344291D1*
X2719538Y1346654D1*
X2720325Y1348228D1*
X2721900Y1352953D1*
X2722688Y1354528D1*
X2723475Y1356890D1*
X2724262Y1358465D1*
X2725050Y1360827D1*
X2725837Y1362402D1*
X2727412Y1367126D1*
X2728199Y1368701D1*
X2728987Y1371063D1*
X2721113D1*
X2720325Y1370276D1*
X2719538Y1368701D1*
X2717176Y1361614D1*
X2716388Y1360039D1*
X2713239Y1350591D1*
X2712451Y1349016D1*
X2710089Y1341929D1*
X2709302Y1340354D1*
X2706940Y1333268D1*
X2706152Y1331693D1*
X2701428Y1317520D1*
X2701228Y1316591D1*
X2700594Y1315872D1*
X2700187Y1316005D1*
X2699853Y1316732D1*
Y1318307D1*
X2697491Y1325394D1*
X2696703Y1326969D1*
X2695129Y1331693D1*
X2694341Y1333268D1*
X2693554Y1335630D1*
X2692766Y1337205D1*
X2691192Y1341929D1*
X2690404Y1343504D1*
X2688829Y1348228D1*
X2688042Y1349803D1*
X2687255Y1352165D1*
X2686467Y1353740D1*
X2684892Y1358465D1*
X2684105Y1360039D1*
X2682530Y1364764D1*
X2681743Y1366339D1*
X2680168Y1371063D1*
X2672294D1*
G37*
G36*
X2333711Y1371850D2*
X2330562Y1371063D1*
X2325837Y1369488D1*
X2324262Y1368701D1*
X2321900Y1367126D1*
X2319538Y1364764D1*
X2317963Y1362402D1*
X2317176Y1360827D1*
X2315601Y1356102D1*
Y1353740D1*
X2322688D1*
X2323475Y1355315D1*
X2324262Y1358465D1*
Y1359252D1*
X2327412Y1362402D1*
X2330562Y1363976D1*
X2332924Y1364764D1*
X2336861Y1365551D1*
X2340798D1*
X2344735Y1364764D1*
X2349459Y1363189D1*
X2352609Y1360039D1*
Y1359252D1*
X2353396Y1358465D1*
Y1352953D1*
X2352609Y1352165D1*
Y1351378D1*
X2351034Y1349803D1*
X2347885Y1348228D1*
X2343160Y1346654D1*
X2336861Y1345079D1*
X2332924Y1344291D1*
X2327412Y1342717D1*
X2325050Y1341929D1*
X2321900Y1340354D1*
X2319538Y1338780D1*
X2316388Y1335630D1*
X2314026Y1330906D1*
Y1322244D1*
X2314814Y1319882D1*
X2315601Y1318307D1*
X2317176Y1315945D1*
X2320325Y1312795D1*
X2322688Y1311220D1*
X2325837Y1309646D1*
X2328199Y1308858D1*
X2332136Y1308071D1*
X2342373D1*
X2346310Y1308858D1*
X2351034Y1310433D1*
X2352609Y1311220D1*
X2354971Y1312795D1*
X2358908Y1316732D1*
X2360483Y1319094D1*
X2362058Y1322244D1*
X2362845Y1324606D1*
X2363633Y1330118D1*
X2356546D1*
X2355759Y1328543D1*
X2354971Y1325394D1*
X2353396Y1322244D1*
Y1321457D1*
X2350247Y1318307D1*
X2345522Y1315945D1*
X2342373Y1315157D1*
X2338961Y1314370D1*
X2335549D1*
X2332136Y1315157D1*
X2328987Y1315945D1*
X2325837Y1317520D1*
X2321900Y1321457D1*
Y1322244D1*
X2321113Y1323031D1*
Y1328543D1*
X2321900Y1329331D1*
Y1330118D1*
X2324262Y1332480D1*
X2327412Y1334055D1*
X2332136Y1335630D1*
X2344735Y1338780D1*
X2351822Y1341142D1*
X2356546Y1344291D1*
X2357333Y1345079D1*
X2358908Y1347441D1*
X2360483Y1350591D1*
X2361270Y1354528D1*
Y1355315D1*
X2360483Y1359252D1*
X2359696Y1361614D1*
X2358908Y1363189D1*
X2353396Y1368701D1*
X2351822Y1369488D1*
X2347097Y1371063D1*
X2343948Y1371850D1*
X2333711D1*
G37*
G36*
X2060483Y1371063D2*
Y1308858D1*
X2067570D1*
Y1360827D1*
X2068158Y1361332D1*
X2068556Y1361266D1*
X2069004Y1360615D1*
X2069144Y1360039D1*
X2078593Y1331693D1*
X2079381Y1330118D1*
X2086467Y1308858D1*
X2093554D1*
X2095129Y1312008D1*
X2108514Y1352165D1*
X2109302Y1353740D1*
X2110877Y1358465D1*
Y1360039D1*
X2111465Y1360545D1*
X2111873Y1360499D1*
X2112451Y1360039D1*
Y1308858D1*
X2119538D1*
Y1371063D1*
X2107727D1*
X2090404Y1319094D1*
X2090204Y1318166D1*
X2089571Y1317447D1*
X2089163Y1317580D1*
X2088829Y1318307D1*
Y1319882D1*
X2076231Y1357677D1*
X2075444Y1359252D1*
X2071507Y1371063D1*
X2060483D1*
G37*
G36*
X2134499D2*
Y1326969D1*
X2135286Y1323031D1*
X2136073Y1320669D1*
X2137648Y1317520D1*
X2139223Y1315157D1*
X2140798Y1313583D1*
X2143948Y1311220D1*
X2147097Y1309646D1*
X2149459Y1308858D1*
X2153396Y1308071D1*
X2163633D1*
X2167570Y1308858D1*
X2172294Y1310433D1*
X2173869Y1311220D1*
X2177018Y1313583D1*
X2177806Y1314370D1*
X2179381Y1316732D1*
X2181743Y1321457D1*
X2182530Y1324606D1*
X2183318Y1330118D1*
Y1371063D1*
X2175444D1*
X2174656Y1326181D1*
X2173869Y1323819D1*
Y1322244D1*
X2169932Y1318307D1*
X2166782Y1316732D1*
X2164420Y1315945D1*
X2160745Y1315157D1*
X2157071D1*
X2153396Y1315945D1*
X2150247Y1316732D1*
X2147097Y1318307D1*
X2144735Y1320669D1*
Y1321457D1*
X2143948Y1323031D1*
X2143160Y1325394D1*
X2142373Y1330906D1*
X2141585Y1371063D1*
X2134499D1*
G37*
G36*
X2199853Y1363976D2*
X2199594Y1363021D1*
X2199066Y1362402D1*
X2198278Y1360827D1*
X2197491Y1358465D1*
Y1350591D1*
X2198278Y1348228D1*
X2199853Y1345079D1*
X2203003Y1341929D1*
X2205365Y1340354D1*
X2210089Y1338780D1*
X2213239Y1337992D1*
X2213748Y1336926D1*
X2213239Y1336417D1*
X2211664Y1335630D1*
X2205365Y1329331D1*
X2203003Y1326181D1*
X2202215Y1324606D1*
X2199066Y1319882D1*
X2198278Y1318307D1*
X2195129Y1313583D1*
X2194341Y1312008D1*
X2192766Y1309646D1*
Y1308858D1*
X2202215D1*
X2203790Y1311220D1*
X2204577Y1312795D1*
X2209302Y1319882D1*
X2210089Y1321457D1*
X2214814Y1328543D1*
Y1329331D1*
X2220325Y1334843D1*
X2223475Y1336417D1*
X2228724Y1337205D1*
X2233974D1*
X2239223Y1336417D1*
Y1308858D1*
X2247097D1*
Y1371063D1*
X2212451D1*
X2208514Y1370276D1*
X2206152Y1369488D1*
X2204577Y1368701D1*
X2199853Y1363976D1*
X2214026D1*
X2222425Y1364764D1*
X2230824D1*
X2239223Y1363976D1*
Y1344291D1*
X2231087Y1343504D1*
X2222950D1*
X2214814Y1344291D1*
X2211664Y1345079D1*
X2208514Y1346654D1*
X2206940Y1348228D1*
Y1349016D1*
X2205365Y1350591D1*
Y1357677D1*
X2206152Y1358465D1*
Y1359252D1*
X2209302Y1362402D1*
X2210877Y1363189D1*
X2214026Y1363976D1*
X2199853D1*
G37*
G36*
X2256546Y1371063D2*
Y1364764D1*
X2277806Y1363976D1*
Y1308858D1*
X2284892D1*
Y1363976D1*
X2306152Y1364764D1*
Y1371063D1*
X2256546D1*
G37*
G36*
X637648Y3262402D2*
Y3256102D1*
X658908Y3255315D1*
Y3200197D1*
X665995D1*
Y3255315D1*
X687255Y3256102D1*
Y3262402D1*
X637648D1*
G37*
G36*
X691979D2*
Y3256102D1*
X713239Y3255315D1*
Y3200197D1*
X720325D1*
Y3255315D1*
X741585Y3256102D1*
Y3262402D1*
X691979D1*
G37*
G36*
X766782Y3254528D2*
Y3252953D1*
X765995Y3252165D1*
X764420Y3249016D1*
X763633Y3246654D1*
X762845Y3245079D1*
X762058Y3242717D1*
X761270Y3241142D1*
X760483Y3238780D1*
X758908Y3235630D1*
X758121Y3233268D1*
X757333Y3231693D1*
X756546Y3229331D1*
X754971Y3226181D1*
X754184Y3223819D1*
X753396Y3222244D1*
X752609Y3219882D1*
X751034Y3216732D1*
X750247Y3214370D1*
X749459Y3212795D1*
X748672Y3210433D1*
X747885Y3208858D1*
X747097Y3206496D1*
X745522Y3203346D1*
X744735Y3200984D1*
Y3200197D1*
X753396D1*
X754184Y3202559D1*
X754971Y3204134D1*
X755759Y3206496D1*
X756546Y3208071D1*
X757333Y3210433D1*
X758121Y3212008D1*
X759696Y3216732D1*
X760483Y3218307D1*
Y3219094D1*
X769669Y3219882D1*
X778856D1*
X788042Y3219094D1*
Y3217520D1*
X788829Y3215157D1*
X789617Y3213583D1*
X791979Y3206496D1*
X792766Y3204921D1*
X794341Y3200197D1*
X803003D1*
X802215Y3201772D1*
X801428Y3204134D1*
X800640Y3205709D1*
X799853Y3208071D1*
X799066Y3209646D1*
X797491Y3214370D1*
X796703Y3215945D1*
X795916Y3218307D1*
X795129Y3219882D1*
X794341Y3222244D1*
X793554Y3223819D1*
X791979Y3228543D1*
X791192Y3230118D1*
X790404Y3232480D1*
X789617Y3234055D1*
X788829Y3236417D1*
X788042Y3237992D1*
X786467Y3242717D1*
X785680Y3244291D1*
X784892Y3246654D1*
X784105Y3248228D1*
X783318Y3250591D1*
X782530Y3252165D1*
X780955Y3256890D1*
X780168Y3258465D1*
X779381Y3260827D1*
X778593Y3262402D1*
X770719D1*
X769932Y3261614D1*
X768357Y3258465D1*
X767570Y3256102D1*
X766782Y3254528D1*
X773869D1*
X774457Y3255033D1*
X774865Y3254987D1*
X775444Y3254528D1*
Y3252953D1*
X776231Y3249803D1*
X778593Y3242717D1*
X779381Y3241142D1*
X780955Y3236417D1*
X781743Y3234843D1*
X783318Y3230118D1*
X784105Y3228543D1*
X784739Y3227527D1*
X784892Y3226969D1*
X777806Y3226181D1*
X770719D1*
X763633Y3226969D1*
X763786Y3227527D1*
X764420Y3228543D1*
X765207Y3230906D1*
X765995Y3232480D1*
X766782Y3234843D1*
X767570Y3236417D1*
X769144Y3241142D1*
X769932Y3242717D1*
X771507Y3247441D1*
X772294Y3249016D1*
X773869Y3253740D1*
Y3254528D1*
X766782D1*
G37*
G36*
X858908Y3262402D2*
Y3200197D1*
X865995D1*
Y3252165D1*
X866583Y3252671D1*
X866981Y3252605D1*
X867429Y3251954D1*
X867570Y3251378D1*
X877018Y3223031D1*
X877806Y3221457D1*
X884892Y3200197D1*
X891979D1*
X893554Y3203346D1*
X906940Y3243504D1*
X907727Y3245079D1*
X909302Y3249803D1*
Y3251378D1*
X909890Y3251884D1*
X910298Y3251838D1*
X910877Y3251378D1*
Y3200197D1*
X917963D1*
Y3262402D1*
X906152D1*
X888829Y3210433D1*
X888629Y3209504D1*
X887996Y3208786D1*
X887588Y3208918D1*
X887255Y3209646D1*
Y3211220D1*
X874656Y3249016D1*
X873869Y3250591D1*
X869932Y3262402D1*
X858908D1*
G37*
G36*
X929774D2*
Y3256102D1*
X963633Y3255315D1*
Y3235630D1*
X934499Y3234843D1*
Y3228543D1*
X963633Y3227756D1*
Y3200197D1*
X971507D1*
Y3262402D1*
X929774D1*
G37*
G36*
X640798Y4056890D2*
X636861Y4056102D1*
X634499Y4055315D1*
X631349Y4053740D1*
X628987Y4052165D1*
X625050Y4048228D1*
X623475Y4045866D1*
X621113Y4041142D1*
Y4039567D1*
X621900Y4038780D1*
X625837Y4037992D1*
X628199D1*
X628987Y4038780D1*
X629774Y4041142D1*
X631349Y4043504D1*
Y4044291D1*
X633711Y4046654D1*
X635286Y4047441D1*
X636073Y4048228D1*
X637648Y4049016D1*
X640798Y4049803D1*
X644210Y4050591D1*
X647622D1*
X651034Y4049803D1*
X655759Y4048228D1*
X657333Y4047441D1*
X658908Y4045866D1*
X660483Y4045079D1*
X661117Y4044062D1*
X661270Y4043504D1*
X663633Y4040354D1*
X665207Y4035630D1*
X665995Y4032480D1*
X666782Y4031693D1*
Y4018307D1*
X665995Y4017520D1*
X665207Y4014370D1*
X663633Y4009646D1*
X662058Y4007283D1*
Y4006496D1*
X659696Y4004134D1*
X658121Y4003346D1*
X657333Y4002559D1*
X655759Y4001772D1*
X651034Y4000197D1*
X647885Y3999409D1*
X644735D1*
X638436Y4000984D1*
X635286Y4002559D1*
X629774Y4008071D1*
Y4008858D1*
X628987Y4010433D1*
X627412Y4015157D1*
X625837D1*
X622688Y4014370D1*
X620325Y4013583D1*
X619538Y4012795D1*
X620325Y4010433D1*
X623475Y4004134D1*
X625050Y4001772D1*
X628199Y3998622D1*
X632924Y3995472D1*
X637648Y3993898D1*
X640798Y3993110D1*
X651034D1*
X654971Y3993898D1*
X657333Y3994685D1*
X662058Y3997047D1*
X664420Y3998622D1*
X666782Y4000984D1*
X669144Y4004134D1*
X672294Y4010433D1*
X673081Y4012795D1*
X673869Y4015945D1*
X674656Y4019882D1*
Y4030906D1*
X673869Y4034843D1*
X673081Y4037992D1*
X672294Y4039567D1*
X671507Y4041929D1*
X670719Y4043504D1*
X669144Y4045866D1*
X663633Y4051378D1*
X661270Y4052953D1*
X658121Y4054528D1*
X653396Y4056102D1*
X650247Y4056890D1*
X640798D1*
G37*
G36*
X880955Y4049803D2*
X877018Y4045866D1*
X875444Y4043504D1*
X873081Y4038780D1*
X872294Y4036417D1*
X871507Y4033268D1*
X870719Y4026969D1*
Y4023031D1*
X871507Y4016732D1*
X872294Y4013583D1*
X873081Y4011220D1*
X875444Y4006496D1*
X877018Y4004134D1*
X880168Y4000984D1*
Y4000197D1*
X878593Y3999409D1*
X869932Y3994685D1*
Y3993898D1*
X870719Y3992323D1*
X871507Y3989961D1*
X872294Y3989173D1*
X874656Y3989961D1*
X880955Y3993110D1*
X883318Y3994685D1*
X884892Y3996260D1*
X885626Y3995998D1*
X886467Y3995472D1*
X888829Y3994685D1*
X891979Y3993898D1*
X895916Y3993110D1*
X905365D1*
X909302Y3993898D1*
X911664Y3994685D1*
X916388Y3997047D1*
X918751Y3998622D1*
X924262Y4004134D1*
X925837Y4006496D1*
X928199Y4011220D1*
X929774Y4015945D1*
X930562Y4020669D1*
Y4029331D1*
X929774Y4034055D1*
X928199Y4038780D1*
X925050Y4045079D1*
X917963Y4052165D1*
X911664Y4055315D1*
X909302Y4056102D1*
X905365Y4056890D1*
X895916D1*
X889617Y4055315D1*
X884892Y4052953D1*
X882530Y4051378D1*
X880955Y4049803D1*
X895916D1*
X899066Y4050591D1*
X902215D1*
X908514Y4049016D1*
X910877Y4048228D1*
X911664Y4047441D1*
X914026Y4045866D1*
X915601Y4045079D1*
X917963Y4042717D1*
Y4041929D1*
X919538Y4039567D1*
X920325Y4037992D1*
X921113Y4035630D1*
X921900Y4031693D1*
X922688Y4030906D1*
Y4019094D1*
X921900Y4018307D1*
X921113Y4015157D1*
X920325Y4012795D1*
X918751Y4009646D1*
X917176Y4007283D1*
X916917Y4006328D1*
X916388Y4005709D1*
X914814Y4004921D1*
X913239Y4003346D1*
X908514Y4000984D1*
X902215Y3999409D1*
X899066D1*
X892766Y4000984D1*
X891979Y4001772D1*
X896703Y4004134D1*
X899066Y4004921D1*
X899853Y4005709D1*
Y4006496D1*
X899066Y4008858D1*
X898278Y4010433D1*
X896703D1*
X894341Y4009646D1*
X889617Y4007283D1*
X887255Y4004921D1*
X886467D1*
X882530Y4008858D1*
Y4009646D1*
X880955Y4012795D1*
X880168Y4015945D1*
X879381Y4019882D1*
X878593Y4020669D1*
Y4029331D1*
X879381Y4030118D1*
X880168Y4034055D1*
X881743Y4038780D1*
X882530Y4040354D1*
Y4041142D1*
X888042Y4046654D1*
X892766Y4049016D1*
X895916Y4049803D1*
X880955D1*
G37*
G36*
X559696Y4056102D2*
Y4055315D1*
X569144Y4041142D1*
X571507Y4037992D1*
X580955Y4023819D1*
X583318Y4020669D1*
X584105Y3993898D1*
X591192D1*
Y4020669D1*
X592766Y4022244D1*
X610089Y4048228D1*
X610877Y4049803D1*
X614026Y4054528D1*
X614814Y4056102D1*
X605365D1*
X602215Y4051378D1*
X601428Y4049803D1*
X596703Y4042717D1*
X595916Y4041142D1*
X592766Y4036417D1*
X591979Y4034843D1*
X590404Y4032480D1*
X589617Y4030906D1*
X588042Y4028543D1*
X587755Y4027575D1*
X586917Y4026904D1*
X586205Y4027029D1*
X585417Y4027950D1*
X585680Y4028543D1*
X584105Y4031693D1*
X580955Y4036417D1*
X580168Y4037992D1*
X573869Y4047441D1*
X573081Y4049016D1*
X568357Y4056102D1*
X559696D1*
G37*
G36*
X687255D2*
Y3993898D1*
X695129D1*
X695916Y3994685D1*
X716388Y4025394D1*
X718751Y4028543D1*
X726625Y4040354D1*
X727021Y4041137D1*
X727448Y4041864D1*
X728007Y4042422D1*
X728409Y4042385D1*
X728987Y4041929D1*
Y3993898D1*
X736073D1*
Y4056102D1*
X728199D1*
X727412Y4055315D1*
X721113Y4045866D1*
X718751Y4042717D1*
X696703Y4009646D1*
X696306Y4008856D1*
X695849Y4008034D1*
X695080Y4007214D1*
X694675Y4007343D1*
X694341Y4008071D1*
Y4056102D1*
X687255D1*
G37*
G36*
X750247D2*
Y4049803D1*
X787255Y4049016D1*
Y4030118D1*
X752609Y4029331D1*
Y4023031D1*
X787255Y4022244D1*
Y4000984D1*
X748672Y4000197D1*
Y3993898D1*
X795129D1*
Y4056102D1*
X750247D1*
G37*
G36*
X810089D2*
Y4012008D1*
X810877Y4008071D1*
X811664Y4005709D1*
X813239Y4002559D1*
X814814Y4000197D1*
X816388Y3998622D1*
X819538Y3996260D1*
X822688Y3994685D1*
X825050Y3993898D1*
X828987Y3993110D1*
X839223D1*
X843160Y3993898D1*
X847885Y3995472D1*
X849459Y3996260D1*
X852609Y3998622D1*
X853396Y3999409D1*
X854971Y4001772D1*
X857333Y4006496D1*
X858121Y4009646D1*
X858908Y4015157D1*
Y4056102D1*
X851034D1*
X850247Y4011220D1*
X849459Y4008858D1*
Y4007283D1*
X845522Y4003346D1*
X842373Y4001772D1*
X840010Y4000984D1*
X836336Y4000197D1*
X832661D1*
X828987Y4000984D1*
X825837Y4001772D1*
X822688Y4003346D1*
X820325Y4005709D1*
Y4006496D1*
X819538Y4008071D1*
X818751Y4010433D1*
X817963Y4015945D1*
X817176Y4056102D1*
X810089D1*
G37*
G36*
X941585D2*
Y4049803D1*
X978593Y4049016D1*
Y4030118D1*
X943948Y4029331D1*
Y4023031D1*
X978593Y4022244D1*
Y4000984D1*
X940010Y4000197D1*
Y3993898D1*
X986467D1*
Y4056102D1*
X941585D1*
G37*
G36*
X1003003Y4049016D2*
X1002744Y4048060D1*
X1002215Y4047441D1*
X1001428Y4045866D1*
X1000640Y4043504D1*
Y4035630D1*
X1001428Y4033268D1*
X1003003Y4030118D1*
X1006152Y4026969D1*
X1008514Y4025394D1*
X1013239Y4023819D1*
X1016388Y4023031D1*
X1016897Y4021966D1*
X1016388Y4021457D1*
X1014814Y4020669D1*
X1008514Y4014370D1*
X1006152Y4011220D1*
X1005365Y4009646D1*
X1002215Y4004921D1*
X1001428Y4003346D1*
X998278Y3998622D1*
X997491Y3997047D1*
X995916Y3994685D1*
Y3993898D1*
X1005365D1*
X1006940Y3996260D1*
X1007727Y3997835D1*
X1012451Y4004921D1*
X1013239Y4006496D1*
X1017963Y4013583D1*
Y4014370D1*
X1023475Y4019882D1*
X1026625Y4021457D1*
X1031874Y4022244D1*
X1037123D1*
X1042373Y4021457D1*
Y3993898D1*
X1050247D1*
Y4056102D1*
X1015601D1*
X1011664Y4055315D1*
X1009302Y4054528D1*
X1007727Y4053740D1*
X1003003Y4049016D1*
X1017176D1*
X1025575Y4049803D1*
X1033974D1*
X1042373Y4049016D1*
Y4029331D1*
X1034236Y4028543D1*
X1026100D1*
X1017963Y4029331D1*
X1014814Y4030118D1*
X1011664Y4031693D1*
X1010089Y4033268D1*
Y4034055D1*
X1008514Y4035630D1*
Y4042717D1*
X1009302Y4043504D1*
Y4044291D1*
X1012451Y4047441D1*
X1014026Y4048228D1*
X1017176Y4049016D1*
X1003003D1*
G37*
G36*
X1062058Y4056102D2*
Y4049803D1*
X1095916Y4049016D1*
Y4029331D1*
X1066782Y4028543D1*
Y4022244D1*
X1095916Y4021457D1*
Y3993898D1*
X1103790D1*
Y4056102D1*
X1062058D1*
G37*
G36*
X884892Y1371063D2*
Y1308858D1*
X892766D1*
X893554Y1309646D1*
X914026Y1340354D1*
X916388Y1343504D1*
X924262Y1355315D1*
X924659Y1356097D1*
X925086Y1356824D1*
X925645Y1357383D1*
X926047Y1357346D1*
X926625Y1356890D1*
Y1308858D1*
X933711D1*
Y1371063D1*
X925837D1*
X925050Y1370276D1*
X918751Y1360827D1*
X916388Y1357677D1*
X894341Y1324606D1*
X893944Y1323817D1*
X893487Y1322995D1*
X892718Y1322174D1*
X892312Y1322304D1*
X891979Y1323031D1*
Y1371063D1*
X884892D1*
G37*
G36*
X947885D2*
Y1364764D1*
X984892Y1363976D1*
Y1345079D1*
X950247Y1344291D1*
Y1337992D1*
X984892Y1337205D1*
Y1315945D1*
X946310Y1315157D1*
Y1308858D1*
X992766D1*
Y1371063D1*
X947885D1*
G37*
G36*
X1001428D2*
Y1370276D1*
X1002215Y1368701D1*
X1003790Y1363976D1*
X1004577Y1362402D1*
X1005365Y1360039D1*
X1006152Y1358465D1*
X1006940Y1356102D1*
X1007727Y1354528D1*
X1008514Y1352165D1*
X1009302Y1350591D1*
X1010089Y1348228D1*
X1010877Y1346654D1*
X1011664Y1344291D1*
X1012451Y1342717D1*
X1013239Y1340354D1*
X1014026Y1338780D1*
X1014814Y1336417D1*
X1015601Y1334843D1*
X1016388Y1332480D1*
X1017176Y1330906D1*
X1017963Y1328543D1*
X1018751Y1326969D1*
X1019538Y1324606D1*
X1020325Y1323031D1*
X1021113Y1320669D1*
X1021900Y1319094D1*
X1022688Y1316732D1*
X1023475Y1315157D1*
X1024262Y1312795D1*
X1025050Y1311220D1*
X1025837Y1308858D1*
X1033711D1*
X1035286Y1312008D1*
X1036073Y1314370D1*
X1036861Y1315945D1*
X1037648Y1318307D1*
X1038436Y1319882D1*
X1040010Y1324606D1*
X1040798Y1326181D1*
X1041585Y1328543D1*
X1042373Y1330118D1*
X1043160Y1332480D1*
X1043948Y1334055D1*
X1045522Y1338780D1*
X1046310Y1340354D1*
X1047097Y1342717D1*
X1047885Y1344291D1*
X1048672Y1346654D1*
X1049459Y1348228D1*
X1051034Y1352953D1*
X1051822Y1354528D1*
X1052609Y1356890D1*
X1053396Y1358465D1*
X1054184Y1360827D1*
X1054971Y1362402D1*
X1056546Y1367126D1*
X1057333Y1368701D1*
X1058121Y1371063D1*
X1050247D1*
X1049459Y1370276D1*
X1048672Y1368701D1*
X1046310Y1361614D1*
X1045522Y1360039D1*
X1042373Y1350591D1*
X1041585Y1349016D1*
X1039223Y1341929D1*
X1038436Y1340354D1*
X1036073Y1333268D1*
X1035286Y1331693D1*
X1030562Y1317520D1*
X1030362Y1316591D1*
X1029728Y1315872D1*
X1029321Y1316005D1*
X1028987Y1316732D1*
Y1318307D1*
X1026625Y1325394D1*
X1025837Y1326969D1*
X1024262Y1331693D1*
X1023475Y1333268D1*
X1022688Y1335630D1*
X1021900Y1337205D1*
X1020325Y1341929D1*
X1019538Y1343504D1*
X1017963Y1348228D1*
X1017176Y1349803D1*
X1016388Y1352165D1*
X1015601Y1353740D1*
X1014026Y1358465D1*
X1013239Y1360039D1*
X1011664Y1364764D1*
X1010877Y1366339D1*
X1009302Y1371063D1*
X1001428D1*
G37*
G36*
X1065995D2*
Y1364764D1*
X1103003Y1363976D1*
Y1345079D1*
X1068357Y1344291D1*
Y1337992D1*
X1103003Y1337205D1*
Y1315945D1*
X1064420Y1315157D1*
Y1308858D1*
X1110877D1*
Y1371063D1*
X1065995D1*
G37*
G36*
X632924Y1364764D2*
X629774Y1361614D1*
X628199Y1359252D1*
X625050Y1352953D1*
X623475Y1346654D1*
Y1333268D1*
X625050Y1326969D1*
X628199Y1320669D1*
X629774Y1318307D1*
X633711Y1314370D1*
X638436Y1311220D1*
X640010Y1310433D1*
X644735Y1308858D1*
X648672Y1308071D1*
X657333D1*
X661270Y1308858D1*
X665995Y1310433D1*
X667570Y1311220D1*
X669932Y1312795D1*
X673081Y1315157D1*
X675444Y1317520D1*
X677806Y1320669D1*
X680168Y1325394D1*
X681743Y1330118D1*
X682530Y1333268D1*
Y1345866D1*
X681743Y1349803D1*
X680955Y1352953D1*
X677806Y1359252D1*
X676231Y1361614D1*
X672294Y1365551D1*
X669144Y1367913D1*
X665995Y1369488D1*
X661270Y1371063D1*
X658121Y1371850D1*
X648672D1*
X644735Y1371063D1*
X640010Y1369488D1*
X638436Y1368701D1*
X633711Y1365551D1*
X632924Y1364764D1*
X647885D1*
X651297Y1365551D1*
X654709D1*
X658121Y1364764D1*
X662845Y1363189D1*
X664420Y1362402D1*
X665207Y1361614D1*
X666782Y1360827D1*
X670719Y1356890D1*
Y1356102D1*
X672294Y1353740D1*
X673081Y1351378D1*
X673869Y1348228D1*
X674656Y1347441D1*
Y1332480D1*
X673869Y1331693D1*
X673081Y1328543D1*
X670719Y1323819D1*
Y1323031D1*
X666782Y1319094D1*
X665207Y1318307D1*
X664420Y1317520D1*
X662845Y1316732D1*
X658121Y1315157D1*
X654709Y1314370D1*
X651297D1*
X647885Y1315157D1*
X643160Y1316732D1*
X641585Y1317520D1*
X640798Y1318307D1*
X639223Y1319094D1*
X635286Y1323031D1*
Y1323819D1*
X632924Y1328543D1*
X632136Y1331693D1*
X631349Y1332480D1*
Y1347441D1*
X632136Y1348228D1*
X633711Y1352953D1*
X634499Y1354528D1*
X636073Y1356890D1*
Y1357677D1*
X639223Y1360827D1*
X640798Y1361614D1*
X641585Y1362402D1*
X643160Y1363189D1*
X647885Y1364764D1*
X632924D1*
G37*
G36*
X504577Y1363976D2*
X502215Y1361614D1*
X500640Y1359252D1*
X499066Y1356102D1*
X497491Y1351378D1*
X496703Y1347441D1*
Y1333268D1*
X497491Y1329331D1*
X498278Y1326181D1*
X502215Y1318307D1*
X506940Y1313583D1*
X509302Y1312008D1*
X510877Y1311220D1*
X515601Y1309646D1*
X519538Y1308858D1*
X547885D1*
Y1371063D1*
X518751D1*
X514814Y1370276D1*
X512451Y1369488D1*
X507727Y1367126D1*
X504577Y1363976D1*
X518751D1*
X525837Y1364764D1*
X532924D1*
X540010Y1363976D1*
Y1315945D1*
X533186Y1315157D1*
X526362D1*
X519538Y1315945D1*
X516388Y1316732D1*
X514026Y1317520D1*
X512451Y1318307D1*
X508514Y1322244D1*
Y1323031D1*
X506152Y1327756D1*
X505365Y1331693D1*
X504577Y1332480D1*
Y1348228D1*
X505365Y1349016D1*
X506152Y1352165D1*
X506940Y1354528D1*
X508514Y1356890D1*
Y1357677D1*
X512451Y1361614D1*
X515601Y1363189D1*
X518751Y1363976D1*
X504577D1*
G37*
G36*
X568357D2*
X565995Y1361614D1*
X564420Y1359252D1*
X562845Y1356102D1*
X561270Y1351378D1*
X560483Y1347441D1*
Y1333268D1*
X561270Y1329331D1*
X562058Y1326181D1*
X565995Y1318307D1*
X570719Y1313583D1*
X573081Y1312008D1*
X574656Y1311220D1*
X579381Y1309646D1*
X583318Y1308858D1*
X611664D1*
Y1371063D1*
X582530D1*
X578593Y1370276D1*
X576231Y1369488D1*
X571507Y1367126D1*
X568357Y1363976D1*
X582530D1*
X589617Y1364764D1*
X596703D1*
X603790Y1363976D1*
Y1315945D1*
X596966Y1315157D1*
X590142D1*
X583318Y1315945D1*
X580168Y1316732D1*
X577806Y1317520D1*
X576231Y1318307D1*
X572294Y1322244D1*
Y1323031D1*
X569932Y1327756D1*
X569144Y1331693D1*
X568357Y1332480D1*
Y1348228D1*
X569144Y1349016D1*
X569932Y1352165D1*
X570719Y1354528D1*
X572294Y1356890D1*
Y1357677D1*
X576231Y1361614D1*
X579381Y1363189D1*
X582530Y1363976D1*
X568357D1*
G37*
G36*
X2076231Y3022244D2*
X2074656Y3020669D1*
X2073869Y3019094D1*
X2073081Y3016732D1*
Y3006496D1*
X2073869Y3004134D1*
X2075444Y3000984D1*
X2080168Y2996260D1*
X2083318Y2994685D1*
X2085680Y2993898D1*
X2090404Y2993110D1*
X2112451Y2992323D1*
Y2967126D1*
X2120325D1*
Y3029331D1*
X2088829D1*
X2084892Y3028543D1*
X2082530Y3027756D1*
X2080955Y3026969D1*
X2078593Y3025394D1*
X2076231Y3023031D1*
Y3022244D1*
X2088829D1*
X2096703Y3023031D1*
X2104577D1*
X2112451Y3022244D1*
Y3000197D1*
X2105102Y2999409D1*
X2097753D1*
X2090404Y3000197D1*
X2087255Y3000984D1*
X2084105Y3002559D1*
X2082530Y3004134D1*
Y3004921D1*
X2081743Y3006496D1*
X2080955Y3009646D1*
X2080168Y3010433D1*
Y3012008D1*
X2080955Y3012795D1*
X2081743Y3016732D1*
Y3017520D1*
X2084892Y3020669D1*
X2086467Y3021457D1*
X2088829Y3022244D1*
X2076231D1*
G37*
G36*
X2134499Y3029331D2*
Y2967126D1*
X2141585D1*
Y3019094D1*
X2142173Y3019600D1*
X2142572Y3019534D1*
X2143020Y3018883D1*
X2143160Y3018307D1*
X2152609Y2989961D1*
X2153396Y2988386D1*
X2160483Y2967126D1*
X2167570D1*
X2169144Y2970276D1*
X2182530Y3010433D1*
X2183318Y3012008D1*
X2184892Y3016732D1*
Y3018307D1*
X2185480Y3018813D1*
X2185888Y3018767D1*
X2186467Y3018307D1*
Y2967126D1*
X2193554D1*
Y3029331D1*
X2181743D1*
X2164420Y2977362D1*
X2164220Y2976433D1*
X2163587Y2975715D1*
X2163179Y2975847D1*
X2162845Y2976575D1*
Y2978150D1*
X2150247Y3015945D1*
X2149459Y3017520D1*
X2145522Y3029331D1*
X2134499D1*
G37*
G36*
X2223475Y3021457D2*
Y3019882D1*
X2222688Y3019094D1*
X2221113Y3015945D1*
X2220325Y3013583D1*
X2219538Y3012008D1*
X2218751Y3009646D1*
X2217963Y3008071D1*
X2217176Y3005709D1*
X2215601Y3002559D1*
X2214814Y3000197D1*
X2214026Y2998622D1*
X2213239Y2996260D1*
X2211664Y2993110D1*
X2210877Y2990748D1*
X2210089Y2989173D1*
X2209302Y2986811D1*
X2207727Y2983661D1*
X2206940Y2981299D1*
X2206152Y2979724D1*
X2205365Y2977362D1*
X2204577Y2975787D1*
X2203790Y2973425D1*
X2202215Y2970276D1*
X2201428Y2967913D1*
Y2967126D1*
X2210089D1*
X2210877Y2969488D1*
X2211664Y2971063D1*
X2212451Y2973425D1*
X2213239Y2975000D1*
X2214026Y2977362D1*
X2214814Y2978937D1*
X2216388Y2983661D1*
X2217176Y2985236D1*
Y2986024D1*
X2226362Y2986811D1*
X2235549D1*
X2244735Y2986024D1*
Y2984449D1*
X2245522Y2982087D1*
X2246310Y2980512D1*
X2248672Y2973425D1*
X2249459Y2971850D1*
X2251034Y2967126D1*
X2259696D1*
X2258908Y2968701D1*
X2258121Y2971063D1*
X2257333Y2972638D1*
X2256546Y2975000D1*
X2255759Y2976575D1*
X2254184Y2981299D1*
X2253396Y2982874D1*
X2252609Y2985236D1*
X2251822Y2986811D1*
X2251034Y2989173D1*
X2250247Y2990748D1*
X2248672Y2995472D1*
X2247885Y2997047D1*
X2247097Y2999409D1*
X2246310Y3000984D1*
X2245522Y3003346D1*
X2244735Y3004921D1*
X2243160Y3009646D1*
X2242373Y3011220D1*
X2241585Y3013583D1*
X2240798Y3015157D1*
X2240010Y3017520D1*
X2239223Y3019094D1*
X2237648Y3023819D1*
X2236861Y3025394D1*
X2236073Y3027756D1*
X2235286Y3029331D1*
X2227412D1*
X2226625Y3028543D1*
X2225050Y3025394D1*
X2224262Y3023031D1*
X2223475Y3021457D1*
X2230562D1*
X2231150Y3021962D1*
X2231558Y3021916D1*
X2232136Y3021457D1*
Y3019882D1*
X2232924Y3016732D1*
X2235286Y3009646D1*
X2236073Y3008071D1*
X2237648Y3003346D1*
X2238436Y3001772D1*
X2240010Y2997047D1*
X2240798Y2995472D1*
X2241432Y2994456D1*
X2241585Y2993898D1*
X2234499Y2993110D1*
X2227412D1*
X2220325Y2993898D1*
X2220479Y2994456D1*
X2221113Y2995472D1*
X2221900Y2997835D1*
X2222688Y2999409D1*
X2223475Y3001772D1*
X2224262Y3003346D1*
X2225837Y3008071D1*
X2226625Y3009646D1*
X2228199Y3014370D1*
X2228987Y3015945D1*
X2230562Y3020669D1*
Y3021457D1*
X2223475D1*
G37*
G36*
X2273081Y3022244D2*
X2270719Y3019882D1*
X2269144Y3017520D1*
X2267570Y3014370D1*
X2265995Y3009646D1*
X2265207Y3005709D1*
Y2991535D1*
X2265995Y2987598D1*
X2266782Y2984449D1*
X2270719Y2976575D1*
X2275444Y2971850D1*
X2277806Y2970276D1*
X2279381Y2969488D1*
X2284105Y2967913D1*
X2288042Y2967126D1*
X2316388D1*
Y3029331D1*
X2287255D1*
X2283318Y3028543D1*
X2280955Y3027756D1*
X2276231Y3025394D1*
X2273081Y3022244D1*
X2287255D1*
X2294341Y3023031D1*
X2301428D1*
X2308514Y3022244D1*
Y2974213D1*
X2301690Y2973425D1*
X2294866D1*
X2288042Y2974213D1*
X2284892Y2975000D1*
X2282530Y2975787D1*
X2280955Y2976575D1*
X2277018Y2980512D1*
Y2981299D1*
X2274656Y2986024D1*
X2273869Y2989961D1*
X2273081Y2990748D1*
Y3006496D1*
X2273869Y3007283D1*
X2274656Y3010433D1*
X2275444Y3012795D1*
X2277018Y3015157D1*
Y3015945D1*
X2280955Y3019882D1*
X2284105Y3021457D1*
X2287255Y3022244D1*
X2273081D1*
G37*
G36*
X1321900Y3030118D2*
X1318751Y3029331D1*
X1314026Y3027756D1*
X1312451Y3026969D1*
X1310089Y3025394D1*
X1307727Y3023031D1*
X1306152Y3020669D1*
X1305365Y3019094D1*
X1303790Y3014370D1*
Y3012008D1*
X1310877D1*
X1311664Y3013583D1*
X1312451Y3016732D1*
Y3017520D1*
X1315601Y3020669D1*
X1318751Y3022244D1*
X1321113Y3023031D1*
X1325050Y3023819D1*
X1328987D1*
X1332924Y3023031D1*
X1337648Y3021457D1*
X1340798Y3018307D1*
Y3017520D1*
X1341585Y3016732D1*
Y3011220D1*
X1340798Y3010433D1*
Y3009646D1*
X1339223Y3008071D1*
X1336073Y3006496D1*
X1331349Y3004921D1*
X1325050Y3003346D1*
X1321113Y3002559D1*
X1315601Y3000984D1*
X1313239Y3000197D1*
X1310089Y2998622D1*
X1307727Y2997047D1*
X1304577Y2993898D1*
X1302215Y2989173D1*
Y2980512D1*
X1303003Y2978150D1*
X1303790Y2976575D1*
X1305365Y2974213D1*
X1308514Y2971063D1*
X1310877Y2969488D1*
X1314026Y2967913D1*
X1316388Y2967126D1*
X1320325Y2966339D1*
X1330562D1*
X1334499Y2967126D1*
X1339223Y2968701D1*
X1340798Y2969488D1*
X1343160Y2971063D1*
X1347097Y2975000D1*
X1348672Y2977362D1*
X1350247Y2980512D1*
X1351034Y2982874D1*
X1351822Y2988386D1*
X1344735D1*
X1343948Y2986811D1*
X1343160Y2983661D1*
X1341585Y2980512D1*
Y2979724D1*
X1338436Y2976575D1*
X1333711Y2974213D1*
X1330562Y2973425D1*
X1327150Y2972638D1*
X1323738D1*
X1320325Y2973425D1*
X1317176Y2974213D1*
X1314026Y2975787D1*
X1310089Y2979724D1*
Y2980512D1*
X1309302Y2981299D1*
Y2986811D1*
X1310089Y2987598D1*
Y2988386D1*
X1312451Y2990748D1*
X1315601Y2992323D1*
X1320325Y2993898D1*
X1332924Y2997047D1*
X1340010Y2999409D1*
X1344735Y3002559D1*
X1345522Y3003346D1*
X1347097Y3005709D1*
X1348672Y3008858D1*
X1349459Y3012795D1*
Y3013583D1*
X1348672Y3017520D1*
X1347885Y3019882D1*
X1347097Y3021457D1*
X1341585Y3026969D1*
X1340010Y3027756D1*
X1335286Y3029331D1*
X1332136Y3030118D1*
X1321900D1*
G37*
G36*
X1369932Y3023031D2*
X1366782Y3019882D1*
X1365207Y3017520D1*
X1362058Y3011220D1*
X1360483Y3004921D1*
Y2991535D1*
X1362058Y2985236D1*
X1365207Y2978937D1*
X1366782Y2976575D1*
X1370719Y2972638D1*
X1375444Y2969488D1*
X1377018Y2968701D1*
X1381743Y2967126D1*
X1385680Y2966339D1*
X1394341D1*
X1398278Y2967126D1*
X1403003Y2968701D1*
X1404577Y2969488D1*
X1406940Y2971063D1*
X1410089Y2973425D1*
X1412451Y2975787D1*
X1414814Y2978937D1*
X1417176Y2983661D1*
X1418751Y2988386D1*
X1419538Y2991535D1*
Y3004134D1*
X1418751Y3008071D1*
X1417963Y3011220D1*
X1414814Y3017520D1*
X1413239Y3019882D1*
X1409302Y3023819D1*
X1406152Y3026181D1*
X1403003Y3027756D1*
X1398278Y3029331D1*
X1395129Y3030118D1*
X1385680D1*
X1381743Y3029331D1*
X1377018Y3027756D1*
X1375444Y3026969D1*
X1370719Y3023819D1*
X1369932Y3023031D1*
X1384892D1*
X1388304Y3023819D1*
X1391717D1*
X1395129Y3023031D1*
X1399853Y3021457D1*
X1401428Y3020669D1*
X1402215Y3019882D1*
X1403790Y3019094D1*
X1407727Y3015157D1*
Y3014370D1*
X1409302Y3012008D1*
X1410089Y3009646D1*
X1410877Y3006496D1*
X1411664Y3005709D1*
Y2990748D1*
X1410877Y2989961D1*
X1410089Y2986811D1*
X1407727Y2982087D1*
Y2981299D1*
X1403790Y2977362D1*
X1402215Y2976575D1*
X1401428Y2975787D1*
X1399853Y2975000D1*
X1395129Y2973425D1*
X1391717Y2972638D1*
X1388304D1*
X1384892Y2973425D1*
X1380168Y2975000D1*
X1378593Y2975787D1*
X1377806Y2976575D1*
X1376231Y2977362D1*
X1372294Y2981299D1*
Y2982087D1*
X1369932Y2986811D1*
X1369144Y2989961D1*
X1368357Y2990748D1*
Y3005709D1*
X1369144Y3006496D1*
X1370719Y3011220D1*
X1371507Y3012795D1*
X1373081Y3015157D1*
Y3015945D1*
X1376231Y3019094D1*
X1377806Y3019882D1*
X1378593Y3020669D1*
X1380168Y3021457D1*
X1384892Y3023031D1*
X1369932D1*
G37*
G36*
X1432136Y3022244D2*
X1430562Y3020669D1*
X1429774Y3019094D1*
X1428987Y3016732D1*
Y3006496D1*
X1429774Y3004134D1*
X1431349Y3000984D1*
X1436073Y2996260D1*
X1439223Y2994685D1*
X1441585Y2993898D1*
X1446310Y2993110D1*
X1468357Y2992323D1*
Y2967126D1*
X1476231D1*
Y3029331D1*
X1444735D1*
X1440798Y3028543D1*
X1438436Y3027756D1*
X1436861Y3026969D1*
X1434499Y3025394D1*
X1432136Y3023031D1*
Y3022244D1*
X1444735D1*
X1452609Y3023031D1*
X1460483D1*
X1468357Y3022244D1*
Y3000197D1*
X1461008Y2999409D1*
X1453659D1*
X1446310Y3000197D1*
X1443160Y3000984D1*
X1440010Y3002559D1*
X1438436Y3004134D1*
Y3004921D1*
X1437648Y3006496D1*
X1436861Y3009646D1*
X1436073Y3010433D1*
Y3012008D1*
X1436861Y3012795D1*
X1437648Y3016732D1*
Y3017520D1*
X1440798Y3020669D1*
X1442373Y3021457D1*
X1444735Y3022244D1*
X1432136D1*
G37*
G36*
X1699066Y3030118D2*
X1695129Y3029331D1*
X1692766Y3028543D1*
X1689617Y3026969D1*
X1687255Y3025394D1*
X1683318Y3021457D1*
X1681743Y3019094D1*
X1679381Y3014370D1*
Y3012795D1*
X1680168Y3012008D1*
X1684105Y3011220D1*
X1686467D1*
X1687255Y3012008D1*
X1688042Y3014370D1*
X1689617Y3016732D1*
Y3017520D1*
X1691979Y3019882D1*
X1693554Y3020669D1*
X1694341Y3021457D1*
X1695916Y3022244D1*
X1699066Y3023031D1*
X1702478Y3023819D1*
X1705890D1*
X1709302Y3023031D1*
X1714026Y3021457D1*
X1715601Y3020669D1*
X1717176Y3019094D1*
X1718751Y3018307D1*
X1719385Y3017290D1*
X1719538Y3016732D1*
X1721900Y3013583D1*
X1723475Y3008858D1*
X1724262Y3005709D1*
X1725050Y3004921D1*
Y2991535D1*
X1724262Y2990748D1*
X1723475Y2987598D1*
X1721900Y2982874D1*
X1720325Y2980512D1*
Y2979724D1*
X1717963Y2977362D1*
X1716388Y2976575D1*
X1715601Y2975787D1*
X1714026Y2975000D1*
X1709302Y2973425D1*
X1706152Y2972638D1*
X1703003D1*
X1696703Y2974213D1*
X1693554Y2975787D1*
X1688042Y2981299D1*
Y2982087D1*
X1687255Y2983661D1*
X1685680Y2988386D1*
X1684105D1*
X1680955Y2987598D1*
X1678593Y2986811D1*
X1677806Y2986024D1*
X1678593Y2983661D1*
X1681743Y2977362D1*
X1683318Y2975000D1*
X1686467Y2971850D1*
X1691192Y2968701D1*
X1695916Y2967126D1*
X1699066Y2966339D1*
X1709302D1*
X1713239Y2967126D1*
X1715601Y2967913D1*
X1720325Y2970276D1*
X1722688Y2971850D1*
X1725050Y2974213D1*
X1727412Y2977362D1*
X1730562Y2983661D1*
X1731349Y2986024D1*
X1732136Y2989173D1*
X1732924Y2993110D1*
Y3004134D1*
X1732136Y3008071D1*
X1731349Y3011220D1*
X1730562Y3012795D1*
X1729774Y3015157D1*
X1728987Y3016732D1*
X1727412Y3019094D1*
X1721900Y3024606D1*
X1719538Y3026181D1*
X1716388Y3027756D1*
X1711664Y3029331D1*
X1708514Y3030118D1*
X1699066D1*
G37*
G36*
X1944735D2*
X1941585Y3029331D1*
X1936861Y3027756D1*
X1935286Y3026969D1*
X1932924Y3025394D1*
X1930562Y3023031D1*
X1928987Y3020669D1*
X1928199Y3019094D1*
X1926625Y3014370D1*
Y3012008D1*
X1933711D1*
X1934499Y3013583D1*
X1935286Y3016732D1*
Y3017520D1*
X1938436Y3020669D1*
X1941585Y3022244D1*
X1943948Y3023031D1*
X1947885Y3023819D1*
X1951822D1*
X1955759Y3023031D1*
X1960483Y3021457D1*
X1963633Y3018307D1*
Y3017520D1*
X1964420Y3016732D1*
Y3011220D1*
X1963633Y3010433D1*
Y3009646D1*
X1962058Y3008071D1*
X1958908Y3006496D1*
X1954184Y3004921D1*
X1947885Y3003346D1*
X1943948Y3002559D1*
X1938436Y3000984D1*
X1936073Y3000197D1*
X1932924Y2998622D1*
X1930562Y2997047D1*
X1927412Y2993898D1*
X1925050Y2989173D1*
Y2980512D1*
X1925837Y2978150D1*
X1926625Y2976575D1*
X1928199Y2974213D1*
X1931349Y2971063D1*
X1933711Y2969488D1*
X1936861Y2967913D1*
X1939223Y2967126D1*
X1943160Y2966339D1*
X1953396D1*
X1957333Y2967126D1*
X1962058Y2968701D1*
X1963633Y2969488D1*
X1965995Y2971063D1*
X1969932Y2975000D1*
X1971507Y2977362D1*
X1973081Y2980512D1*
X1973869Y2982874D1*
X1974656Y2988386D1*
X1967570D1*
X1966782Y2986811D1*
X1965995Y2983661D1*
X1964420Y2980512D1*
Y2979724D1*
X1961270Y2976575D1*
X1956546Y2974213D1*
X1953396Y2973425D1*
X1949984Y2972638D1*
X1946572D1*
X1943160Y2973425D1*
X1940010Y2974213D1*
X1936861Y2975787D1*
X1932924Y2979724D1*
Y2980512D1*
X1932136Y2981299D1*
Y2986811D1*
X1932924Y2987598D1*
Y2988386D1*
X1935286Y2990748D1*
X1938436Y2992323D1*
X1943160Y2993898D1*
X1955759Y2997047D1*
X1962845Y2999409D1*
X1967570Y3002559D1*
X1968357Y3003346D1*
X1969932Y3005709D1*
X1971507Y3008858D1*
X1972294Y3012795D1*
Y3013583D1*
X1971507Y3017520D1*
X1970719Y3019882D1*
X1969932Y3021457D1*
X1964420Y3026969D1*
X1962845Y3027756D1*
X1958121Y3029331D1*
X1954971Y3030118D1*
X1944735D1*
G37*
G36*
X1621900Y3029331D2*
Y3023031D1*
X1643160Y3022244D1*
Y2967126D1*
X1650247D1*
Y3022244D1*
X1671507Y3023031D1*
Y3029331D1*
X1621900D1*
G37*
G36*
X1745522D2*
Y2985236D1*
X1746310Y2981299D1*
X1747097Y2978937D1*
X1748672Y2975787D1*
X1750247Y2973425D1*
X1751822Y2971850D1*
X1754971Y2969488D1*
X1758121Y2967913D1*
X1760483Y2967126D1*
X1764420Y2966339D1*
X1774656D1*
X1778593Y2967126D1*
X1783318Y2968701D1*
X1784892Y2969488D1*
X1788042Y2971850D1*
X1788829Y2972638D1*
X1790404Y2975000D1*
X1792766Y2979724D1*
X1793554Y2982874D1*
X1794341Y2988386D1*
Y3029331D1*
X1786467D1*
X1785680Y2984449D1*
X1784892Y2982087D1*
Y2980512D1*
X1780955Y2976575D1*
X1777806Y2975000D1*
X1775444Y2974213D1*
X1771769Y2973425D1*
X1768094D1*
X1764420Y2974213D1*
X1761270Y2975000D1*
X1758121Y2976575D1*
X1755759Y2978937D1*
Y2979724D1*
X1754971Y2981299D1*
X1754184Y2983661D1*
X1753396Y2989173D1*
X1752609Y3029331D1*
X1745522D1*
G37*
G36*
X1810877Y3022244D2*
X1810618Y3021289D1*
X1810089Y3020669D1*
X1809302Y3019094D1*
X1808514Y3016732D1*
Y3008858D1*
X1809302Y3006496D1*
X1810877Y3003346D1*
X1814026Y3000197D1*
X1816388Y2998622D1*
X1821113Y2997047D1*
X1824262Y2996260D1*
X1824771Y2995194D1*
X1824262Y2994685D1*
X1822688Y2993898D1*
X1816388Y2987598D1*
X1814026Y2984449D1*
X1813239Y2982874D1*
X1810089Y2978150D1*
X1809302Y2976575D1*
X1806152Y2971850D1*
X1805365Y2970276D1*
X1803790Y2967913D1*
Y2967126D1*
X1813239D1*
X1814814Y2969488D1*
X1815601Y2971063D1*
X1820325Y2978150D1*
X1821113Y2979724D1*
X1825837Y2986811D1*
Y2987598D1*
X1831349Y2993110D1*
X1834499Y2994685D1*
X1839748Y2995472D1*
X1844997D1*
X1850247Y2994685D1*
Y2967126D1*
X1858121D1*
Y3029331D1*
X1823475D1*
X1819538Y3028543D1*
X1817176Y3027756D1*
X1815601Y3026969D1*
X1810877Y3022244D1*
X1825050D1*
X1833449Y3023031D1*
X1841848D1*
X1850247Y3022244D1*
Y3002559D1*
X1842110Y3001772D1*
X1833974D1*
X1825837Y3002559D1*
X1822688Y3003346D1*
X1819538Y3004921D1*
X1817963Y3006496D1*
Y3007283D1*
X1816388Y3008858D1*
Y3015945D1*
X1817176Y3016732D1*
Y3017520D1*
X1820325Y3020669D1*
X1821900Y3021457D1*
X1825050Y3022244D1*
X1810877D1*
G37*
G36*
X1867570Y3029331D2*
Y3023031D1*
X1888829Y3022244D1*
Y2967126D1*
X1895916D1*
Y3022244D1*
X1917176Y3023031D1*
Y3029331D1*
X1867570D1*
G37*
G36*
X1671507Y1371063D2*
Y1364764D1*
X1692766Y1363976D1*
Y1308858D1*
X1699853D1*
Y1363976D1*
X1721113Y1364764D1*
Y1371063D1*
X1671507D1*
G37*
G36*
X1731349D2*
Y1326969D1*
X1732136Y1323031D1*
X1732924Y1320669D1*
X1734499Y1317520D1*
X1736073Y1315157D1*
X1737648Y1313583D1*
X1740798Y1311220D1*
X1743948Y1309646D1*
X1746310Y1308858D1*
X1750247Y1308071D1*
X1760483D1*
X1764420Y1308858D1*
X1769144Y1310433D1*
X1770719Y1311220D1*
X1773869Y1313583D1*
X1774656Y1314370D1*
X1776231Y1316732D1*
X1778593Y1321457D1*
X1779381Y1324606D1*
X1780168Y1330118D1*
Y1371063D1*
X1772294D1*
X1771507Y1326181D1*
X1770719Y1323819D1*
Y1322244D1*
X1766782Y1318307D1*
X1763633Y1316732D1*
X1761270Y1315945D1*
X1757596Y1315157D1*
X1753921D1*
X1750247Y1315945D1*
X1747097Y1316732D1*
X1743948Y1318307D1*
X1741585Y1320669D1*
Y1321457D1*
X1740798Y1323031D1*
X1740010Y1325394D1*
X1739223Y1330906D1*
X1738436Y1371063D1*
X1731349D1*
G37*
G36*
X1795129Y1363976D2*
X1793554Y1362402D1*
X1792766Y1360827D1*
X1791979Y1358465D1*
Y1348228D1*
X1792766Y1345866D1*
X1794341Y1342717D1*
X1799066Y1337992D1*
X1802215Y1336417D1*
X1804577Y1335630D1*
X1809302Y1334843D1*
X1831349Y1334055D1*
Y1308858D1*
X1839223D1*
Y1371063D1*
X1807727D1*
X1803790Y1370276D1*
X1801428Y1369488D1*
X1799853Y1368701D1*
X1797491Y1367126D1*
X1795129Y1364764D1*
Y1363976D1*
X1807727D1*
X1815601Y1364764D1*
X1823475D1*
X1831349Y1363976D1*
Y1341929D1*
X1824000Y1341142D1*
X1816651D1*
X1809302Y1341929D1*
X1806152Y1342717D1*
X1803003Y1344291D1*
X1801428Y1345866D1*
Y1346654D1*
X1800640Y1348228D1*
X1799853Y1351378D1*
X1799066Y1352165D1*
Y1353740D1*
X1799853Y1354528D1*
X1800640Y1358465D1*
Y1359252D1*
X1803790Y1362402D1*
X1805365Y1363189D1*
X1807727Y1363976D1*
X1795129D1*
G37*
G36*
X1854184Y1371063D2*
Y1308858D1*
X1862058D1*
X1862845Y1309646D1*
X1883318Y1340354D1*
X1885680Y1343504D1*
X1893554Y1355315D1*
X1893951Y1356097D1*
X1894377Y1356824D1*
X1894936Y1357383D1*
X1895338Y1357346D1*
X1895916Y1356890D1*
Y1308858D1*
X1903003D1*
Y1371063D1*
X1895129D1*
X1894341Y1370276D1*
X1888042Y1360827D1*
X1885680Y1357677D1*
X1863633Y1324606D1*
X1863236Y1323817D1*
X1862778Y1322995D1*
X1862009Y1322174D1*
X1861604Y1322304D1*
X1861270Y1323031D1*
Y1371063D1*
X1854184D1*
G37*
G36*
X1918751D2*
Y1308858D1*
X1925837D1*
Y1371063D1*
X1918751D1*
G37*
G36*
X1348672Y1371850D2*
X1344735Y1371063D1*
X1342373Y1370276D1*
X1339223Y1368701D1*
X1336861Y1367126D1*
X1332924Y1363189D1*
X1331349Y1360827D1*
X1328987Y1356102D1*
Y1354528D1*
X1329774Y1353740D1*
X1333711Y1352953D1*
X1336073D1*
X1336861Y1353740D1*
X1337648Y1356102D1*
X1339223Y1358465D1*
Y1359252D1*
X1341585Y1361614D1*
X1343160Y1362402D1*
X1343948Y1363189D1*
X1345522Y1363976D1*
X1348672Y1364764D1*
X1352084Y1365551D1*
X1355496D1*
X1358908Y1364764D1*
X1363633Y1363189D1*
X1365207Y1362402D1*
X1366782Y1360827D1*
X1368357Y1360039D1*
X1368991Y1359023D1*
X1369144Y1358465D1*
X1371507Y1355315D1*
X1373081Y1350591D1*
X1373869Y1347441D1*
X1374656Y1346654D1*
Y1333268D1*
X1373869Y1332480D1*
X1373081Y1329331D1*
X1371507Y1324606D1*
X1369932Y1322244D1*
Y1321457D1*
X1367570Y1319094D1*
X1365995Y1318307D1*
X1365207Y1317520D1*
X1363633Y1316732D1*
X1358908Y1315157D1*
X1355759Y1314370D1*
X1352609D1*
X1346310Y1315945D1*
X1343160Y1317520D1*
X1337648Y1323031D1*
Y1323819D1*
X1336861Y1325394D1*
X1335286Y1330118D1*
X1333711D1*
X1330562Y1329331D1*
X1328199Y1328543D1*
X1327412Y1327756D1*
X1328199Y1325394D1*
X1331349Y1319094D1*
X1332924Y1316732D1*
X1336073Y1313583D1*
X1340798Y1310433D1*
X1345522Y1308858D1*
X1348672Y1308071D1*
X1358908D1*
X1362845Y1308858D1*
X1365207Y1309646D1*
X1369932Y1312008D1*
X1372294Y1313583D1*
X1374656Y1315945D1*
X1377018Y1319094D1*
X1380168Y1325394D1*
X1380955Y1327756D1*
X1381743Y1330906D1*
X1382530Y1334843D1*
Y1345866D1*
X1381743Y1349803D1*
X1380955Y1352953D1*
X1380168Y1354528D1*
X1379381Y1356890D1*
X1378593Y1358465D1*
X1377018Y1360827D1*
X1371507Y1366339D1*
X1369144Y1367913D1*
X1365995Y1369488D1*
X1361270Y1371063D1*
X1358121Y1371850D1*
X1348672D1*
G37*
G36*
X1265995Y1371063D2*
Y1370276D1*
X1266782Y1368701D1*
X1268357Y1363976D1*
X1269144Y1362402D1*
X1269932Y1360039D1*
X1270719Y1358465D1*
X1271507Y1356102D1*
X1272294Y1354528D1*
X1273081Y1352165D1*
X1273869Y1350591D1*
X1274656Y1348228D1*
X1275444Y1346654D1*
X1276231Y1344291D1*
X1277018Y1342717D1*
X1277806Y1340354D1*
X1278593Y1338780D1*
X1279381Y1336417D1*
X1280168Y1334843D1*
X1280955Y1332480D1*
X1281743Y1330906D1*
X1282530Y1328543D1*
X1283318Y1326969D1*
X1284105Y1324606D1*
X1284892Y1323031D1*
X1285680Y1320669D1*
X1286467Y1319094D1*
X1287255Y1316732D1*
X1288042Y1315157D1*
X1288829Y1312795D1*
X1289617Y1311220D1*
X1290404Y1308858D1*
X1298278D1*
X1299853Y1312008D1*
X1300640Y1314370D1*
X1301428Y1315945D1*
X1302215Y1318307D1*
X1303003Y1319882D1*
X1304577Y1324606D1*
X1305365Y1326181D1*
X1306152Y1328543D1*
X1306940Y1330118D1*
X1307727Y1332480D1*
X1308514Y1334055D1*
X1310089Y1338780D1*
X1310877Y1340354D1*
X1311664Y1342717D1*
X1312451Y1344291D1*
X1313239Y1346654D1*
X1314026Y1348228D1*
X1315601Y1352953D1*
X1316388Y1354528D1*
X1317176Y1356890D1*
X1317963Y1358465D1*
X1318751Y1360827D1*
X1319538Y1362402D1*
X1321113Y1367126D1*
X1321900Y1368701D1*
X1322688Y1371063D1*
X1314814D1*
X1314026Y1370276D1*
X1313239Y1368701D1*
X1310877Y1361614D1*
X1310089Y1360039D1*
X1306940Y1350591D1*
X1306152Y1349016D1*
X1303790Y1341929D1*
X1303003Y1340354D1*
X1300640Y1333268D1*
X1299853Y1331693D1*
X1295129Y1317520D1*
X1294929Y1316591D1*
X1294295Y1315872D1*
X1293887Y1316005D1*
X1293554Y1316732D1*
Y1318307D1*
X1291192Y1325394D1*
X1290404Y1326969D1*
X1288829Y1331693D1*
X1288042Y1333268D1*
X1287255Y1335630D1*
X1286467Y1337205D1*
X1284892Y1341929D1*
X1284105Y1343504D1*
X1282530Y1348228D1*
X1281743Y1349803D1*
X1280955Y1352165D1*
X1280168Y1353740D1*
X1278593Y1358465D1*
X1277806Y1360039D1*
X1276231Y1364764D1*
X1275444Y1366339D1*
X1273869Y1371063D1*
X1265995D1*
G37*
G36*
X1418751D2*
Y1308858D1*
X1425837D1*
Y1360827D1*
X1426425Y1361332D1*
X1426824Y1361266D1*
X1427272Y1360615D1*
X1427412Y1360039D1*
X1436861Y1331693D1*
X1437648Y1330118D1*
X1444735Y1308858D1*
X1451822D1*
X1453396Y1312008D1*
X1466782Y1352165D1*
X1467570Y1353740D1*
X1469144Y1358465D1*
Y1360039D1*
X1469732Y1360545D1*
X1470140Y1360499D1*
X1470719Y1360039D1*
Y1308858D1*
X1477806D1*
Y1371063D1*
X1465995D1*
X1448672Y1319094D1*
X1448472Y1318166D1*
X1447839Y1317447D1*
X1447431Y1317580D1*
X1447097Y1318307D1*
Y1319882D1*
X1434499Y1357677D1*
X1433711Y1359252D1*
X1429774Y1371063D1*
X1418751D1*
G37*
G36*
X1489617D2*
Y1364764D1*
X1523475Y1363976D1*
Y1344291D1*
X1494341Y1343504D1*
Y1337205D1*
X1523475Y1336417D1*
Y1308858D1*
X1531349D1*
Y1371063D1*
X1489617D1*
G37*
G36*
X2608514Y5156890D2*
X2605365Y5153740D1*
X2603790Y5151378D1*
X2600640Y5145079D1*
X2599066Y5138780D1*
Y5125394D1*
X2600640Y5119094D1*
X2603790Y5112795D1*
X2605365Y5110433D1*
X2609302Y5106496D1*
X2614026Y5103346D1*
X2615601Y5102559D1*
X2620325Y5100984D1*
X2624262Y5100197D1*
X2632924D1*
X2636861Y5100984D1*
X2641585Y5102559D1*
X2643160Y5103346D1*
X2645522Y5104921D1*
X2648672Y5107283D1*
X2651034Y5109646D1*
X2653396Y5112795D1*
X2655759Y5117520D1*
X2657333Y5122244D1*
X2658121Y5125394D1*
Y5137992D1*
X2657333Y5141929D1*
X2656546Y5145079D1*
X2653396Y5151378D1*
X2651822Y5153740D1*
X2647885Y5157677D1*
X2644735Y5160039D1*
X2641585Y5161614D1*
X2636861Y5163189D1*
X2633711Y5163976D1*
X2624262D1*
X2620325Y5163189D1*
X2615601Y5161614D1*
X2614026Y5160827D1*
X2609302Y5157677D1*
X2608514Y5156890D1*
X2623475D1*
X2626887Y5157677D1*
X2630299D1*
X2633711Y5156890D1*
X2638436Y5155315D1*
X2640010Y5154528D1*
X2640798Y5153740D1*
X2642373Y5152953D1*
X2646310Y5149016D1*
Y5148228D1*
X2647885Y5145866D1*
X2648672Y5143504D1*
X2649459Y5140354D1*
X2650247Y5139567D1*
Y5124606D1*
X2649459Y5123819D1*
X2648672Y5120669D1*
X2646310Y5115945D1*
Y5115157D1*
X2642373Y5111220D1*
X2640798Y5110433D1*
X2640010Y5109646D1*
X2638436Y5108858D1*
X2633711Y5107283D1*
X2630299Y5106496D1*
X2626887D1*
X2623475Y5107283D1*
X2618751Y5108858D1*
X2617176Y5109646D1*
X2616388Y5110433D1*
X2614814Y5111220D1*
X2610877Y5115157D1*
Y5115945D1*
X2608514Y5120669D1*
X2607727Y5123819D1*
X2606940Y5124606D1*
Y5139567D1*
X2607727Y5140354D1*
X2609302Y5145079D1*
X2610089Y5146654D1*
X2611664Y5149016D1*
Y5149803D1*
X2614814Y5152953D1*
X2616388Y5153740D1*
X2617176Y5154528D1*
X2618751Y5155315D1*
X2623475Y5156890D1*
X2608514D1*
G37*
G36*
X2489617Y5163189D2*
Y5162402D1*
X2499066Y5148228D1*
X2501428Y5145079D1*
X2510877Y5130906D1*
X2513239Y5127756D1*
X2514026Y5100984D1*
X2521113D1*
Y5127756D1*
X2522688Y5129331D1*
X2540010Y5155315D1*
X2540798Y5156890D1*
X2543948Y5161614D1*
X2544735Y5163189D1*
X2535286D1*
X2532136Y5158465D1*
X2531349Y5156890D1*
X2526625Y5149803D1*
X2525837Y5148228D1*
X2522688Y5143504D1*
X2521900Y5141929D1*
X2520325Y5139567D1*
X2519538Y5137992D1*
X2517963Y5135630D1*
X2517677Y5134662D1*
X2516839Y5133991D1*
X2516126Y5134116D1*
X2515339Y5135036D1*
X2515601Y5135630D1*
X2514026Y5138780D1*
X2510877Y5143504D1*
X2510089Y5145079D1*
X2503790Y5154528D1*
X2503003Y5156102D1*
X2498278Y5163189D1*
X2489617D1*
G37*
G36*
X2580168D2*
Y5108071D1*
X2549459Y5107283D1*
Y5100984D1*
X2587255D1*
Y5163189D1*
X2580168D1*
G37*
G36*
X2670719Y5156102D2*
X2669144Y5154528D1*
X2668357Y5152953D1*
X2667570Y5150591D1*
Y5140354D1*
X2668357Y5137992D1*
X2669932Y5134843D1*
X2674656Y5130118D1*
X2677806Y5128543D1*
X2680168Y5127756D1*
X2684892Y5126969D1*
X2706940Y5126181D1*
Y5100984D1*
X2714814D1*
Y5163189D1*
X2683318D1*
X2679381Y5162402D1*
X2677018Y5161614D1*
X2675444Y5160827D1*
X2673081Y5159252D1*
X2670719Y5156890D1*
Y5156102D1*
X2683318D1*
X2691192Y5156890D1*
X2699066D1*
X2706940Y5156102D1*
Y5134055D1*
X2699591Y5133268D1*
X2692241D1*
X2684892Y5134055D1*
X2681743Y5134843D1*
X2678593Y5136417D1*
X2677018Y5137992D1*
Y5138780D1*
X2676231Y5140354D1*
X2675444Y5143504D1*
X2674656Y5144291D1*
Y5145866D1*
X2675444Y5146654D1*
X2676231Y5150591D1*
Y5151378D1*
X2679381Y5154528D1*
X2680955Y5155315D1*
X2683318Y5156102D1*
X2670719D1*
G37*
G36*
X603790Y5159252D2*
X600640Y5156102D1*
X599066Y5153740D1*
X595916Y5147441D1*
X594341Y5141142D1*
Y5127756D1*
X595916Y5121457D1*
X599066Y5115157D1*
X600640Y5112795D1*
X604577Y5108858D1*
X609302Y5105709D1*
X610877Y5104921D1*
X615601Y5103346D1*
X619538Y5102559D1*
X628199D1*
X632136Y5103346D1*
X636861Y5104921D1*
X638436Y5105709D1*
X640798Y5107283D1*
X643948Y5109646D1*
X646310Y5112008D1*
X648672Y5115157D1*
X651034Y5119882D1*
X652609Y5124606D1*
X653396Y5127756D1*
Y5140354D1*
X652609Y5144291D1*
X651822Y5147441D1*
X648672Y5153740D1*
X647097Y5156102D1*
X643160Y5160039D1*
X640010Y5162402D1*
X636861Y5163976D1*
X632136Y5165551D1*
X628987Y5166339D1*
X619538D1*
X615601Y5165551D1*
X610877Y5163976D1*
X609302Y5163189D1*
X604577Y5160039D1*
X603790Y5159252D1*
X618751D1*
X622163Y5160039D1*
X625575D1*
X628987Y5159252D1*
X633711Y5157677D1*
X635286Y5156890D1*
X636073Y5156102D1*
X637648Y5155315D1*
X641585Y5151378D1*
Y5150591D1*
X643160Y5148228D1*
X643948Y5145866D1*
X644735Y5142717D1*
X645522Y5141929D1*
Y5126969D1*
X644735Y5126181D1*
X643948Y5123031D1*
X641585Y5118307D1*
Y5117520D1*
X637648Y5113583D1*
X636073Y5112795D1*
X635286Y5112008D1*
X633711Y5111220D1*
X628987Y5109646D1*
X625575Y5108858D1*
X622163D1*
X618751Y5109646D1*
X614026Y5111220D1*
X612451Y5112008D1*
X611664Y5112795D1*
X610089Y5113583D1*
X606152Y5117520D1*
Y5118307D1*
X603790Y5123031D1*
X603003Y5126181D1*
X602215Y5126969D1*
Y5141929D1*
X603003Y5142717D1*
X604577Y5147441D1*
X605365Y5149016D1*
X606940Y5151378D1*
Y5152165D1*
X610089Y5155315D1*
X611664Y5156102D1*
X612451Y5156890D1*
X614026Y5157677D1*
X618751Y5159252D1*
X603790D1*
G37*
G36*
X473869Y5165551D2*
Y5159252D1*
X510877Y5158465D1*
Y5139567D1*
X476231Y5138780D1*
Y5132480D1*
X510877Y5131693D1*
Y5110433D1*
X472294Y5109646D1*
Y5103346D1*
X518751D1*
Y5165551D1*
X473869D1*
G37*
G36*
X539223Y5158465D2*
X536861Y5156102D1*
X535286Y5153740D1*
X533711Y5150591D1*
X532136Y5145866D1*
X531349Y5141929D1*
Y5127756D1*
X532136Y5123819D1*
X532924Y5120669D1*
X536861Y5112795D1*
X541585Y5108071D1*
X543948Y5106496D1*
X545522Y5105709D1*
X550247Y5104134D1*
X554184Y5103346D1*
X582530D1*
Y5165551D1*
X553396D1*
X549459Y5164764D1*
X547097Y5163976D1*
X542373Y5161614D1*
X539223Y5158465D1*
X553396D1*
X560483Y5159252D1*
X567570D1*
X574656Y5158465D1*
Y5110433D1*
X567832Y5109646D1*
X561008D1*
X554184Y5110433D1*
X551034Y5111220D1*
X548672Y5112008D1*
X547097Y5112795D1*
X543160Y5116732D1*
Y5117520D1*
X540798Y5122244D1*
X540010Y5126181D1*
X539223Y5126969D1*
Y5142717D1*
X540010Y5143504D1*
X540798Y5146654D1*
X541585Y5149016D1*
X543160Y5151378D1*
Y5152165D1*
X547097Y5156102D1*
X550247Y5157677D1*
X553396Y5158465D1*
X539223D1*
G37*
G36*
X665207Y5165551D2*
Y5103346D1*
X672294D1*
Y5155315D1*
X672882Y5155821D1*
X673280Y5155755D1*
X673728Y5155104D1*
X673869Y5154528D1*
X683318Y5126181D1*
X684105Y5124606D1*
X691192Y5103346D1*
X698278D1*
X699853Y5106496D1*
X713239Y5146654D1*
X714026Y5148228D1*
X715601Y5152953D1*
Y5154528D1*
X716189Y5155033D1*
X716597Y5154987D1*
X717176Y5154528D1*
Y5103346D1*
X724262D1*
Y5165551D1*
X712451D1*
X695129Y5113583D1*
X694929Y5112654D1*
X694295Y5111935D1*
X693887Y5112068D1*
X693554Y5112795D1*
Y5114370D1*
X680955Y5152165D1*
X680168Y5153740D1*
X676231Y5165551D1*
X665207D1*
G37*
M02*
