M48
INCH
T01C0.1201
T02C0.126
T03C0.2126
T04C0.2441
T05C0.3189
%
T01
X+022923Y+049372
X+008907Y+049366
T02
X+024606Y+005174G85X+025590Y+005174
X+006606Y+005174G85X+007590Y+005174
X+006606Y+053372G85X+007590Y+053372
X+024606Y+053372G85X+025590Y+053372
T03
X+005950Y+049358
X+025933Y+049406
T04
X+005936Y+010891
X+009925Y+010891
X+013937Y+010891
X+017925Y+010891
X+021925Y+010891
X+025931Y+010891
X+024199Y+019399
X+018654Y+019399
X+013173Y+019399
X+007662Y+019399
T05
X+007681Y+025902
X+013182Y+025902
X+018671Y+025902
X+024193Y+025902
X+007933Y+035955
X+007916Y+043702
T00
M30
