G04 DipTrace 4.0.0.0*
G04 rangoon_panel_plugg.GBS*
%MOIN*%
G04 #@! TF.FileFunction,Soldermask,Bot*
G04 #@! TF.Part,Single*
%ADD22C,0.120079*%
%ADD23C,0.212598*%
%ADD28C,0.328*%
%ADD30O,0.2324X0.134*%
%ADD32C,0.252094*%
%FSLAX26Y26*%
G04*
G70*
G90*
G75*
G01*
G04 BotMask*
%LPD*%
D22*
X2292301Y4937152D3*
X890701Y4936639D3*
D23*
X594986Y4935815D3*
X2593339Y4940614D3*
D32*
X593610Y1089133D3*
X992528D3*
X1393744D3*
X1792528D3*
X2192528D3*
D30*
X2509819Y517364D3*
X709819D3*
Y5337214D3*
X2509819D3*
D32*
X2593085Y1089133D3*
X1865381Y1939866D3*
X2419882D3*
X766224D3*
X1317264D3*
D28*
X768059Y2590193D3*
X1318169D3*
X1867076D3*
X2419261D3*
X791558Y4370154D3*
X793276Y3595505D3*
G36*
X1204840Y5378150D2*
X1199591Y5372900D1*
X1195654Y5367651D1*
X1190404Y5357152D1*
X1189092Y5353215D1*
X1186467Y5342717D1*
Y5316470D1*
X1187780Y5309908D1*
X1190404Y5302034D1*
X1195654Y5291535D1*
X1199591Y5286286D1*
X1207465Y5278412D1*
X1211402Y5275787D1*
X1221900Y5270538D1*
X1229774Y5267913D1*
X1236336Y5266601D1*
X1253396D1*
X1259958Y5267913D1*
X1267832Y5270538D1*
X1278331Y5275787D1*
X1283580Y5279724D1*
X1288829Y5284974D1*
X1292766Y5290223D1*
X1295391Y5294160D1*
X1298016Y5299409D1*
X1299328Y5303346D1*
X1300640Y5305971D1*
X1303265Y5316470D1*
Y5341404D1*
X1301953Y5347966D1*
X1300640Y5353215D1*
X1299328Y5357152D1*
X1294079Y5367651D1*
X1290142Y5372900D1*
X1282268Y5380774D1*
X1274394Y5386024D1*
X1271769Y5387336D1*
X1265207Y5389961D1*
X1259958Y5391273D1*
X1253396Y5392585D1*
X1236336D1*
X1229774Y5391273D1*
X1224525Y5389961D1*
X1217963Y5387336D1*
X1211402Y5383399D1*
X1207465Y5380774D1*
X1204840Y5378150D1*
X1236336D1*
X1242023Y5379462D1*
X1247710D1*
X1253396Y5378150D1*
X1258646Y5376837D1*
X1262583Y5375525D1*
X1267832Y5372900D1*
X1269144Y5371588D1*
X1271769Y5370276D1*
X1280955Y5361089D1*
Y5359777D1*
X1282268Y5357152D1*
X1284892Y5349278D1*
X1286205Y5344029D1*
X1287517Y5342717D1*
Y5315157D1*
X1286205Y5313845D1*
X1284892Y5308596D1*
X1283580Y5305971D1*
X1282268Y5302034D1*
X1279643Y5298097D1*
Y5296785D1*
X1271769Y5288911D1*
X1269144Y5287598D1*
X1267832Y5286286D1*
X1262583Y5283661D1*
X1258646Y5282349D1*
X1253396Y5281037D1*
X1247710Y5279724D1*
X1242023D1*
X1236336Y5281037D1*
X1231087Y5282349D1*
X1227150Y5283661D1*
X1221900Y5286286D1*
X1220588Y5287598D1*
X1217963Y5288911D1*
X1210089Y5296785D1*
Y5298097D1*
X1207465Y5302034D1*
X1204840Y5309908D1*
X1203528Y5315157D1*
X1202215Y5316470D1*
Y5342717D1*
X1203528Y5344029D1*
X1204840Y5349278D1*
X1206152Y5353215D1*
X1210089Y5361089D1*
Y5362402D1*
X1217963Y5370276D1*
X1220588Y5371588D1*
X1221900Y5372900D1*
X1227150Y5375525D1*
X1231087Y5376837D1*
X1236336Y5378150D1*
X1204840D1*
G37*
G36*
X1388567D2*
X1383318Y5372900D1*
X1379381Y5367651D1*
X1374131Y5357152D1*
X1372819Y5353215D1*
X1370194Y5342717D1*
Y5316470D1*
X1371507Y5309908D1*
X1374131Y5302034D1*
X1379381Y5291535D1*
X1383318Y5286286D1*
X1391192Y5278412D1*
X1395129Y5275787D1*
X1405627Y5270538D1*
X1413501Y5267913D1*
X1420063Y5266601D1*
X1437123D1*
X1443685Y5267913D1*
X1451559Y5270538D1*
X1462058Y5275787D1*
X1467307Y5279724D1*
X1472556Y5284974D1*
X1476493Y5290223D1*
X1479118Y5294160D1*
X1481743Y5299409D1*
X1483055Y5303346D1*
X1484367Y5305971D1*
X1486992Y5316470D1*
Y5341404D1*
X1485680Y5347966D1*
X1484367Y5353215D1*
X1483055Y5357152D1*
X1477806Y5367651D1*
X1473869Y5372900D1*
X1465995Y5380774D1*
X1458121Y5386024D1*
X1455496Y5387336D1*
X1448934Y5389961D1*
X1443685Y5391273D1*
X1437123Y5392585D1*
X1420063D1*
X1413501Y5391273D1*
X1408252Y5389961D1*
X1401690Y5387336D1*
X1395129Y5383399D1*
X1391192Y5380774D1*
X1388567Y5378150D1*
X1420063D1*
X1425750Y5379462D1*
X1431437D1*
X1437123Y5378150D1*
X1442373Y5376837D1*
X1446310Y5375525D1*
X1451559Y5372900D1*
X1452871Y5371588D1*
X1455496Y5370276D1*
X1464682Y5361089D1*
Y5359777D1*
X1465995Y5357152D1*
X1468619Y5349278D1*
X1469932Y5344029D1*
X1471244Y5342717D1*
Y5315157D1*
X1469932Y5313845D1*
X1468619Y5308596D1*
X1467307Y5305971D1*
X1465995Y5302034D1*
X1463370Y5298097D1*
Y5296785D1*
X1455496Y5288911D1*
X1452871Y5287598D1*
X1451559Y5286286D1*
X1446310Y5283661D1*
X1442373Y5282349D1*
X1437123Y5281037D1*
X1431437Y5279724D1*
X1425750D1*
X1420063Y5281037D1*
X1414814Y5282349D1*
X1410877Y5283661D1*
X1405627Y5286286D1*
X1404315Y5287598D1*
X1401690Y5288911D1*
X1393816Y5296785D1*
Y5298097D1*
X1391192Y5302034D1*
X1388567Y5309908D1*
X1387255Y5315157D1*
X1385942Y5316470D1*
Y5342717D1*
X1387255Y5344029D1*
X1388567Y5349278D1*
X1389879Y5353215D1*
X1393816Y5361089D1*
Y5362402D1*
X1401690Y5370276D1*
X1404315Y5371588D1*
X1405627Y5372900D1*
X1410877Y5375525D1*
X1414814Y5376837D1*
X1420063Y5378150D1*
X1388567D1*
G37*
G36*
X1599853Y5392585D2*
X1593291Y5391273D1*
X1588042Y5389961D1*
X1584105Y5388648D1*
X1578856Y5386024D1*
X1574919Y5383399D1*
X1565732Y5374213D1*
X1563108Y5370276D1*
X1561795Y5366339D1*
X1560483Y5363714D1*
X1559171Y5359777D1*
Y5357152D1*
X1560483Y5355840D1*
X1564420Y5354528D1*
X1569669Y5353215D1*
X1572294D1*
X1573606Y5355840D1*
X1574919Y5359777D1*
X1576231Y5362402D1*
X1578856Y5366339D1*
Y5367651D1*
X1581480Y5370276D1*
X1584105Y5371588D1*
X1585417Y5372900D1*
X1590667Y5375525D1*
X1594604Y5376837D1*
X1599853Y5378150D1*
X1605977Y5379462D1*
X1612101D1*
X1618226Y5378150D1*
X1624787Y5376837D1*
X1628724Y5375525D1*
X1636598Y5371588D1*
X1645785Y5362402D1*
Y5361089D1*
X1648409Y5357152D1*
X1649722Y5353215D1*
X1651034Y5350591D1*
X1652346Y5345341D1*
X1653659Y5337467D1*
X1654971Y5336155D1*
Y5323031D1*
X1653659Y5321719D1*
X1652346Y5312533D1*
X1649722Y5304659D1*
X1647097Y5299409D1*
Y5298097D1*
X1637911Y5288911D1*
X1627412Y5283661D1*
X1623475Y5282349D1*
X1618226Y5281037D1*
X1611664Y5279724D1*
X1605102D1*
X1598541Y5281037D1*
X1588042Y5283661D1*
X1574919Y5290223D1*
X1573606Y5291535D1*
X1570982Y5292848D1*
Y5315157D1*
X1607727Y5316470D1*
Y5329593D1*
X1556546D1*
Y5284974D1*
X1557858Y5283661D1*
X1565732Y5278412D1*
X1578856Y5271850D1*
X1590667Y5267913D1*
X1598541Y5266601D1*
X1616913D1*
X1623475Y5267913D1*
X1628724Y5269226D1*
X1636598Y5271850D1*
X1641848Y5274475D1*
X1649722Y5279724D1*
X1657596Y5287598D1*
X1660220Y5291535D1*
X1666782Y5304659D1*
X1668094Y5308596D1*
X1669407Y5315157D1*
X1670719Y5325656D1*
Y5332218D1*
X1669407Y5344029D1*
X1668094Y5349278D1*
X1665470Y5357152D1*
X1660220Y5367651D1*
X1657596Y5371588D1*
X1647097Y5382087D1*
X1640535Y5386024D1*
X1637911Y5387336D1*
X1626100Y5391273D1*
X1618226Y5392585D1*
X1599853D1*
G37*
G36*
X1018488Y5391273D2*
Y5267913D1*
X1034236D1*
X1063108Y5311220D1*
X1067045Y5316470D1*
X1098541Y5363714D1*
X1099521Y5364557D1*
X1100201Y5364480D1*
X1101165Y5363714D1*
Y5267913D1*
X1114289D1*
Y5391273D1*
X1098541D1*
X1051297Y5320407D1*
X1047360Y5315157D1*
X1036861Y5299409D1*
X1036199Y5298094D1*
X1035437Y5296723D1*
X1034155Y5295356D1*
X1033479Y5295572D1*
X1032924Y5296785D1*
Y5391273D1*
X1018488D1*
G37*
G36*
X1744210D2*
Y5267913D1*
X1759958D1*
X1788829Y5311220D1*
X1792766Y5316470D1*
X1824262Y5363714D1*
X1825243Y5364557D1*
X1825923Y5364480D1*
X1826887Y5363714D1*
Y5267913D1*
X1840010D1*
Y5391273D1*
X1824262D1*
X1777018Y5320407D1*
X1773081Y5315157D1*
X1762583Y5299409D1*
X1761921Y5298094D1*
X1761159Y5296723D1*
X1759877Y5295356D1*
X1759201Y5295572D1*
X1758646Y5296785D1*
Y5391273D1*
X1744210D1*
G37*
G36*
X1948934Y5375525D2*
X1947622Y5374213D1*
X1946310Y5370276D1*
X1944997Y5367651D1*
X1943685Y5363714D1*
X1941060Y5358465D1*
X1939748Y5354528D1*
X1938436Y5351903D1*
X1937123Y5347966D1*
X1934499Y5342717D1*
X1933186Y5338780D1*
X1931874Y5336155D1*
X1930562Y5332218D1*
X1927937Y5326969D1*
X1926625Y5323031D1*
X1925312Y5320407D1*
X1924000Y5316470D1*
X1921375Y5311220D1*
X1920063Y5307283D1*
X1918751Y5304659D1*
X1917438Y5300722D1*
X1914814Y5295472D1*
X1913501Y5291535D1*
X1912189Y5288911D1*
X1910877Y5284974D1*
X1908252Y5279724D1*
X1906940Y5275787D1*
X1905627Y5273163D1*
X1904315Y5269226D1*
Y5267913D1*
X1921375D1*
X1924000Y5273163D1*
X1926625Y5281037D1*
X1927937Y5283661D1*
X1929249Y5287598D1*
X1930562Y5290223D1*
X1931874Y5294160D1*
X1933186Y5296785D1*
X1935811Y5304659D1*
Y5305971D1*
X1953746Y5307283D1*
X1971682D1*
X1989617Y5305971D1*
Y5303346D1*
X1990929Y5300722D1*
X1994866Y5288911D1*
X1996178Y5286286D1*
X1998803Y5278412D1*
X2000115Y5275787D1*
X2002740Y5267913D1*
X2019801D1*
X2018488Y5271850D1*
X2017176Y5274475D1*
X2015864Y5278412D1*
X2014551Y5281037D1*
X2013239Y5284974D1*
X2011927Y5287598D1*
X2009302Y5295472D1*
X2007990Y5298097D1*
X2006677Y5302034D1*
X2005365Y5304659D1*
X2004052Y5308596D1*
X2002740Y5311220D1*
X2001428Y5315157D1*
X2000115Y5317782D1*
X1997491Y5325656D1*
X1996178Y5328281D1*
X1994866Y5332218D1*
X1993554Y5334843D1*
X1992241Y5338780D1*
X1990929Y5341404D1*
X1988304Y5349278D1*
X1986992Y5351903D1*
X1985680Y5355840D1*
X1984367Y5358465D1*
X1983055Y5362402D1*
X1981743Y5365026D1*
X1980430Y5368963D1*
X1979118Y5371588D1*
X1976493Y5379462D1*
X1975181Y5382087D1*
X1973869Y5386024D1*
X1971244Y5391273D1*
X1955496D1*
X1954184Y5389961D1*
X1952871Y5386024D1*
X1951559Y5383399D1*
X1950247Y5379462D1*
X1948934Y5376837D1*
Y5375525D1*
X1962058D1*
X1963038Y5376368D1*
X1963702Y5376258D1*
X1964448Y5375173D1*
X1967307Y5363714D1*
X1969932Y5355840D1*
X1971244Y5353215D1*
X1973869Y5345341D1*
X1975181Y5342717D1*
X1976493Y5338780D1*
X1977806Y5336155D1*
X1980430Y5328281D1*
X1981743Y5325656D1*
X1983055Y5324344D1*
Y5321719D1*
X1969494Y5320407D1*
X1955934D1*
X1942373Y5321719D1*
X1942628Y5322649D1*
X1943685Y5324344D1*
X1944997Y5326969D1*
X1947622Y5334843D1*
X1948934Y5337467D1*
X1950247Y5341404D1*
X1951559Y5344029D1*
X1954184Y5351903D1*
X1955496Y5354528D1*
X1958121Y5362402D1*
X1959433Y5365026D1*
X1962058Y5372900D1*
Y5375525D1*
X1948934D1*
G37*
G36*
X2086730Y5376837D2*
X2086298Y5375245D1*
X2085417Y5374213D1*
X2084105Y5371588D1*
X2082793Y5367651D1*
X2081480Y5362402D1*
Y5353215D1*
X2082793Y5347966D1*
X2084105Y5344029D1*
X2085417Y5341404D1*
X2088042Y5337467D1*
X2093291Y5332218D1*
X2097228Y5329593D1*
X2099853Y5328281D1*
X2107727Y5325656D1*
X2112976Y5324344D1*
X2115601Y5323031D1*
X2110352Y5320407D1*
X2097228Y5307283D1*
X2093291Y5302034D1*
X2091979Y5299409D1*
X2081480Y5283661D1*
X2080168Y5281037D1*
X2072294Y5269226D1*
Y5267913D1*
X2090667D1*
X2093291Y5270538D1*
X2098541Y5278412D1*
X2099853Y5281037D1*
X2115601Y5304659D1*
X2119538Y5309908D1*
Y5311220D1*
X2126100Y5317782D1*
X2131349Y5320407D1*
X2135286Y5321719D1*
X2145347Y5323031D1*
X2155409D1*
X2165470Y5321719D1*
Y5267913D1*
X2179906D1*
Y5391273D1*
X2112976D1*
X2105102Y5389961D1*
X2101165Y5388648D1*
X2095916Y5386024D1*
X2091979Y5383399D1*
X2089354Y5380774D1*
X2086730Y5376837D1*
X2115601D1*
X2132224Y5378150D1*
X2148847D1*
X2165470Y5376837D1*
Y5337467D1*
X2149284Y5336155D1*
X2133099D1*
X2116913Y5337467D1*
X2111664Y5338780D1*
X2107727Y5340092D1*
X2105102Y5341404D1*
X2101165Y5345341D1*
Y5346654D1*
X2098541Y5351903D1*
X2097228Y5353215D1*
Y5362402D1*
X2098541Y5363714D1*
X2099853Y5366339D1*
Y5367651D1*
X2105102Y5372900D1*
X2110352Y5375525D1*
X2115601Y5376837D1*
X2086730D1*
G37*
G36*
X1210483Y579921D2*
X1198672Y578740D1*
X1190404Y577559D1*
X1185680Y576378D1*
Y569291D1*
X1188042D1*
X1210483Y570472D1*
X1214420Y571654D1*
X1218357D1*
X1222294Y570472D1*
X1227018Y569291D1*
X1230562Y568110D1*
X1235286Y563386D1*
Y562205D1*
X1236467Y559843D1*
X1237648Y555118D1*
X1238829Y549213D1*
X1240010Y548031D1*
Y514961D1*
X1238829Y513780D1*
X1237648Y506693D1*
X1236467Y503150D1*
X1235286Y500787D1*
Y499606D1*
X1229381Y493701D1*
X1225837Y492520D1*
X1219932Y491339D1*
X1214026D1*
X1208121Y492520D1*
X1198672Y494882D1*
X1196310Y496063D1*
X1192766Y497244D1*
X1191585Y498425D1*
Y523228D1*
X1214026Y524409D1*
Y530315D1*
X1210483Y531496D1*
X1204577Y532677D1*
X1193948Y533858D1*
X1189223D1*
X1183318Y532677D1*
Y483071D1*
X1189223D1*
X1190404Y484252D1*
Y486614D1*
X1192766Y488976D1*
X1193867Y488584D1*
X1195129Y487795D1*
X1197491Y486614D1*
X1203396Y484252D1*
X1208121Y483071D1*
X1216388Y481890D1*
X1219932D1*
X1227018Y483071D1*
X1230562Y484252D1*
X1235286Y486614D1*
X1238829Y488976D1*
X1240010Y490157D1*
X1242373Y493701D1*
X1244735Y498425D1*
X1247097Y505512D1*
X1248278Y511417D1*
Y549213D1*
X1247097Y555118D1*
X1245916Y559843D1*
X1244735Y563386D1*
X1242373Y568110D1*
X1240010Y571654D1*
X1237648Y574016D1*
X1234105Y576378D1*
X1229381Y578740D1*
X1223475Y579921D1*
X1210483D1*
G37*
G36*
X1325050D2*
X1313239Y578740D1*
X1304971Y577559D1*
X1300247Y576378D1*
Y569291D1*
X1302609D1*
X1325050Y570472D1*
X1328987Y571654D1*
X1332924D1*
X1336861Y570472D1*
X1341585Y569291D1*
X1345129Y568110D1*
X1349853Y563386D1*
Y562205D1*
X1351034Y559843D1*
X1352215Y555118D1*
X1353396Y549213D1*
X1354577Y548031D1*
Y514961D1*
X1353396Y513780D1*
X1352215Y506693D1*
X1351034Y503150D1*
X1349853Y500787D1*
Y499606D1*
X1343948Y493701D1*
X1340404Y492520D1*
X1334499Y491339D1*
X1328593D1*
X1322688Y492520D1*
X1313239Y494882D1*
X1310877Y496063D1*
X1307333Y497244D1*
X1306152Y498425D1*
Y523228D1*
X1328593Y524409D1*
Y530315D1*
X1325050Y531496D1*
X1319144Y532677D1*
X1308514Y533858D1*
X1303790D1*
X1297885Y532677D1*
Y483071D1*
X1303790D1*
X1304971Y484252D1*
Y486614D1*
X1307333Y488976D1*
X1308433Y488584D1*
X1309696Y487795D1*
X1312058Y486614D1*
X1317963Y484252D1*
X1322688Y483071D1*
X1330955Y481890D1*
X1334499D1*
X1341585Y483071D1*
X1345129Y484252D1*
X1349853Y486614D1*
X1353396Y488976D1*
X1354577Y490157D1*
X1356940Y493701D1*
X1359302Y498425D1*
X1361664Y505512D1*
X1362845Y511417D1*
Y549213D1*
X1361664Y555118D1*
X1360483Y559843D1*
X1359302Y563386D1*
X1356940Y568110D1*
X1354577Y571654D1*
X1352215Y574016D1*
X1348672Y576378D1*
X1343948Y578740D1*
X1338042Y579921D1*
X1325050D1*
G37*
G36*
X1413633Y578740D2*
Y510236D1*
X1414814Y504331D1*
X1417176Y497244D1*
X1418357Y494882D1*
X1420719Y491339D1*
X1425444Y486614D1*
X1430168Y484252D1*
X1433711Y483071D1*
X1444341Y481890D1*
X1453790D1*
X1463239Y483071D1*
X1470325Y485433D1*
X1477412Y492520D1*
X1478593Y494882D1*
X1480955Y501969D1*
X1482136Y507874D1*
X1483318Y518504D1*
Y578740D1*
X1473869D1*
X1472688Y507874D1*
X1471507Y503150D1*
X1469144Y498425D1*
Y497244D1*
X1466782Y494882D1*
X1464420Y493701D1*
X1460877Y492520D1*
X1452215Y491339D1*
X1443554D1*
X1434892Y492520D1*
X1430168Y494882D1*
X1427806Y497244D1*
Y498425D1*
X1425444Y501969D1*
X1424262Y505512D1*
X1423081Y512598D1*
X1421900Y578740D1*
X1413633D1*
G37*
G36*
X1580168D2*
Y494882D1*
X1578987Y493701D1*
X1576625Y492520D1*
X1531743Y491339D1*
Y483071D1*
X1577806D1*
X1581349Y484252D1*
X1583711Y485433D1*
X1587255Y488976D1*
X1588436Y491339D1*
X1589617Y496063D1*
Y578740D1*
X1580168D1*
G37*
G36*
X1643948Y569291D2*
X1642766Y568110D1*
X1640404Y561024D1*
Y540945D1*
X1641585Y536220D1*
X1642766Y532677D1*
X1643948Y530315D1*
X1648672Y525591D1*
X1653396Y523228D1*
X1659302Y522047D1*
X1665207D1*
X1679381Y523228D1*
X1684105Y524409D1*
X1688829D1*
X1693554Y523228D1*
Y483071D1*
X1701822D1*
Y578740D1*
X1656940D1*
X1653396Y577559D1*
X1648672Y575197D1*
X1643948Y570472D1*
Y569291D1*
X1659302D1*
X1670719Y570472D1*
X1682136D1*
X1693554Y569291D1*
Y532677D1*
X1680955Y531496D1*
X1668357D1*
X1655759Y532677D1*
X1653396Y533858D1*
X1651034Y536220D1*
Y537402D1*
X1649853Y542126D1*
X1648672Y543307D1*
Y557480D1*
X1649853Y558661D1*
X1651034Y563386D1*
Y564567D1*
X1653396Y566929D1*
X1655759Y568110D1*
X1659302Y569291D1*
X1643948D1*
G37*
G36*
X1749066Y578740D2*
X1750017Y577215D1*
X1750247Y576378D1*
X1759696Y562205D1*
X1763239Y557480D1*
X1770325Y546850D1*
X1773869Y542126D1*
X1778593Y535039D1*
X1780955Y532677D1*
Y529134D1*
X1778593Y526772D1*
X1775050Y522047D1*
X1765601Y507874D1*
X1762058Y503150D1*
X1750247Y485433D1*
X1749066Y483071D1*
X1759696D1*
X1763239Y487795D1*
X1770325Y498425D1*
X1773869Y503150D1*
X1778593Y510236D1*
X1782136Y514961D1*
X1786861Y522047D1*
Y523228D1*
X1789223Y525591D1*
X1793160Y526772D1*
X1797097D1*
X1801034Y525591D1*
Y483071D1*
X1810483D1*
Y578740D1*
X1801034D1*
Y536220D1*
X1797097Y535039D1*
X1793160D1*
X1789223Y536220D1*
X1787822Y537548D1*
X1788042Y538583D1*
X1784499Y543307D1*
X1779774Y550394D1*
X1776231Y555118D1*
X1771507Y562205D1*
X1767963Y566929D1*
X1763239Y574016D1*
X1759696Y578740D1*
X1749066D1*
G37*
G36*
X1887255Y563386D2*
X1886073Y562205D1*
X1884892Y558661D1*
X1883711Y556299D1*
X1877806Y538583D1*
X1876625Y536220D1*
X1869538Y514961D1*
X1868357Y512598D1*
X1862451Y494882D1*
X1861270Y492520D1*
X1858908Y485433D1*
Y483071D1*
X1868357D1*
X1869538Y484252D1*
X1871900Y491339D1*
X1873081Y496063D1*
X1876625Y506693D1*
Y509055D1*
X1890010Y510236D1*
X1903396D1*
X1916782Y509055D1*
X1917963Y507874D1*
Y505512D1*
X1919144Y501969D1*
X1920325Y497244D1*
X1925050Y483071D1*
X1935680D1*
Y485433D1*
X1934499Y488976D1*
X1933318Y491339D1*
X1930955Y498425D1*
X1929774Y500787D1*
X1926231Y511417D1*
X1925050Y513780D1*
X1922688Y520866D1*
X1921507Y523228D1*
X1917963Y533858D1*
X1916782Y536220D1*
X1913239Y546850D1*
X1912058Y549213D1*
X1909696Y556299D1*
X1908514Y558661D1*
X1904971Y569291D1*
X1903790Y571654D1*
X1901428Y578740D1*
X1891979D1*
X1890798Y576378D1*
X1887255Y565748D1*
Y563386D1*
X1895522D1*
X1896404Y564144D1*
X1897002Y564045D1*
X1897674Y563069D1*
X1897885Y562205D1*
X1902609Y548031D1*
X1903790Y545669D1*
X1909696Y527953D1*
X1910877Y525591D1*
X1912058Y522047D1*
X1913009Y520522D1*
X1913239Y519685D1*
X1902215Y518504D1*
X1891192D1*
X1880168Y519685D1*
X1881349Y520866D1*
X1887255Y538583D1*
X1888436Y540945D1*
X1895522Y562205D1*
Y563386D1*
X1887255D1*
G37*
G36*
X1984105Y578740D2*
Y499606D1*
X1985286Y493701D1*
X1986467Y490157D1*
X1987648Y487795D1*
X1990010Y485433D1*
X1994735Y483071D1*
X2000640Y481890D1*
X2007727D1*
X2013633Y483071D1*
X2018357Y485433D1*
Y487795D1*
X2017176Y491339D1*
X2014814D1*
X2009696Y490157D1*
X2004577D1*
X1999459Y491339D1*
X1997097Y492520D1*
X1994735Y494882D1*
Y496063D1*
X1993554Y500787D1*
X1992373Y578740D1*
X1984105D1*
G37*
M02*
