G04 DipTrace 4.0.0.0*
G04 ringsoon.GBO*
%MOIN*%
G04 #@! TF.FileFunction,Legend,Bot*
G04 #@! TF.Part,Single*
%ADD10C,0.009843*%
%ADD22C,0.008*%
%ADD24C,0.006*%
%ADD25C,0.005984*%
%ADD33C,0.000013*%
%ADD42C,0.005*%
%ADD101C,0.004632*%
%FSLAX26Y26*%
G04*
G70*
G90*
G75*
G01*
G04 BotSilk*
%LPD*%
X2406805Y1509148D2*
D24*
X2406803Y1579183D1*
X2371858Y1544182D2*
X2441802Y1544184D1*
X2581686Y1594202D2*
X2581683Y1719188D1*
X2581689Y1494173D2*
X2581692Y1369188D1*
X2181680Y1494163D2*
X2181683Y1369177D1*
X2181677Y1594192D2*
X2181674Y1719177D1*
X2581683Y1719188D1*
X2581692Y1369188D2*
X2181683Y1369177D1*
X2581689Y1494173D2*
D25*
X2594164D1*
X2594161Y1594202D1*
X2581686D1*
X1416719Y694304D2*
D24*
X1346684D1*
X1381684Y659358D2*
Y729302D1*
X1331669Y869188D2*
X1206684D1*
X1431698D2*
X1556684D1*
X1431698Y469178D2*
X1556684D1*
X1331669D2*
X1206684D1*
Y869188D1*
X1556684D2*
Y469178D1*
X1431698Y869188D2*
D25*
Y881663D1*
X1331669D1*
Y869188D1*
X1856804Y1509148D2*
D24*
Y1579184D1*
X1821858Y1544184D2*
X1891802D1*
X2031688Y1594198D2*
Y1719184D1*
Y1494169D2*
Y1369184D1*
X1631678Y1494169D2*
Y1369184D1*
Y1594198D2*
Y1719184D1*
X2031688D1*
Y1369184D2*
X1631678D1*
X2031688Y1494169D2*
D25*
X2044163D1*
Y1594198D1*
X2031688D1*
X1306562Y1579219D2*
D24*
X1306564Y1509184D1*
X1341509Y1544185D2*
X1271566Y1544183D1*
X1131681Y1494166D2*
X1131683Y1369181D1*
X1131679Y1594195D2*
X1131677Y1719181D1*
X1531688Y1594203D2*
X1531686Y1719188D1*
X1531690Y1494174D2*
X1531692Y1369188D1*
X1131683Y1369181D1*
X1131677Y1719181D2*
X1531686Y1719188D1*
X1131679Y1594195D2*
D25*
X1119204D1*
X1119206Y1494166D1*
X1131681D1*
X756562Y1579219D2*
D24*
X756564Y1509184D1*
X791509Y1544185D2*
X721566Y1544183D1*
X581681Y1494166D2*
X581683Y1369181D1*
X581679Y1594195D2*
X581677Y1719181D1*
X981688Y1594203D2*
X981686Y1719188D1*
X981690Y1494174D2*
X981692Y1369188D1*
X581683Y1369181D1*
X581677Y1719181D2*
X981686Y1719188D1*
X581679Y1594195D2*
D25*
X569204D1*
X569206Y1494166D1*
X581681D1*
X2216719Y694304D2*
D24*
X2146684D1*
X2181684Y659358D2*
Y729302D1*
X2131669Y869188D2*
X2006684D1*
X2231698D2*
X2356684D1*
X2231698Y469178D2*
X2356684D1*
X2131669D2*
X2006684D1*
Y869188D1*
X2356684D2*
Y469178D1*
X2231698Y869188D2*
D25*
Y881663D1*
X2131669D1*
Y869188D1*
X2616719Y694304D2*
D24*
X2546684D1*
X2581684Y659358D2*
Y729302D1*
X2531669Y869188D2*
X2406684D1*
X2631698D2*
X2756684D1*
X2631698Y469178D2*
X2756684D1*
X2531669D2*
X2406684D1*
Y869188D1*
X2756684D2*
Y469178D1*
X2631698Y869188D2*
D25*
Y881663D1*
X2531669D1*
Y869188D1*
X1816719Y694304D2*
D24*
X1746684D1*
X1781684Y659358D2*
Y729302D1*
X1731669Y869188D2*
X1606684D1*
X1831698D2*
X1956684D1*
X1831698Y469178D2*
X1956684D1*
X1731669D2*
X1606684D1*
Y869188D1*
X1956684D2*
Y469178D1*
X1831698Y869188D2*
D25*
Y881663D1*
X1731669D1*
Y869188D1*
X616719Y694304D2*
D24*
X546684D1*
X581684Y659358D2*
Y729302D1*
X531669Y869188D2*
X406684D1*
X631698D2*
X756684D1*
X631698Y469178D2*
X756684D1*
X531669D2*
X406684D1*
Y869188D1*
X756684D2*
Y469178D1*
X631698Y869188D2*
D25*
Y881663D1*
X531669D1*
Y869188D1*
X1016719Y694304D2*
D24*
X946684D1*
X981684Y659358D2*
Y729302D1*
X931669Y869188D2*
X806684D1*
X1031698D2*
X1156684D1*
X1031698Y469178D2*
X1156684D1*
X931669D2*
X806684D1*
Y869188D1*
X1156684D2*
Y469178D1*
X1031698Y869188D2*
D25*
Y881663D1*
X931669D1*
Y869188D1*
X2230502Y4540444D2*
D33*
G02X2230502Y4540444I51181J0D01*
G01*
X2331683Y4590444D2*
D42*
G03X2331683Y4490444I-50000J-50000D01*
G01*
Y4590444D2*
Y4490444D1*
X830502Y4540444D2*
D33*
G02X830502Y4540444I51181J0D01*
G01*
X931683Y4590444D2*
D42*
G03X931683Y4490444I-50000J-50000D01*
G01*
Y4590444D2*
Y4490444D1*
X681698Y3975495D2*
D33*
G02X681698Y3975495I99986J0D01*
G01*
X950762Y4190445D2*
D42*
X612605D1*
Y3805016D1*
X950762D1*
Y4190445D1*
X738381Y3950884D2*
D22*
G02X824987Y3950884I43303J24588D01*
G01*
X738381D2*
X824987D1*
X685218D2*
X877136D1*
X1958865Y2604375D2*
D10*
X1604503D1*
X1958865D2*
Y4383992D1*
X1604503Y2604375D2*
Y4383992D1*
X1958865D2*
X1604503D1*
X1831703Y4244114D2*
X1731664D1*
X1831703D2*
Y2744253D1*
X1731664D2*
X1831703D1*
X1731664D2*
Y4244114D1*
G36*
X1860423Y2746210D2*
Y2745778D1*
Y2744503D1*
Y2742437D1*
Y2739674D1*
Y2736333D1*
Y2732560D1*
Y2728521D1*
Y2724391D1*
Y2720352D1*
Y2716580D1*
Y2713239D1*
Y2710475D1*
Y2708411D1*
Y2707134D1*
Y2706702D1*
Y2707134D1*
Y2708411D1*
Y2710475D1*
Y2713239D1*
Y2716580D1*
Y2720352D1*
Y2724391D1*
Y2728521D1*
Y2732560D1*
Y2736333D1*
Y2739674D1*
Y2742437D1*
Y2744503D1*
Y2745778D1*
Y2746210D1*
G37*
G36*
X1841678Y2726507D2*
X1841847Y2729079D1*
X1842350Y2731607D1*
X1843178Y2734047D1*
X1844318Y2736359D1*
X1845750Y2738501D1*
X1847449Y2740439D1*
X1849387Y2742138D1*
X1851530Y2743570D1*
X1853841Y2744710D1*
X1856282Y2745539D1*
X1858809Y2746041D1*
X1861381Y2746210D1*
X1863953Y2746041D1*
X1866481Y2745539D1*
X1868921Y2744710D1*
X1871233Y2743570D1*
X1873375Y2742138D1*
X1875313Y2740439D1*
X1877012Y2738501D1*
X1878444Y2736359D1*
X1879584Y2734047D1*
X1880413Y2731607D1*
X1880915Y2729079D1*
X1881084Y2726507D1*
Y2726405D1*
X1880915Y2723833D1*
X1880413Y2721305D1*
X1879584Y2718865D1*
X1878444Y2716553D1*
X1877012Y2714411D1*
X1875313Y2712473D1*
X1873375Y2710774D1*
X1871233Y2709342D1*
X1868921Y2708202D1*
X1866481Y2707373D1*
X1863953Y2706871D1*
X1861381Y2706702D1*
X1858809Y2706871D1*
X1856282Y2707373D1*
X1853841Y2708202D1*
X1851530Y2709342D1*
X1849387Y2710774D1*
X1847449Y2712473D1*
X1845750Y2714411D1*
X1844318Y2716553D1*
X1843178Y2718865D1*
X1842350Y2721305D1*
X1841847Y2723833D1*
X1841678Y2726405D1*
Y2726507D1*
G37*
X2758865Y2604375D2*
D10*
X2404503D1*
X2758865D2*
Y4383992D1*
X2404503Y2604375D2*
Y4383992D1*
X2758865D2*
X2404503D1*
X2631703Y4244114D2*
X2531664D1*
X2631703D2*
Y2744253D1*
X2531664D2*
X2631703D1*
X2531664D2*
Y4244114D1*
G36*
X2660423Y2746210D2*
Y2745778D1*
Y2744503D1*
Y2742437D1*
Y2739674D1*
Y2736333D1*
Y2732560D1*
Y2728521D1*
Y2724391D1*
Y2720352D1*
Y2716580D1*
Y2713239D1*
Y2710475D1*
Y2708411D1*
Y2707134D1*
Y2706702D1*
Y2707134D1*
Y2708411D1*
Y2710475D1*
Y2713239D1*
Y2716580D1*
Y2720352D1*
Y2724391D1*
Y2728521D1*
Y2732560D1*
Y2736333D1*
Y2739674D1*
Y2742437D1*
Y2744503D1*
Y2745778D1*
Y2746210D1*
G37*
G36*
X2641678Y2726507D2*
X2641847Y2729079D1*
X2642350Y2731607D1*
X2643178Y2734047D1*
X2644318Y2736359D1*
X2645750Y2738501D1*
X2647449Y2740439D1*
X2649387Y2742138D1*
X2651530Y2743570D1*
X2653841Y2744710D1*
X2656282Y2745539D1*
X2658809Y2746041D1*
X2661381Y2746210D1*
X2663953Y2746041D1*
X2666481Y2745539D1*
X2668921Y2744710D1*
X2671233Y2743570D1*
X2673375Y2742138D1*
X2675313Y2740439D1*
X2677012Y2738501D1*
X2678444Y2736359D1*
X2679584Y2734047D1*
X2680413Y2731607D1*
X2680915Y2729079D1*
X2681084Y2726507D1*
Y2726405D1*
X2680915Y2723833D1*
X2680413Y2721305D1*
X2679584Y2718865D1*
X2678444Y2716553D1*
X2677012Y2714411D1*
X2675313Y2712473D1*
X2673375Y2710774D1*
X2671233Y2709342D1*
X2668921Y2708202D1*
X2666481Y2707373D1*
X2663953Y2706871D1*
X2661381Y2706702D1*
X2658809Y2706871D1*
X2656282Y2707373D1*
X2653841Y2708202D1*
X2651530Y2709342D1*
X2649387Y2710774D1*
X2647449Y2712473D1*
X2645750Y2714411D1*
X2644318Y2716553D1*
X2643178Y2718865D1*
X2642350Y2721305D1*
X2641847Y2723833D1*
X2641678Y2726405D1*
Y2726507D1*
G37*
X2358865Y2604375D2*
D10*
X2004503D1*
X2358865D2*
Y4383992D1*
X2004503Y2604375D2*
Y4383992D1*
X2358865D2*
X2004503D1*
X2231703Y4244114D2*
X2131664D1*
X2231703D2*
Y2744253D1*
X2131664D2*
X2231703D1*
X2131664D2*
Y4244114D1*
G36*
X2260423Y2746210D2*
Y2745778D1*
Y2744503D1*
Y2742437D1*
Y2739674D1*
Y2736333D1*
Y2732560D1*
Y2728521D1*
Y2724391D1*
Y2720352D1*
Y2716580D1*
Y2713239D1*
Y2710475D1*
Y2708411D1*
Y2707134D1*
Y2706702D1*
Y2707134D1*
Y2708411D1*
Y2710475D1*
Y2713239D1*
Y2716580D1*
Y2720352D1*
Y2724391D1*
Y2728521D1*
Y2732560D1*
Y2736333D1*
Y2739674D1*
Y2742437D1*
Y2744503D1*
Y2745778D1*
Y2746210D1*
G37*
G36*
X2241678Y2726507D2*
X2241847Y2729079D1*
X2242350Y2731607D1*
X2243178Y2734047D1*
X2244318Y2736359D1*
X2245750Y2738501D1*
X2247449Y2740439D1*
X2249387Y2742138D1*
X2251530Y2743570D1*
X2253841Y2744710D1*
X2256282Y2745539D1*
X2258809Y2746041D1*
X2261381Y2746210D1*
X2263953Y2746041D1*
X2266481Y2745539D1*
X2268921Y2744710D1*
X2271233Y2743570D1*
X2273375Y2742138D1*
X2275313Y2740439D1*
X2277012Y2738501D1*
X2278444Y2736359D1*
X2279584Y2734047D1*
X2280413Y2731607D1*
X2280915Y2729079D1*
X2281084Y2726507D1*
Y2726405D1*
X2280915Y2723833D1*
X2280413Y2721305D1*
X2279584Y2718865D1*
X2278444Y2716553D1*
X2277012Y2714411D1*
X2275313Y2712473D1*
X2273375Y2710774D1*
X2271233Y2709342D1*
X2268921Y2708202D1*
X2266481Y2707373D1*
X2263953Y2706871D1*
X2261381Y2706702D1*
X2258809Y2706871D1*
X2256282Y2707373D1*
X2253841Y2708202D1*
X2251530Y2709342D1*
X2249387Y2710774D1*
X2247449Y2712473D1*
X2245750Y2714411D1*
X2244318Y2716553D1*
X2243178Y2718865D1*
X2242350Y2721305D1*
X2241847Y2723833D1*
X2241678Y2726405D1*
Y2726507D1*
G37*
X1558865Y2604375D2*
D10*
X1204503D1*
X1558865D2*
Y4383992D1*
X1204503Y2604375D2*
Y4383992D1*
X1558865D2*
X1204503D1*
X1431703Y4244114D2*
X1331664D1*
X1431703D2*
Y2744253D1*
X1331664D2*
X1431703D1*
X1331664D2*
Y4244114D1*
G36*
X1460423Y2746210D2*
Y2745778D1*
Y2744503D1*
Y2742437D1*
Y2739674D1*
Y2736333D1*
Y2732560D1*
Y2728521D1*
Y2724391D1*
Y2720352D1*
Y2716580D1*
Y2713239D1*
Y2710475D1*
Y2708411D1*
Y2707134D1*
Y2706702D1*
Y2707134D1*
Y2708411D1*
Y2710475D1*
Y2713239D1*
Y2716580D1*
Y2720352D1*
Y2724391D1*
Y2728521D1*
Y2732560D1*
Y2736333D1*
Y2739674D1*
Y2742437D1*
Y2744503D1*
Y2745778D1*
Y2746210D1*
G37*
G36*
X1441678Y2726507D2*
X1441847Y2729079D1*
X1442350Y2731607D1*
X1443178Y2734047D1*
X1444318Y2736359D1*
X1445750Y2738501D1*
X1447449Y2740439D1*
X1449387Y2742138D1*
X1451530Y2743570D1*
X1453841Y2744710D1*
X1456282Y2745539D1*
X1458809Y2746041D1*
X1461381Y2746210D1*
X1463953Y2746041D1*
X1466481Y2745539D1*
X1468921Y2744710D1*
X1471233Y2743570D1*
X1473375Y2742138D1*
X1475313Y2740439D1*
X1477012Y2738501D1*
X1478444Y2736359D1*
X1479584Y2734047D1*
X1480413Y2731607D1*
X1480915Y2729079D1*
X1481084Y2726507D1*
Y2726405D1*
X1480915Y2723833D1*
X1480413Y2721305D1*
X1479584Y2718865D1*
X1478444Y2716553D1*
X1477012Y2714411D1*
X1475313Y2712473D1*
X1473375Y2710774D1*
X1471233Y2709342D1*
X1468921Y2708202D1*
X1466481Y2707373D1*
X1463953Y2706871D1*
X1461381Y2706702D1*
X1458809Y2706871D1*
X1456282Y2707373D1*
X1453841Y2708202D1*
X1451530Y2709342D1*
X1449387Y2710774D1*
X1447449Y2712473D1*
X1445750Y2714411D1*
X1444318Y2716553D1*
X1443178Y2718865D1*
X1442350Y2721305D1*
X1441847Y2723833D1*
X1441678Y2726405D1*
Y2726507D1*
G37*
X2306698Y2194194D2*
D33*
G02X2306698Y2194194I99986J0D01*
G01*
X2575762Y2409144D2*
D42*
X2237605D1*
Y2023715D1*
X2575762D1*
Y2409144D1*
X2363381Y2169584D2*
D22*
G02X2449987Y2169584I43303J24588D01*
G01*
X2363381D2*
X2449987D1*
X2310218D2*
X2502136D1*
X681698Y3194194D2*
D33*
G02X681698Y3194194I99986J0D01*
G01*
X950762Y3409144D2*
D42*
X612605D1*
Y3023715D1*
X950762D1*
Y3409144D1*
X738381Y3169584D2*
D22*
G02X824987Y3169584I43303J24588D01*
G01*
X738381D2*
X824987D1*
X685218D2*
X877136D1*
X1756698Y2194194D2*
D33*
G02X1756698Y2194194I99986J0D01*
G01*
X2025762Y2409144D2*
D42*
X1687605D1*
Y2023715D1*
X2025762D1*
Y2409144D1*
X1813381Y2169584D2*
D22*
G02X1899987Y2169584I43303J24588D01*
G01*
X1813381D2*
X1899987D1*
X1760218D2*
X1952136D1*
X1206698Y2194194D2*
D33*
G02X1206698Y2194194I99986J0D01*
G01*
X1475762Y2409144D2*
D42*
X1137605D1*
Y2023715D1*
X1475762D1*
Y2409144D1*
X1263381Y2169584D2*
D22*
G02X1349987Y2169584I43303J24588D01*
G01*
X1263381D2*
X1349987D1*
X1210218D2*
X1402136D1*
X656698Y2194194D2*
D33*
G02X656698Y2194194I99986J0D01*
G01*
X925762Y2409144D2*
D42*
X587605D1*
Y2023715D1*
X925762D1*
Y2409144D1*
X713381Y2169584D2*
D22*
G02X799987Y2169584I43303J24588D01*
G01*
X713381D2*
X799987D1*
X660218D2*
X852136D1*
X2511684Y4544184D2*
D33*
G02X2511684Y4544184I70000J0D01*
G01*
X2496684Y4664184D2*
D22*
X2666684D1*
Y4424184D2*
X2496684D1*
X2461684Y4583475D2*
Y4504184D1*
X2701684Y4584656D2*
Y4504184D1*
X511684Y4544184D2*
D33*
G02X511684Y4544184I70000J0D01*
G01*
X666686Y4424186D2*
D22*
X496686Y4424182D1*
X496681Y4664182D2*
X666681Y4664186D1*
X701685Y4504895D2*
X701683Y4584186D1*
X461685Y4503709D2*
X461683Y4584181D1*
X2427639Y1325250D2*
D101*
X2427638Y1348198D1*
X2426212Y1352509D1*
X2424753Y1353935D1*
X2421901Y1355394D1*
X2419016D1*
X2416164Y1353934D1*
X2414738Y1352508D1*
X2413279Y1348197D1*
Y1345345D1*
X2436902Y1331020D2*
X2439787Y1329561D1*
X2444099Y1325283D1*
X2444098Y1355394D1*
X2548489Y1350741D2*
X2548490Y1320597D1*
X2548489Y1336382D2*
X2545604Y1339267D1*
X2542752Y1340693D1*
X2538441D1*
X2535589Y1339267D1*
X2532704Y1336382D1*
X2531279Y1332071D1*
Y1329219D1*
X2532705Y1324908D1*
X2535590Y1322056D1*
X2538442Y1320597D1*
X2542753D1*
X2545605Y1322056D1*
X2548490Y1324908D1*
X2522015Y1340693D2*
Y1320597D1*
Y1332070D2*
X2520556Y1336381D1*
X2517704Y1339266D1*
X2514819Y1340692D1*
X2510508D1*
X2501244Y1350740D2*
X2499818Y1349314D1*
X2498359Y1350740D1*
X2499818Y1352199D1*
X2501244Y1350740D1*
X2499818Y1340692D2*
X2499819Y1320596D1*
X2471885Y1339265D2*
Y1316284D1*
X2473311Y1312006D1*
X2474737Y1310547D1*
X2477622Y1309121D1*
X2481933Y1309122D1*
X2484785Y1310548D1*
X2471885Y1334954D2*
X2474737Y1337806D1*
X2477622Y1339265D1*
X2481933Y1339266D1*
X2484785Y1337806D1*
X2487670Y1334955D1*
X2489096Y1330644D1*
Y1327759D1*
X2487670Y1323481D1*
X2484785Y1320596D1*
X2481933Y1319170D1*
X2477622Y1319169D1*
X2474737Y1320595D1*
X2471885Y1323480D1*
X2462621Y1350739D2*
X2462622Y1320595D1*
X2462621Y1334954D2*
X2458310Y1339265D1*
X2455425Y1340691D1*
X2451114D1*
X2448262Y1339265D1*
X2446836Y1334954D1*
X2446837Y1320595D1*
X2433261Y1350738D2*
X2433262Y1326331D1*
X2431836Y1322053D1*
X2428951Y1320594D1*
X2426099D1*
X2437572Y1340690D2*
X2427524D1*
X1389184Y1007618D2*
Y984670D1*
X1390610Y980359D1*
X1392069Y978933D1*
X1394921Y977474D1*
X1397806D1*
X1400658Y978933D1*
X1402084Y980359D1*
X1403543Y984670D1*
Y987522D1*
X1378461Y1000421D2*
Y1001847D1*
X1377035Y1004732D1*
X1375609Y1006158D1*
X1372724Y1007584D1*
X1366987D1*
X1364135Y1006158D1*
X1362709Y1004732D1*
X1361250Y1001847D1*
Y998995D1*
X1362709Y996110D1*
X1365561Y991833D1*
X1379920Y977474D1*
X1359824D1*
X1434533Y458508D2*
X1453203D1*
Y428364D1*
Y444149D2*
X1441729D1*
X1402322Y428364D2*
Y458508D1*
X1413796Y428364D1*
X1425270Y458508D1*
Y428364D1*
X1342376Y451346D2*
X1343802Y454197D1*
X1346687Y457082D1*
X1349539Y458508D1*
X1355276D1*
X1358161Y457082D1*
X1361012Y454197D1*
X1362472Y451346D1*
X1363898Y447034D1*
Y439838D1*
X1362472Y435561D1*
X1361012Y432675D1*
X1358161Y429824D1*
X1355276Y428364D1*
X1349539D1*
X1346687Y429824D1*
X1343802Y432675D1*
X1342376Y435561D1*
X1333112Y458508D2*
X1321638Y428364D1*
X1310164Y458508D1*
X1871183Y1325250D2*
Y1348198D1*
X1869757Y1352509D1*
X1868298Y1353935D1*
X1865446Y1355394D1*
X1862561D1*
X1859709Y1353935D1*
X1858283Y1352509D1*
X1856824Y1348198D1*
Y1345346D1*
X1883332Y1325283D2*
X1899084D1*
X1890495Y1336757D1*
X1894806D1*
X1897658Y1338183D1*
X1899084Y1339609D1*
X1900543Y1343920D1*
Y1346772D1*
X1899084Y1351083D1*
X1896232Y1353968D1*
X1891921Y1355394D1*
X1887610D1*
X1883332Y1353968D1*
X1881906Y1352509D1*
X1880447Y1349657D1*
X1739988Y1354774D2*
Y1324630D1*
Y1340415D2*
X1742840Y1343300D1*
X1745725Y1344726D1*
X1750036D1*
X1752888Y1343300D1*
X1755773Y1340415D1*
X1757199Y1336103D1*
Y1333252D1*
X1755773Y1328941D1*
X1752888Y1326089D1*
X1750036Y1324630D1*
X1745725D1*
X1742840Y1326089D1*
X1739988Y1328941D1*
X1713514Y1344726D2*
Y1324630D1*
Y1340415D2*
X1716366Y1343300D1*
X1719251Y1344726D1*
X1723529D1*
X1726414Y1343300D1*
X1729265Y1340415D1*
X1730725Y1336103D1*
Y1333252D1*
X1729265Y1328941D1*
X1726414Y1326089D1*
X1723529Y1324630D1*
X1719251D1*
X1716366Y1326089D1*
X1713514Y1328941D1*
X1704250Y1344726D2*
Y1324630D1*
Y1338989D2*
X1699939Y1343300D1*
X1697054Y1344726D1*
X1692776D1*
X1689891Y1343300D1*
X1688465Y1338989D1*
Y1324630D1*
Y1338989D2*
X1684154Y1343300D1*
X1681269Y1344726D1*
X1676991D1*
X1674106Y1343300D1*
X1672647Y1338989D1*
Y1324630D1*
X1663383Y1344726D2*
Y1314582D1*
Y1340415D2*
X1660498Y1343266D1*
X1657646Y1344726D1*
X1653335D1*
X1650450Y1343266D1*
X1647598Y1340415D1*
X1646139Y1336103D1*
Y1333218D1*
X1647598Y1328941D1*
X1650450Y1326055D1*
X1653335Y1324630D1*
X1657646D1*
X1660498Y1326055D1*
X1663383Y1328941D1*
X1186582Y1346975D2*
X1209529Y1346976D1*
X1213840Y1348402D1*
X1215266Y1349861D1*
X1216725Y1352713D1*
Y1355598D1*
X1215266Y1358450D1*
X1213840Y1359876D1*
X1209529Y1361335D1*
X1206677D1*
X1216726Y1323353D2*
X1186615D1*
X1206678Y1337712D1*
Y1316190D1*
X1496702Y1349345D2*
X1496703Y1326364D1*
X1498129Y1322087D1*
X1499555Y1320627D1*
X1502440Y1319202D1*
X1506751D1*
X1509603Y1320628D1*
X1496702Y1345034D2*
X1499554Y1347886D1*
X1502439Y1349346D1*
X1506750D1*
X1509602Y1347887D1*
X1512487Y1345035D1*
X1513913Y1340724D1*
Y1337839D1*
X1512487Y1333561D1*
X1509602Y1330676D1*
X1506750Y1329250D1*
X1502439D1*
X1499554Y1330675D1*
X1496702Y1333560D1*
X1487439Y1342149D2*
X1470228D1*
Y1345034D1*
X1471654Y1347919D1*
X1473080Y1349345D1*
X1475965Y1350771D1*
X1480276D1*
X1483128Y1349345D1*
X1486013Y1346460D1*
X1487439Y1342149D1*
Y1339297D1*
X1486013Y1334986D1*
X1483128Y1332134D1*
X1480276Y1330675D1*
X1475965D1*
X1473080Y1332134D1*
X1470228Y1334986D1*
X1453801Y1350771D2*
X1456653Y1349345D1*
X1459538Y1346460D1*
X1460964Y1342149D1*
Y1339297D1*
X1459538Y1334986D1*
X1456653Y1332134D1*
X1453801Y1330675D1*
X1449490D1*
X1446605Y1332134D1*
X1443753Y1334985D1*
X1442294Y1339296D1*
Y1342148D1*
X1443753Y1346459D1*
X1446605Y1349345D1*
X1449490Y1350771D1*
X1453801D1*
X1433030Y1350770D2*
X1433031Y1330674D1*
Y1345033D2*
X1428719Y1349344D1*
X1425834Y1350770D1*
X1421556D1*
X1418671Y1349344D1*
X1417246Y1345033D1*
Y1330674D1*
Y1345033D2*
X1412934Y1349344D1*
X1410049Y1350770D1*
X1405772D1*
X1402886Y1349344D1*
X1401427Y1345033D1*
X1401428Y1330674D1*
X727187Y1325250D2*
Y1348198D1*
X725761Y1352509D1*
X724302Y1353935D1*
X721450Y1355394D1*
X718565D1*
X715713Y1353934D1*
X714287Y1352508D1*
X712828Y1348197D1*
Y1345345D1*
X753662Y1325283D2*
X739336D1*
X737910Y1338183D1*
X739336Y1336757D1*
X743647Y1335298D1*
X747925D1*
X752236Y1336757D1*
X755121Y1339609D1*
X756547Y1343920D1*
Y1346772D1*
X755121Y1351083D1*
X752235Y1353968D1*
X747924Y1355394D1*
X743647D1*
X739336Y1353968D1*
X737910Y1352509D1*
X736451Y1349657D1*
X942783Y1346744D2*
X942784Y1316600D1*
X942783Y1342433D2*
X939898Y1345285D1*
X937046Y1346744D1*
X932735D1*
X929850Y1345284D1*
X926998Y1342432D1*
X925539Y1338121D1*
Y1335236D1*
X926999Y1330959D1*
X929851Y1328074D1*
X932736Y1326648D1*
X937047D1*
X939899Y1328074D1*
X942784Y1330959D1*
X909113Y1346743D2*
X911965Y1345317D1*
X914850Y1342432D1*
X916276Y1338121D1*
Y1335269D1*
X914850Y1330958D1*
X911965Y1328106D1*
X909113Y1326647D1*
X904802D1*
X901917Y1328106D1*
X899065Y1330958D1*
X897606Y1335269D1*
Y1338121D1*
X899065Y1342432D1*
X901917Y1345317D1*
X904802Y1346743D1*
X909113D1*
X872557Y1342431D2*
X873983Y1345317D1*
X878294Y1346743D1*
X882605D1*
X886916Y1345317D1*
X888342Y1342432D1*
X886916Y1339580D1*
X884031Y1338121D1*
X876868Y1336695D1*
X873983Y1335269D1*
X872557Y1332383D1*
Y1330958D1*
X873983Y1328106D1*
X878294Y1326647D1*
X882605D1*
X886916Y1328106D1*
X888342Y1330958D1*
X2188454Y1007618D2*
Y984670D1*
X2189880Y980359D1*
X2191339Y978933D1*
X2194191Y977474D1*
X2197076D1*
X2199928Y978933D1*
X2201354Y980359D1*
X2202813Y984670D1*
Y987522D1*
X2161980Y1003306D2*
X2163406Y1006158D1*
X2167717Y1007584D1*
X2170569D1*
X2174880Y1006158D1*
X2177765Y1001847D1*
X2179191Y994684D1*
Y987522D1*
X2177765Y981785D1*
X2174880Y978899D1*
X2170569Y977474D1*
X2169143D1*
X2164865Y978899D1*
X2161980Y981785D1*
X2160554Y986096D1*
Y987522D1*
X2161980Y991833D1*
X2164865Y994684D1*
X2169143Y996110D1*
X2170569D1*
X2174880Y994684D1*
X2177765Y991833D1*
X2179191Y987522D1*
X2227503Y444149D2*
X2228929Y447034D1*
X2233240Y448460D1*
X2237551D1*
X2241862Y447034D1*
X2243288Y444149D1*
X2241862Y441298D1*
X2238977Y439838D1*
X2231814Y438412D1*
X2228929Y436986D1*
X2227503Y434101D1*
Y432675D1*
X2228929Y429824D1*
X2233240Y428364D1*
X2237551D1*
X2241862Y429824D1*
X2243288Y432675D1*
X2213928Y458508D2*
Y434101D1*
X2212502Y429824D1*
X2209617Y428364D1*
X2206765D1*
X2218239Y448460D2*
X2208191D1*
X2197502D2*
Y428364D1*
Y439838D2*
X2196043Y444149D1*
X2193191Y447034D1*
X2190306Y448460D1*
X2185995D1*
X2176731D2*
Y434101D1*
X2175305Y429824D1*
X2172420Y428364D1*
X2168109D1*
X2165257Y429824D1*
X2160946Y434101D1*
Y448460D2*
Y428364D1*
X2151683Y448460D2*
Y428364D1*
Y442723D2*
X2147372Y447034D1*
X2144487Y448460D1*
X2140209D1*
X2137324Y447034D1*
X2135898Y442723D1*
Y428364D1*
Y442723D2*
X2131587Y447034D1*
X2128702Y448460D1*
X2124424D1*
X2121539Y447034D1*
X2120079Y442723D1*
Y428364D1*
X2589184Y1007618D2*
Y984670D1*
X2590610Y980359D1*
X2592069Y978933D1*
X2594921Y977474D1*
X2597806D1*
X2600658Y978933D1*
X2602084Y980359D1*
X2603543Y984670D1*
Y987522D1*
X2574183Y977474D2*
X2559824Y1007584D1*
X2579920D1*
X2627879Y448460D2*
X2619256Y428364D1*
X2610668Y448460D1*
X2594241D2*
X2597093Y447034D1*
X2599978Y444149D1*
X2601404Y439838D1*
Y436986D1*
X2599978Y432675D1*
X2597093Y429824D1*
X2594241Y428364D1*
X2589930D1*
X2587045Y429824D1*
X2584193Y432675D1*
X2582734Y436986D1*
Y439838D1*
X2584193Y444149D1*
X2587045Y447034D1*
X2589930Y448460D1*
X2594241D1*
X2556226Y444149D2*
X2559111Y447034D1*
X2561996Y448460D1*
X2566274D1*
X2569159Y447034D1*
X2572011Y444149D1*
X2573470Y439838D1*
Y436986D1*
X2572011Y432675D1*
X2569159Y429824D1*
X2566274Y428364D1*
X2561996D1*
X2559111Y429824D1*
X2556226Y432675D1*
X2542652Y458508D2*
Y434101D1*
X2541226Y429824D1*
X2538341Y428364D1*
X2535489D1*
X2546963Y448460D2*
X2536915D1*
X1789167Y1007618D2*
Y984670D1*
X1790593Y980359D1*
X1792052Y978933D1*
X1794904Y977474D1*
X1797789D1*
X1800641Y978933D1*
X1802067Y980359D1*
X1803526Y984670D1*
Y987522D1*
X1772741Y1007584D2*
X1777019Y1006158D1*
X1778478Y1003306D1*
Y1000421D1*
X1777019Y997570D1*
X1774167Y996110D1*
X1768430Y994684D1*
X1764119Y993258D1*
X1761267Y990373D1*
X1759841Y987522D1*
Y983210D1*
X1761267Y980359D1*
X1762693Y978899D1*
X1767004Y977474D1*
X1772741D1*
X1777019Y978899D1*
X1778478Y980359D1*
X1779904Y983210D1*
Y987522D1*
X1778478Y990373D1*
X1775593Y993258D1*
X1771315Y994684D1*
X1765578Y996110D1*
X1762693Y997570D1*
X1761267Y1000421D1*
Y1003306D1*
X1762693Y1006158D1*
X1767004Y1007584D1*
X1772741D1*
X1795650Y458508D2*
X1794225Y457082D1*
X1792765Y458508D1*
X1794225Y459968D1*
X1795650Y458508D1*
X1794225Y448460D2*
Y428364D1*
X1783502Y448460D2*
Y428364D1*
Y442723D2*
X1779191Y447034D1*
X1776306Y448460D1*
X1772028D1*
X1769143Y447034D1*
X1767717Y442723D1*
Y428364D1*
X588471Y1007618D2*
Y984670D1*
X589897Y980359D1*
X591356Y978933D1*
X594208Y977474D1*
X597093D1*
X599945Y978933D1*
X601371Y980359D1*
X602830Y984670D1*
Y987522D1*
X560537Y997570D2*
X561996Y993258D1*
X564848Y990373D1*
X569159Y988947D1*
X570585D1*
X574896Y990373D1*
X577748Y993258D1*
X579207Y997570D1*
Y998995D1*
X577748Y1003306D1*
X574896Y1006158D1*
X570585Y1007584D1*
X569159D1*
X564848Y1006158D1*
X561996Y1003306D1*
X560537Y997570D1*
Y990373D1*
X561996Y983210D1*
X564848Y978899D1*
X569159Y977474D1*
X572011D1*
X576322Y978899D1*
X577748Y981785D1*
X610330Y448460D2*
X613182Y447034D1*
X616067Y444149D1*
X617493Y439838D1*
Y436986D1*
X616067Y432675D1*
X613182Y429824D1*
X610330Y428364D1*
X606019D1*
X603134Y429824D1*
X600282Y432675D1*
X598823Y436986D1*
Y439838D1*
X600282Y444149D1*
X603134Y447034D1*
X606019Y448460D1*
X610330D1*
X572349Y458508D2*
Y428364D1*
Y444149D2*
X575201Y447034D1*
X578086Y448460D1*
X582397D1*
X585249Y447034D1*
X588134Y444149D1*
X589560Y439838D1*
Y436986D1*
X588134Y432675D1*
X585249Y429824D1*
X582397Y428364D1*
X578086D1*
X575201Y429824D1*
X572349Y432675D1*
X545874Y458508D2*
Y428364D1*
Y444149D2*
X548726Y447034D1*
X551611Y448460D1*
X555922D1*
X558774Y447034D1*
X561659Y444149D1*
X563085Y439838D1*
Y436986D1*
X561659Y432675D1*
X558774Y429824D1*
X555922Y428364D1*
X551611D1*
X548726Y429824D1*
X545874Y432675D1*
X997414Y1007618D2*
Y984670D1*
X998840Y980359D1*
X1000299Y978933D1*
X1003151Y977474D1*
X1006036D1*
X1008888Y978933D1*
X1010314Y980359D1*
X1011773Y984670D1*
Y987522D1*
X988150Y1001847D2*
X985265Y1003306D1*
X980954Y1007584D1*
Y977474D1*
X963069Y1007584D2*
X967380Y1006158D1*
X970265Y1001847D1*
X971691Y994684D1*
Y990373D1*
X970265Y983210D1*
X967380Y978899D1*
X963069Y977474D1*
X960217D1*
X955906Y978899D1*
X953054Y983210D1*
X951595Y990373D1*
Y994684D1*
X953054Y1001847D1*
X955906Y1006158D1*
X960217Y1007584D1*
X963069D1*
X953054Y1001847D2*
X970265Y983210D1*
X1029288Y439838D2*
X1012077D1*
Y442723D1*
X1013503Y445609D1*
X1014929Y447034D1*
X1017814Y448460D1*
X1022125D1*
X1024977Y447034D1*
X1027862Y444149D1*
X1029288Y439838D1*
Y436986D1*
X1027862Y432675D1*
X1024977Y429824D1*
X1022125Y428364D1*
X1017814D1*
X1014929Y429824D1*
X1012077Y432675D1*
X1002813Y448460D2*
X994191Y428364D1*
X985602Y448460D1*
X976339Y439838D2*
X959128D1*
Y442723D1*
X960554Y445609D1*
X961980Y447034D1*
X964865Y448460D1*
X969176D1*
X972028Y447034D1*
X974913Y444149D1*
X976339Y439838D1*
Y436986D1*
X974913Y432675D1*
X972028Y429824D1*
X969176Y428364D1*
X964865D1*
X961980Y429824D1*
X959128Y432675D1*
X949864Y448460D2*
Y428364D1*
Y442723D2*
X945553Y447034D1*
X942668Y448460D1*
X938390D1*
X935505Y447034D1*
X934079Y442723D1*
Y428364D1*
X2167039Y4585909D2*
X2197183D1*
Y4568698D1*
X2167039Y4540797D2*
Y4559434D1*
X2197183D1*
Y4540797D1*
X2181398Y4559434D2*
Y4547960D1*
X2167039Y4531534D2*
X2197183D1*
Y4521486D1*
X2195724Y4517175D1*
X2192872Y4514290D1*
X2189987Y4512864D1*
X2185709Y4511438D1*
X2178513D1*
X2174202Y4512864D1*
X2171350Y4514290D1*
X2168465Y4517175D1*
X2167039Y4521486D1*
Y4531534D1*
X2172809Y4502174D2*
X2171350Y4499289D1*
X2167072Y4494978D1*
X2197183D1*
X767039Y4592359D2*
X797183D1*
Y4575148D1*
X767039Y4547247D2*
Y4565884D1*
X797183D1*
Y4547247D1*
X781398Y4565884D2*
Y4554410D1*
X767039Y4537984D2*
X797183D1*
Y4527936D1*
X795724Y4523625D1*
X792872Y4520740D1*
X789987Y4519314D1*
X785709Y4517888D1*
X778513D1*
X774202Y4519314D1*
X771350Y4520740D1*
X768465Y4523625D1*
X767039Y4527936D1*
Y4537984D1*
X774235Y4507165D2*
X772809D1*
X769924Y4505739D1*
X768498Y4504313D1*
X767072Y4501428D1*
Y4495691D1*
X768498Y4492839D1*
X769924Y4491413D1*
X772809Y4489954D1*
X775661D1*
X778546Y4491413D1*
X782824Y4494265D1*
X797183Y4508624D1*
Y4488528D1*
X797656Y4231244D2*
X784757D1*
X780446Y4232703D1*
X778986Y4234129D1*
X777560Y4236981D1*
Y4239866D1*
X778986Y4242718D1*
X780446Y4244177D1*
X784757Y4245603D1*
X797656D1*
Y4215459D1*
X787608Y4231244D2*
X777560Y4215459D1*
X749627Y4235555D2*
X751086Y4231244D1*
X753938Y4228359D1*
X758249Y4226933D1*
X759675D1*
X763986Y4228359D1*
X766838Y4231244D1*
X768297Y4235555D1*
Y4236981D1*
X766838Y4241292D1*
X763986Y4244144D1*
X759675Y4245570D1*
X758249D1*
X753938Y4244144D1*
X751086Y4241292D1*
X749627Y4235555D1*
Y4228359D1*
X751086Y4221196D1*
X753938Y4216885D1*
X758249Y4215459D1*
X761101D1*
X765412Y4216885D1*
X766838Y4219770D1*
X1899502Y2573207D2*
X1886602D1*
X1882291Y2574666D1*
X1880832Y2576092D1*
X1879406Y2578944D1*
Y2581829D1*
X1880832Y2584681D1*
X1882291Y2586140D1*
X1886602Y2587566D1*
X1899502D1*
Y2557422D1*
X1889454Y2573207D2*
X1879406Y2557422D1*
X1870143Y2581796D2*
X1867258Y2583255D1*
X1862947Y2587533D1*
Y2557422D1*
X1845061Y2587533D2*
X1849372Y2586107D1*
X1852257Y2581796D1*
X1853683Y2574633D1*
Y2570322D1*
X1852257Y2563159D1*
X1849372Y2558848D1*
X1845061Y2557422D1*
X1842209D1*
X1837898Y2558848D1*
X1835046Y2563159D1*
X1833587Y2570322D1*
Y2574633D1*
X1835046Y2581796D1*
X1837898Y2586107D1*
X1842209Y2587533D1*
X1845061D1*
X1835046Y2581796D2*
X1852257Y2563159D1*
X2667673Y2573207D2*
X2654773D1*
X2650462Y2574666D1*
X2649003Y2576092D1*
X2647577Y2578944D1*
Y2581829D1*
X2649003Y2584681D1*
X2650462Y2586140D1*
X2654773Y2587566D1*
X2667673D1*
Y2557422D1*
X2657625Y2573207D2*
X2647577Y2557422D1*
X2636854Y2580370D2*
Y2581796D1*
X2635428Y2584681D1*
X2634002Y2586107D1*
X2631117Y2587533D1*
X2625380D1*
X2622529Y2586107D1*
X2621103Y2584681D1*
X2619643Y2581796D1*
Y2578944D1*
X2621103Y2576059D1*
X2623954Y2571781D1*
X2638314Y2557422D1*
X2618218D1*
X2601791Y2587533D2*
X2606069Y2586107D1*
X2607528Y2583255D1*
Y2580370D1*
X2606069Y2577518D1*
X2603217Y2576059D1*
X2597480Y2574633D1*
X2593169Y2573207D1*
X2590317Y2570322D1*
X2588891Y2567470D1*
Y2563159D1*
X2590317Y2560307D1*
X2591743Y2558848D1*
X2596054Y2557422D1*
X2601791D1*
X2606069Y2558848D1*
X2607528Y2560307D1*
X2608954Y2563159D1*
Y2567470D1*
X2607528Y2570322D1*
X2604643Y2573207D1*
X2600365Y2574633D1*
X2594628Y2576059D1*
X2591743Y2577518D1*
X2590317Y2580370D1*
Y2583255D1*
X2591743Y2586107D1*
X2596054Y2587533D1*
X2601791D1*
X2299198Y2563138D2*
X2286299D1*
X2281988Y2564597D1*
X2280528Y2566023D1*
X2279102Y2568875D1*
Y2571760D1*
X2280528Y2574612D1*
X2281988Y2576071D1*
X2286299Y2577497D1*
X2299198D1*
Y2547353D1*
X2289150Y2563138D2*
X2279102Y2547353D1*
X2268380Y2570301D2*
Y2571727D1*
X2266954Y2574612D1*
X2265528Y2576038D1*
X2262643Y2577464D1*
X2256906D1*
X2254054Y2576038D1*
X2252628Y2574612D1*
X2251169Y2571727D1*
Y2568875D1*
X2252628Y2565990D1*
X2255480Y2561712D1*
X2269839Y2547353D1*
X2249743D1*
X2221809Y2567449D2*
X2223268Y2563138D1*
X2226120Y2560253D1*
X2230431Y2558827D1*
X2231857D1*
X2236168Y2560253D1*
X2239020Y2563138D1*
X2240479Y2567449D1*
Y2568875D1*
X2239020Y2573186D1*
X2236168Y2576038D1*
X2231857Y2577464D1*
X2230431D1*
X2226120Y2576038D1*
X2223268Y2573186D1*
X2221809Y2567449D1*
Y2560253D1*
X2223268Y2553090D1*
X2226120Y2548779D1*
X2230431Y2547353D1*
X2233283D1*
X2237594Y2548779D1*
X2239020Y2551664D1*
X1443523Y2571193D2*
X1430623D1*
X1426312Y2572652D1*
X1424853Y2574078D1*
X1423427Y2576930D1*
Y2579815D1*
X1424853Y2582667D1*
X1426312Y2584126D1*
X1430623Y2585552D1*
X1443523D1*
Y2555408D1*
X1433475Y2571193D2*
X1423427Y2555408D1*
X1411278Y2585519D2*
X1395527D1*
X1404115Y2574045D1*
X1399804D1*
X1396952Y2572619D1*
X1395527Y2571193D1*
X1394067Y2566882D1*
Y2564030D1*
X1395527Y2559719D1*
X1398378Y2556834D1*
X1402689Y2555408D1*
X1407000D1*
X1411278Y2556834D1*
X1412704Y2558293D1*
X1414163Y2561145D1*
X1376182Y2585519D2*
X1380493Y2584093D1*
X1383378Y2579782D1*
X1384804Y2572619D1*
Y2568308D1*
X1383378Y2561145D1*
X1380493Y2556834D1*
X1376182Y2555408D1*
X1373330D1*
X1369019Y2556834D1*
X1366167Y2561145D1*
X1364708Y2568308D1*
Y2572619D1*
X1366167Y2579782D1*
X1369019Y2584093D1*
X1373330Y2585519D1*
X1376182D1*
X1366167Y2579782D2*
X1383378Y2561145D1*
X2602271Y2452623D2*
X2589371D1*
X2585060Y2454082D1*
X2583601Y2455508D1*
X2582175Y2458360D1*
Y2461245D1*
X2583601Y2464097D1*
X2585060Y2465556D1*
X2589371Y2466982D1*
X2602271D1*
Y2436838D1*
X2592223Y2452623D2*
X2582175Y2436838D1*
X2558553D2*
Y2466949D1*
X2572912Y2446886D1*
X2551390D1*
X2524915Y2466949D2*
X2539241D1*
X2540667Y2454049D1*
X2539241Y2455475D1*
X2534930Y2456934D1*
X2530652D1*
X2526341Y2455475D1*
X2523456Y2452623D1*
X2522030Y2448312D1*
Y2445460D1*
X2523456Y2441149D1*
X2526341Y2438264D1*
X2530652Y2436838D1*
X2534930D1*
X2539241Y2438264D1*
X2540667Y2439723D1*
X2542126Y2442575D1*
X815714Y3449944D2*
X802814D1*
X798503Y3451403D1*
X797044Y3452829D1*
X795618Y3455681D1*
Y3458566D1*
X797044Y3461417D1*
X798503Y3462877D1*
X802814Y3464303D1*
X815714D1*
Y3434159D1*
X805666Y3449944D2*
X795618Y3434159D1*
X771995D2*
Y3464269D1*
X786354Y3444207D1*
X764832D1*
X738358Y3459992D2*
X739784Y3462843D1*
X744095Y3464269D1*
X746947D1*
X751258Y3462843D1*
X754143Y3458532D1*
X755569Y3451369D1*
Y3444207D1*
X754143Y3438470D1*
X751258Y3435585D1*
X746947Y3434159D1*
X745521D1*
X741243Y3435585D1*
X738358Y3438470D1*
X736932Y3442781D1*
Y3444207D1*
X738358Y3448518D1*
X741243Y3451369D1*
X745521Y3452795D1*
X746947D1*
X751258Y3451369D1*
X754143Y3448518D1*
X755569Y3444207D1*
X1894123Y2447262D2*
X1881223D1*
X1876912Y2448722D1*
X1875453Y2450147D1*
X1874027Y2452999D1*
Y2455884D1*
X1875453Y2458736D1*
X1876912Y2460195D1*
X1881223Y2461621D1*
X1894123D1*
Y2431477D1*
X1884075Y2447262D2*
X1874027Y2431477D1*
X1850405D2*
Y2461588D1*
X1864764Y2441525D1*
X1843242D1*
X1828241Y2431477D2*
X1813882Y2461588D1*
X1833978D1*
X1223486Y2444583D2*
X1210586D1*
X1206275Y2446042D1*
X1204816Y2447468D1*
X1203390Y2450320D1*
Y2453205D1*
X1204816Y2456057D1*
X1206275Y2457516D1*
X1210586Y2458942D1*
X1223486D1*
Y2428798D1*
X1213438Y2444583D2*
X1203390Y2428798D1*
X1179767D2*
Y2458908D1*
X1194126Y2438846D1*
X1172604D1*
X1156178Y2458908D2*
X1160456Y2457483D1*
X1161915Y2454631D1*
Y2451746D1*
X1160456Y2448894D1*
X1157604Y2447435D1*
X1151867Y2446009D1*
X1147556Y2444583D1*
X1144704Y2441698D1*
X1143278Y2438846D1*
Y2434535D1*
X1144704Y2431683D1*
X1146130Y2430224D1*
X1150441Y2428798D1*
X1156178D1*
X1160456Y2430224D1*
X1161915Y2431683D1*
X1163341Y2434535D1*
Y2438846D1*
X1161915Y2441698D1*
X1159030Y2444583D1*
X1154752Y2446009D1*
X1149015Y2447435D1*
X1146130Y2448894D1*
X1144704Y2451746D1*
Y2454631D1*
X1146130Y2457483D1*
X1150441Y2458908D1*
X1156178D1*
X930115Y2444583D2*
X917215D1*
X912904Y2446042D1*
X911445Y2447468D1*
X910019Y2450320D1*
Y2453205D1*
X911445Y2456057D1*
X912904Y2457516D1*
X917215Y2458942D1*
X930115D1*
Y2428798D1*
X920067Y2444583D2*
X910019Y2428798D1*
X886396D2*
Y2458908D1*
X900755Y2438846D1*
X879233D1*
X851300Y2448894D2*
X852759Y2444583D1*
X855611Y2441698D1*
X859922Y2440272D1*
X861348D1*
X865659Y2441698D1*
X868511Y2444583D1*
X869970Y2448894D1*
Y2450320D1*
X868511Y2454631D1*
X865659Y2457483D1*
X861348Y2458908D1*
X859922D1*
X855611Y2457483D1*
X852759Y2454631D1*
X851300Y2448894D1*
Y2441698D1*
X852759Y2434535D1*
X855611Y2430224D1*
X859922Y2428798D1*
X862774D1*
X867085Y2430224D1*
X868511Y2433109D1*
X2424928Y4563162D2*
X2427780Y4566047D1*
X2432091Y4567473D1*
X2437828D1*
X2442139Y4566047D1*
X2445024Y4563162D1*
Y4560310D1*
X2443565Y4557425D1*
X2442139Y4555999D1*
X2439287Y4554573D1*
X2430665Y4551688D1*
X2427780Y4550262D1*
X2426354Y4548803D1*
X2424928Y4545951D1*
Y4541640D1*
X2427780Y4538788D1*
X2432091Y4537329D1*
X2437828D1*
X2442139Y4538788D1*
X2445024Y4541640D1*
X2415665Y4567473D2*
X2408469Y4537329D1*
X2401306Y4567473D1*
X2394143Y4537329D1*
X2386947Y4567473D1*
X2377683Y4561703D2*
X2374798Y4563162D1*
X2370487Y4567440D1*
Y4537329D1*
X588832Y4406544D2*
X591683Y4409429D1*
X595994Y4410855D1*
X601731D1*
X606042Y4409430D1*
X608928Y4406545D1*
Y4403693D1*
X607469Y4400808D1*
X606043Y4399382D1*
X603191Y4397956D1*
X594569Y4395070D1*
X591684Y4393644D1*
X590258Y4392185D1*
X588832Y4389333D1*
Y4385022D1*
X591684Y4382170D1*
X595995Y4380711D1*
X601732D1*
X606043Y4382171D1*
X608928Y4385023D1*
X579568Y4410855D2*
X572373Y4380711D1*
X565209Y4410855D1*
X558047Y4380711D1*
X550850Y4410854D1*
X540127Y4403658D2*
Y4405084D1*
X538701Y4407969D1*
X537275Y4409395D1*
X534390Y4410821D1*
X528653D1*
X525801Y4409395D1*
X524375Y4407969D1*
X522916Y4405084D1*
Y4402232D1*
X524376Y4399347D1*
X527228Y4395069D1*
X541587Y4380710D1*
X521491D1*
M02*
