M48
INCH
T01C0.015
T02C0.024
T03C0.0276
T04C0.0394
T05C0.04
T06C0.043
T07C0.05
T08C0.052
%
T01
X+016817Y+036317
X+016907Y+035942
X+016946Y+035442
X+017255Y+035129
X+016440Y+035203
X+015210Y+034719
X+015194Y+033440
X+014101Y+031981
X+014399Y+031664
X+014689Y+031370
X+012291Y+030799
X+010736Y+031272
X+010740Y+031664
X+010514Y+031981
X+011604Y+032346
X+012423Y+032855
X+012104Y+033436
X+012109Y+034430
X+010832Y+033186
X+008446Y+032855
X+006071Y+033824
X+004504Y+035192
X+004504Y+035504
X+004504Y+035817
X+006071Y+036192
X+007317Y+035754
X+007942Y+035754
X+008629Y+035754
X+009586Y+036457
X+010610Y+035702
X+012317Y+037067
X+012243Y+037640
X+012879Y+038317
X+011657Y+039152
X+010504Y+040379
X+010504Y+040942
X+011378Y+042689
X+011684Y+043202
X+011004Y+043565
X+010192Y+042929
X+009592Y+043495
X+007926Y+044475
X+006570Y+041898
X+004879Y+041204
X+008407Y+041210
X+008442Y+039192
X+009471Y+038391
X+010129Y+038254
X+013442Y+035629
X+014097Y+035752
X+014933Y+036218
X+014933Y+037169
X+015444Y+037694
X+015793Y+037883
X+014933Y+038540
X+015218Y+038896
X+016879Y+039942
X+017306Y+039261
X+017754Y+040567
X+018004Y+040839
X+018528Y+040806
X+018879Y+040379
X+019094Y+040769
X+019959Y+040801
X+020348Y+040274
X+019504Y+039567
X+018942Y+039567
X+018942Y+038879
X+019504Y+038879
X+018619Y+038365
X+018192Y+038129
X+018379Y+037692
X+018894Y+037746
X+020348Y+037254
X+020605Y+036086
X+019802Y+036126
X+019317Y+036004
X+018879Y+036067
X+019137Y+034981
X+018327Y+033055
X+018016Y+032800
X+017642Y+032543
X+017449Y+032263
X+018876Y+032554
X+019155Y+032275
X+018442Y+028158
X+019317Y+026260
X+020294Y+024892
X+020127Y+024311
X+019036Y+024299
X+017170Y+025794
X+016118Y+024710
X+015644Y+024597
X+016351Y+024251
X+014818Y+023360
X+014523Y+023729
X+013819Y+024327
X+012363Y+024322
X+012318Y+024996
X+011670Y+026094
X+010504Y+025795
X+010065Y+025406
X+009742Y+025694
X+009434Y+025911
X+009101Y+026027
X+008813Y+025632
X+008360Y+026090
X+008080Y+025821
X+007786Y+025005
X+008004Y+023719
X+008573Y+023681
X+008851Y+023308
X+009629Y+023129
X+010856Y+023530
X+012843Y+023055
X+013275Y+022739
X+012062Y+020720
X+013120Y+020081
X+013810Y+017905
X+015109Y+018314
X+014847Y+016764
X+013810Y+016212
X+014067Y+014776
X+014932Y+014176
X+013847Y+013522
X+012708Y+013805
X+011420Y+013717
X+010257Y+013698
X+010432Y+012147
X+010745Y+010884
X+010732Y+010397
X+012785Y+011675
X+013375Y+012400
X+013381Y+010879
X+016015Y+010697
X+016028Y+011202
X+017440Y+011248
X+018723Y+011234
X+019236Y+010287
X+020492Y+010855
X+019807Y+011555
X+020851Y+011990
X+020891Y+012621
X+019825Y+013107
X+018669Y+013168
X+018708Y+014413
X+017743Y+015689
X+017610Y+017058
X+016762Y+017446
X+016339Y+016899
X+017625Y+018204
X+017579Y+018664
X+018475Y+020114
X+018265Y+020708
X+021443Y+022672
X+021943Y+023330
X+021712Y+024152
X+021870Y+025013
X+023939Y+024757
X+025562Y+023820
X+026152Y+023765
X+026590Y+023055
X+027180Y+021129
X+024118Y+020197
X+023446Y+020958
X+023034Y+020575
X+023076Y+017362
X+023029Y+016465
X+021443Y+016760
X+019732Y+016118
X+018962Y+016421
X+019440Y+016981
X+020782Y+014848
X+024713Y+014733
X+026067Y+011924
X+026736Y+011949
X+027003Y+010715
X+026067Y+010626
X+023072Y+011180
X+027089Y+007339
X+026655Y+005926
X+023745Y+004466
X+018876Y+005932
X+014912Y+006391
X+010720Y+005870
X+007728Y+010672
X+008372Y+012224
X+005755Y+012208
X+005398Y+010864
X+004680Y+010759
X+004732Y+013690
X+005323Y+013781
X+006343Y+014136
X+008353Y+017235
X+009567Y+017504
X+010442Y+017879
X+012435Y+017679
X+008085Y+019788
X+007580Y+020031
X+008376Y+020310
X+008379Y+021192
X+008809Y+021221
X+006533Y+020625
X+004942Y+022942
X+007028Y+023917
X+006122Y+025629
X+007852Y+026893
X+011040Y+028466
X+011072Y+029060
X+011474Y+029095
X+015763Y+027685
X+016754Y+037067
X+017254Y+037129
X+016192Y+041004
X+016754Y+041192
X+017129Y+041942
X+017504Y+041879
X+018368Y+041784
X+018692Y+042129
X+019004Y+041879
X+019085Y+042268
X+020121Y+041791
X+021044Y+041858
X+021798Y+043049
X+022317Y+043500
X+022879Y+044004
X+023376Y+042787
X+024666Y+041273
X+021886Y+039379
X+021504Y+039942
X+022410Y+037715
X+022822Y+035789
X+024763Y+035779
X+026894Y+038672
X+020629Y+043817
X+020796Y+045010
X+020782Y+045442
X+021060Y+045903
X+021434Y+046475
X+021574Y+044987
X+018754Y+043379
X+018442Y+043629
X+017770Y+044480
X+017754Y+045192
X+017886Y+045977
X+018379Y+046393
X+017203Y+046441
X+016942Y+044567
X+017027Y+043999
X+016787Y+043110
X+017067Y+042817
X+015629Y+043129
X+015192Y+043129
X+015192Y+043754
X+015629Y+043754
X+013005Y+042784
X+004879Y+030358
X+004516Y+017893
X+004593Y+007446
X+005051Y+005988
X+025826Y+028033
T02
X+019317Y+046442
X+019817Y+046442
X+019817Y+045942
X+019317Y+045942
X+019317Y+045442
X+019817Y+045442
X+019817Y+044942
X+019317Y+044942
X+019317Y+044442
X+019817Y+044442
T03
X+022817Y+046192
X+022817Y+045404
X+022817Y+044617
X+008817Y+044617
X+008817Y+045404
X+008817Y+046192
T04
X+006833Y+036999
X+007817Y+036999
X+008801Y+036999
X+008801Y+029186
X+007817Y+029186
X+006833Y+029186
X+006583Y+019186
X+007567Y+019186
X+008551Y+019186
X+012083Y+019186
X+013067Y+019186
X+014051Y+019186
X+017583Y+019186
X+018567Y+019186
X+019551Y+019186
X+023083Y+019186
X+024067Y+019186
X+025051Y+019186
T05
X+026437Y+015442
X+020937Y+015442
X+021817Y+009312
X+025817Y+009312
X+017817Y+009312
X+013817Y+009312
X+009817Y+009312
X+005817Y+009312
X+005197Y+015442
X+010697Y+015442
X+007097Y+044552
X+007097Y+046332
X+004537Y+046332
X+004537Y+044552
X+011317Y+044942
X+011317Y+045942
X+012317Y+045942
X+012317Y+044942
X+013317Y+044942
X+013317Y+045942
X+014317Y+045942
X+014317Y+044942
X+015317Y+044942
X+015317Y+045942
X+024537Y+046332
X+024537Y+044552
X+027097Y+044552
X+027097Y+046332
T06
X+018317Y+027068
X+017317Y+027068
X+016317Y+027068
X+015317Y+027068
X+014317Y+027068
X+013317Y+027068
X+012317Y+027068
X+019317Y+027068
X+020317Y+027068
X+021317Y+027068
X+022317Y+027068
X+023317Y+027068
X+024317Y+027068
X+025317Y+027068
X+026317Y+027068
X+027317Y+027068
X+026317Y+042816
X+024317Y+042816
X+022317Y+042816
X+020317Y+042816
X+018317Y+042816
X+016317Y+042816
X+014317Y+042816
X+012317Y+042816
T07
X+005966Y+039905G85X+005966Y+039605
X+009667Y+039905G85X+009667Y+039605
X+009667Y+032092G85X+009667Y+031792
X+005966Y+032092G85X+005966Y+031792
X+005716Y+022092G85X+005716Y+021792
X+009417Y+022092G85X+009417Y+021792
X+011216Y+022092G85X+011216Y+021792
X+014917Y+022092G85X+014917Y+021792
X+016716Y+022092G85X+016716Y+021792
X+020417Y+022092G85X+020417Y+021792
X+022216Y+022092G85X+022216Y+021792
X+025917Y+022092G85X+025917Y+021792
T08
X+025437Y+015442
X+022187Y+015442
X+019937Y+015442
X+016687Y+015442
X+014947Y+015442
X+011697Y+015442
X+009447Y+015442
X+006197Y+015442
X+005817Y+008312
X+005817Y+005062
X+009817Y+005062
X+009817Y+008312
X+013817Y+008312
X+013817Y+005062
X+017817Y+005062
X+017817Y+008312
X+021817Y+008312
X+021817Y+005062
X+025817Y+005062
X+025817Y+008312
T00
M30
